<svg width="270" height="252" viewBox="0 0 270 252" fill="none" xmlns="http://www.w3.org/2000/svg">
<path d="M137.261 47.006L136.707 48.5176C129.481 48.1885 122.119 48.2521 114.942 49.303C112.258 49.6956 103.503 51.457 101.987 53.5905C100.653 55.4676 104.344 57.011 105.728 57.5535C117.442 62.1293 141.009 61.8865 153.145 58.6975C154.684 58.2934 160.294 56.6978 160.124 54.646C159.573 52.8665 157.363 52.1243 155.757 51.541C152.26 50.2722 148.417 49.8023 144.748 49.2735L145.002 47.9411C145.492 47.5235 152.326 49.0442 153.42 49.3393C156.099 50.0633 161.633 51.6522 161.551 55.0659C161.452 59.3625 156.63 61.9228 155.516 66.0605C154.166 71.063 158.187 77.9086 159.784 82.691C163.657 94.278 163.169 104.971 155.405 114.749C154.557 115.816 152.122 117.976 151.732 119.018C151.165 120.528 152.009 121.901 151.625 123.453C150.963 126.141 146.724 127.183 144.338 127.736C135.711 129.734 124.952 129.777 116.385 127.469C114.654 127.003 111.137 125.896 110.159 124.391C109.107 122.772 109.826 121.733 109.787 120.224C109.737 118.306 106.198 115.203 104.95 113.487C98.8129 105.048 97.7125 95.0951 100.623 85.1377C102.112 80.049 107.106 71.4262 105.885 66.4736C104.837 62.2156 99.2326 58.416 100.104 54.2034C100.796 50.86 108.712 48.992 111.575 48.4314C119.893 46.7994 128.819 46.5657 137.261 47.0037V47.006ZM157.227 59.2649C153.946 60.1319 150.661 61.1443 147.301 61.7026C138.938 63.0917 129.477 63.2574 121.041 62.4403C114.933 61.8479 108.821 60.6948 103.23 58.13C102.988 58.3752 106.012 62.2224 106.361 62.8261C110.52 70.0212 106.055 75.6774 103.68 82.5253C99.1555 95.5604 100.657 106.305 110.146 116.465C118.187 125.072 140.136 126.15 149.064 118.621C160.111 109.301 162.046 96.2845 157.69 82.9747C155.818 77.2526 151.432 70.5387 153.942 64.4899L157.227 59.2672V59.2649ZM111.97 120.997C111.003 122.545 111.823 124.073 113.354 124.829C119.906 128.065 141.93 128.454 148.211 124.799C149.581 124 150.017 122.579 149.168 121.224C146.268 122.673 143.462 123.764 140.254 124.332C133.967 125.442 126.522 125.376 120.288 124.021C117.397 123.392 114.581 122.368 111.97 120.997Z" fill="#6CB3FF"/>
<path d="M142.261 54.7457C142.545 55.0133 149.698 53.8976 149.973 53.6096C150.397 53.1674 149.047 52.8816 148.838 52.8204C147.779 52.5029 144.616 52.2557 144.072 51.9156C143.595 51.6163 144.126 50.691 144.618 50.6797C145.308 50.6616 147.128 51.0743 147.937 51.2262C157.099 52.927 151.86 55.1266 146.383 56.0383C137.093 57.5848 122.269 57.6052 113.172 55.1357C111.915 54.7933 109.485 54.3194 109.846 52.6322C110.045 52.029 112.956 51.3872 113.671 51.233C120.892 49.6524 128.44 50.0334 135.793 49.9858C136.51 50.0334 136.308 50.6865 135.993 51.1355C128.204 51.3577 120.168 51.0085 112.539 52.9383C112.08 53.4077 113.516 53.6368 113.712 53.6889C115.701 54.24 118.294 54.537 120.366 54.7479C125.282 55.2446 130.296 55.2899 135.233 55.0994C139.337 44.4798 142.413 33.0779 147.434 22.8483C152.057 13.4283 159.349 7.3373 166.872 0.32786C168.041 -0.846804 171.244 1.40048 170.804 2.88355L159.835 14.383C155.077 19.3198 152.686 25.5061 150.252 31.7898C147.334 39.3276 144.655 47.0355 142.254 54.7479L142.261 54.7457ZM162.357 9.52562C164.54 7.20577 166.761 4.93354 169.025 2.68853C168.342 1.55241 167.766 1.46851 166.791 2.27807C157.913 9.63674 151.443 18.0136 146.76 28.5153C143.468 35.8989 140.029 44.7769 137.619 52.4871C137.501 52.8635 136.877 54.8069 137.043 54.9724C138.18 54.7888 139.938 55.4895 140.641 54.376C146.206 40.4433 148.825 24.565 158.932 13.0179C159.991 11.8092 161.253 10.698 162.357 9.52562Z" fill="#6CB3FF"/>
<path d="M155.427 97.6411C155.079 106.815 149.045 116.737 139.73 118.988C142.456 117.093 145.109 115.342 147.355 112.859C151.33 108.467 153.257 103.744 154.945 98.1681C155.056 97.7955 154.763 97.5275 155.427 97.6411Z" fill="#6CB3FF"/>
<path d="M114.208 114.088C115.796 115.751 117.743 117.049 119.338 118.708C110.081 115.349 105.43 105.445 105.253 96.0735C105.539 96.1437 105.773 96.4334 105.873 96.6983C106.464 98.2398 106.678 100.623 107.23 102.364C108.611 106.726 111.049 110.78 114.208 114.088Z" fill="#6CB3FF"/>
<path d="M151.361 63.8127C150.592 66.4285 150.16 69.0466 149.885 71.7578C148.909 69.998 149.157 66.8849 150.058 65.1206C150.167 64.9072 151.082 63.5016 151.361 63.8127Z" fill="#6CB3FF"/>
<path d="M112.335 71.3181C111.732 71.3681 111.957 71.3431 111.888 70.9727C111.697 69.95 111.766 68.8045 111.592 67.8523C111.404 66.8296 110.97 65.8319 110.738 64.8319C110.699 64.6637 110.343 64.0115 110.848 64.0501C112.287 64.1615 113.06 70.1636 112.338 71.3181H112.335Z" fill="#6CB3FF"/>
<g clip-path="url(#clip0_668_385)">
<path d="M139.554 90.3738C139.636 91.8043 138.539 93.0291 137.113 93.1114C137.062 93.1114 137.011 93.1114 136.959 93.1114C135.523 93.1114 134.364 91.9484 134.375 90.5076C134.375 89.0667 135.534 87.9037 136.97 87.914C138.344 87.914 139.482 88.9947 139.554 90.3738Z" fill="white"/>
<path d="M149.219 89.7053C149.681 89.6744 150.081 90.0349 150.102 90.4984C150.122 90.962 149.773 91.3637 149.311 91.3843C148.849 91.4152 148.459 91.0547 148.428 90.5912C148.398 90.1276 148.757 89.7362 149.219 89.7053Z" fill="white"/>
<path d="M139.719 75.2843C139.308 75.0783 139.144 74.5633 139.349 74.1513C139.555 73.7393 140.068 73.5745 140.479 73.7805C140.889 73.9865 141.053 74.4912 140.848 74.9032C140.643 75.3255 140.14 75.5006 139.719 75.2843Z" fill="white"/>
<path d="M137.093 79.8846C136.457 79.5656 136.201 78.7834 136.519 78.1453C136.837 77.5072 137.616 77.2499 138.252 77.5689C138.888 77.888 139.144 78.6702 138.826 79.3083C138.508 79.9464 137.729 80.2036 137.093 79.8846Z" fill="white"/>
<path d="M145.937 83.0458C145.444 83.3651 144.787 83.2312 144.459 82.7368C144.141 82.2424 144.274 81.5832 144.767 81.2536C145.259 80.9343 145.916 81.0682 146.245 81.5626C146.573 82.057 146.43 82.7265 145.937 83.0458Z" fill="white"/>
<path d="M144.368 89.2425C145.086 89.2014 145.691 89.7468 145.732 90.4673C145.773 91.1877 145.23 91.7949 144.512 91.8361C143.794 91.8773 143.188 91.3318 143.147 90.6114C143.106 89.9012 143.65 89.2837 144.368 89.2425Z" fill="white"/>
<path d="M145.792 97.9606C146.315 98.2284 146.531 98.867 146.264 99.4026C145.997 99.9279 145.361 100.144 144.827 99.8764C144.304 99.6086 144.088 98.97 144.355 98.4344C144.622 97.9091 145.268 97.6928 145.792 97.9606Z" fill="white"/>
<path d="M140.766 86.5556C140.058 87.0187 139.115 86.8232 138.663 86.113C138.202 85.4029 138.397 84.456 139.104 84.0032C139.812 83.5401 140.756 83.7356 141.207 84.4458C141.669 85.1456 141.474 86.0924 140.766 86.5556Z" fill="white"/>
<path d="M124.813 79.782C124.218 80.1731 123.407 80.0084 123.018 79.4115C122.628 78.8146 122.792 78.0015 123.387 77.6104C123.982 77.2194 124.792 77.384 125.182 77.981C125.582 78.5882 125.418 79.3909 124.813 79.782Z" fill="white"/>
<path d="M122.167 75.2014C121.777 75.4589 121.264 75.3456 121.007 74.9542C120.75 74.5628 120.863 74.0478 121.253 73.7903C121.643 73.5328 122.157 73.6461 122.413 74.0272C122.66 74.4186 122.547 74.9439 122.167 75.2014Z" fill="white"/>
<path d="M124.62 87.893C126.046 87.8107 127.276 88.9119 127.348 90.3425C127.43 91.773 126.333 93.0081 124.907 93.0801C124.856 93.0801 124.804 93.0801 124.763 93.0801C123.338 93.0801 122.179 91.9171 122.179 90.4763C122.168 89.1074 123.245 87.965 124.62 87.893Z" fill="white"/>
<path d="M136.243 86.3691C135.802 87.2439 134.91 87.7996 133.925 87.7996C132.499 87.7996 131.34 86.6367 131.34 85.1958C131.34 84.7944 131.433 84.393 131.617 84.0225C132.263 82.7361 133.823 82.2215 135.094 82.8698C136.377 83.5285 136.889 85.0929 136.243 86.3691Z" fill="white"/>
<path d="M115.938 83.0459C115.415 82.7781 115.21 82.1292 115.477 81.6039C115.743 81.0785 116.39 80.8725 116.914 81.1404C117.437 81.4082 117.642 82.0468 117.386 82.5721C117.109 83.0974 116.472 83.3137 115.938 83.0459Z" fill="white"/>
<path d="M122.504 83.8682C123.253 84.249 123.56 85.165 123.181 85.9163C122.801 86.6676 121.889 86.9763 121.14 86.5955C120.391 86.2147 120.083 85.2987 120.463 84.5474C120.842 83.7961 121.755 83.4977 122.504 83.8682Z" fill="white"/>
<path d="M130.969 74.8114C130.384 74.8423 129.881 74.3891 129.84 73.802C129.799 73.2149 130.261 72.7102 130.846 72.669C131.431 72.6381 131.934 73.081 131.975 73.6681C132.006 74.2655 131.554 74.7702 130.969 74.8114Z" fill="white"/>
<path d="M130.979 81.5309C130.138 81.5824 129.42 80.934 129.379 80.0901C129.328 79.2461 129.974 78.5257 130.815 78.4846C131.656 78.4331 132.374 79.0815 132.415 79.9254C132.456 80.7693 131.82 81.4898 130.979 81.5309Z" fill="white"/>
<path d="M139.229 97.1373C138.48 96.7565 138.172 95.8405 138.552 95.0892C138.931 94.3379 139.844 94.0291 140.593 94.4099C141.342 94.7907 141.649 95.7067 141.27 96.458C140.89 97.2093 139.977 97.5181 139.229 97.1373Z" fill="white"/>
<path d="M129.994 83.7657C130.773 84.9698 130.445 86.5753 129.245 87.3575C128.045 88.1397 126.445 87.8104 125.665 86.6062C124.886 85.4021 125.214 83.7966 126.414 83.0144C126.835 82.7365 127.327 82.5924 127.829 82.5924C128.701 82.5924 129.512 83.035 129.994 83.7657Z" fill="white"/>
<path d="M125.492 94.635C126.138 93.3485 127.698 92.8339 128.969 93.4823C130.252 94.1307 130.764 95.695 130.118 96.9712C129.472 98.2577 127.913 98.7723 126.641 98.1239C125.369 97.4858 124.846 95.942 125.482 94.6555C125.482 94.6453 125.482 94.6453 125.492 94.635Z" fill="white"/>
<path d="M120.968 94.4505C121.675 93.9873 122.619 94.1829 123.07 94.893C123.532 95.6032 123.337 96.55 122.629 97.0028C121.921 97.466 120.978 97.2704 120.527 96.5603C120.065 95.8605 120.26 94.9136 120.968 94.4505Z" fill="white"/>
<path d="M116.002 90.5493C115.961 89.8289 116.505 89.2217 117.223 89.1805C117.941 89.1394 118.546 89.6848 118.587 90.4053C118.628 91.1257 118.084 91.7329 117.366 91.7741C116.658 91.8152 116.043 91.2595 116.002 90.5493Z" fill="white"/>
<path d="M112.421 89.622C112.883 89.5911 113.283 89.9516 113.304 90.4151C113.324 90.8786 112.975 91.2803 112.513 91.3009C112.051 91.3318 111.661 90.9713 111.631 90.5078C111.61 90.0443 111.959 89.6529 112.421 89.622Z" fill="white"/>
<path d="M115.795 97.961C116.287 97.6417 116.944 97.7756 117.273 98.27C117.591 98.7644 117.458 99.4236 116.965 99.7532C116.472 100.073 115.815 99.9386 115.487 99.4442C115.158 98.9498 115.302 98.2803 115.795 97.961Z" fill="white"/>
<path d="M139.576 105.804C139.966 105.547 140.479 105.66 140.736 106.041C140.992 106.433 140.879 106.948 140.5 107.205C140.11 107.463 139.596 107.349 139.34 106.968C139.073 106.587 139.186 106.062 139.576 105.804Z" fill="white"/>
<path d="M122.014 105.722C122.424 105.928 122.589 106.443 122.383 106.855C122.178 107.267 121.665 107.432 121.254 107.226C120.844 107.02 120.679 106.515 120.885 106.103C121.09 105.681 121.593 105.506 122.014 105.722Z" fill="white"/>
<path d="M131.74 97.2388C130.961 96.0346 131.289 94.4291 132.489 93.6366C133.689 92.8545 135.289 93.1838 136.079 94.388C136.869 95.5921 136.53 97.1976 135.33 97.9901C134.91 98.268 134.417 98.4121 133.915 98.4121C133.033 98.4224 132.222 97.9798 131.74 97.2388Z" fill="white"/>
<path d="M136.918 101.223C137.513 100.832 138.324 100.997 138.713 101.594C139.103 102.191 138.939 103.004 138.344 103.395C137.749 103.786 136.939 103.621 136.549 103.024C136.149 102.428 136.313 101.614 136.918 101.223Z" fill="white"/>
<path d="M130.877 106.196C131.462 106.165 131.965 106.618 132.006 107.205C132.047 107.792 131.585 108.297 131 108.338C130.415 108.369 129.912 107.926 129.871 107.339C129.84 106.742 130.292 106.237 130.877 106.196Z" fill="white"/>
<path d="M130.868 99.4742C131.709 99.4227 132.427 100.071 132.468 100.915C132.519 101.759 131.873 102.479 131.032 102.521C130.191 102.562 129.473 101.924 129.432 101.08C129.38 100.246 130.027 99.5153 130.868 99.4742Z" fill="white"/>
<path d="M124.64 101.121C125.276 101.45 125.533 102.232 125.205 102.87C124.876 103.508 124.097 103.766 123.461 103.436C122.825 103.117 122.569 102.335 122.886 101.697C123.215 101.059 123.994 100.791 124.64 101.121Z" fill="white"/>
</g>
<mask id="path-37-outside-1_668_385" maskUnits="userSpaceOnUse" x="2" y="150.903" width="268" height="31" fill="black">
<rect fill="white" x="2" y="150.903" width="268" height="31"/>
<path d="M19.1571 173.958C19.1571 174.919 18.9729 175.82 18.6047 176.661C18.2495 177.503 17.7563 178.24 17.125 178.871C16.4936 179.502 15.7505 180.002 14.8956 180.37C14.0538 180.726 13.1528 180.903 12.1927 180.903H3.23559V152.611H12.1927C13.1528 152.611 14.0538 152.796 14.8956 153.164C15.7505 153.519 16.4936 154.012 17.125 154.643C17.7563 155.275 18.2495 156.018 18.6047 156.873C18.9729 157.715 19.1571 158.616 19.1571 159.576V159.852C19.1571 160.523 19.065 161.167 18.8809 161.785C18.7099 162.39 18.46 162.956 18.1312 163.482C17.8023 164.008 17.4143 164.488 16.9671 164.922C16.5199 165.343 16.0201 165.698 15.4677 165.988C16.0201 166.277 16.5199 166.639 16.9671 167.073C17.4143 167.494 17.8023 167.974 18.1312 168.513C18.46 169.039 18.7099 169.611 18.8809 170.23C19.065 170.835 19.1571 171.473 19.1571 172.143V173.958ZM16.612 171.729C16.612 171.098 16.4936 170.512 16.2569 169.973C16.0201 169.421 15.6913 168.941 15.2704 168.533C14.8627 168.125 14.3826 167.803 13.8302 167.566C13.2909 167.329 12.7056 167.211 12.0743 167.211H5.78066V178.476H12.0743C12.7056 178.476 13.2909 178.358 13.8302 178.121C14.3826 177.885 14.8627 177.562 15.2704 177.155C15.6913 176.747 16.0201 176.273 16.2569 175.734C16.4936 175.182 16.612 174.59 16.612 173.958V171.729ZM16.612 159.576C16.612 158.944 16.4936 158.359 16.2569 157.82C16.0201 157.267 15.6913 156.787 15.2704 156.38C14.8627 155.959 14.3826 155.63 13.8302 155.393C13.2909 155.156 12.7056 155.038 12.0743 155.038H5.78066V164.784H12.0743C12.7056 164.784 13.2909 164.666 13.8302 164.429C14.3826 164.192 14.8627 163.87 15.2704 163.462C15.6913 163.042 16.0201 162.561 16.2569 162.022C16.4936 161.47 16.612 160.878 16.612 160.247V159.576ZM43.982 174.353C43.982 175.313 43.7978 176.214 43.4295 177.056C43.0744 177.898 42.5812 178.634 41.9499 179.266C41.3185 179.897 40.582 180.397 39.7402 180.765C38.8984 181.12 37.9974 181.298 37.0373 181.298H35.0249C34.0647 181.298 33.1572 181.12 32.3023 180.765C31.4605 180.397 30.7239 179.897 30.0926 179.266C29.4613 178.634 28.9614 177.898 28.5932 177.056C28.238 176.214 28.0605 175.313 28.0605 174.353V152.611H30.6055V174.353C30.6055 174.984 30.7239 175.576 30.9607 176.129C31.1974 176.668 31.5197 177.148 31.9274 177.569C32.3483 177.977 32.8284 178.299 33.3676 178.536C33.9201 178.772 34.5119 178.891 35.1433 178.891H36.9189C37.5502 178.891 38.1355 178.772 38.6748 178.536C39.2272 178.299 39.7073 177.977 40.115 177.569C40.5228 177.148 40.845 176.668 41.0818 176.129C41.3185 175.576 41.4369 174.984 41.4369 174.353V152.611H43.982V174.353ZM54.5032 180.903V152.611H57.0482V180.903H54.5032ZM83.9052 173.958C83.9052 174.919 83.7211 175.82 83.3528 176.661C82.9977 177.503 82.5045 178.24 81.8731 178.871C81.2418 179.502 80.4987 180.002 79.6437 180.37C78.8019 180.726 77.901 180.903 76.9408 180.903H67.9837V152.611H76.9408C77.901 152.611 78.8019 152.796 79.6437 153.164C80.4987 153.519 81.2418 154.012 81.8731 154.643C82.5045 155.275 82.9977 156.018 83.3528 156.873C83.7211 157.715 83.9052 158.616 83.9052 159.576V173.958ZM81.3602 159.576C81.3602 158.944 81.2418 158.359 81.005 157.82C80.7683 157.267 80.4395 156.787 80.0186 156.38C79.6108 155.959 79.1308 155.63 78.5783 155.393C78.0391 155.156 77.4538 155.038 76.8224 155.038H70.5288V178.476H76.8224C77.4538 178.476 78.0391 178.358 78.5783 178.121C79.1308 177.885 79.6108 177.562 80.0186 177.155C80.4395 176.747 80.7683 176.273 81.005 175.734C81.2418 175.182 81.3602 174.59 81.3602 173.958V159.576ZM93.9924 180.903V152.611H96.5375V178.476H107.369V180.903H93.9924ZM115.858 180.903V152.611H131.779V155.038H118.403V165.554H129.234V167.98H118.403V178.476H131.779V180.903H115.858ZM154.395 180.903L146.72 168.829H143.228V180.903H140.683V152.611H149.66C150.62 152.611 151.521 152.796 152.362 153.164C153.204 153.519 153.941 154.012 154.572 154.643C155.203 155.275 155.697 156.018 156.052 156.873C156.42 157.715 156.604 158.616 156.604 159.576V161.864C156.604 162.825 156.42 163.732 156.052 164.587C155.697 165.429 155.203 166.165 154.572 166.797C153.941 167.428 153.204 167.928 152.362 168.296C151.521 168.651 150.62 168.829 149.66 168.829L157.334 180.903H154.395ZM154.059 159.576C154.059 158.944 153.941 158.359 153.704 157.82C153.467 157.267 153.145 156.787 152.737 156.38C152.33 155.959 151.85 155.63 151.297 155.393C150.758 155.156 150.173 155.038 149.541 155.038H143.228V166.402H149.541C150.173 166.402 150.758 166.284 151.297 166.047C151.85 165.81 152.33 165.488 152.737 165.08C153.145 164.659 153.467 164.179 153.704 163.64C153.941 163.088 154.059 162.496 154.059 161.864V159.576ZM182.954 155.038V165.554H193.785V167.98H182.954V180.903H180.409V152.611H196.33V155.038H182.954ZM204.819 180.903V152.611H220.741V155.038H207.364V165.554H218.196V167.98H207.364V178.476H220.741V180.903H204.819ZM245.566 174.353C245.566 175.313 245.368 176.214 244.974 177.056C244.592 177.898 244.073 178.634 243.415 179.266C242.771 179.897 242.014 180.397 241.146 180.765C240.291 181.12 239.384 181.298 238.424 181.298H236.392C235.431 181.298 234.517 181.12 233.649 180.765C232.794 180.397 232.038 179.897 231.38 179.266C230.736 178.634 230.216 177.898 229.822 177.056C229.44 176.214 229.25 175.313 229.25 174.353V173.228L231.795 172.814V174.353C231.795 174.984 231.92 175.576 232.17 176.129C232.433 176.668 232.781 177.148 233.215 177.569C233.649 177.977 234.149 178.299 234.715 178.536C235.293 178.772 235.898 178.891 236.53 178.891H238.305C238.937 178.891 239.535 178.772 240.101 178.536C240.666 178.299 241.166 177.977 241.6 177.569C242.034 177.148 242.376 176.668 242.626 176.129C242.889 175.576 243.021 174.984 243.021 174.353V173.505C243.021 172.531 242.83 171.722 242.448 171.078C242.067 170.433 241.561 169.888 240.929 169.44C240.298 168.98 239.581 168.592 238.779 168.276C237.99 167.961 237.174 167.645 236.332 167.329C235.491 167.014 234.669 166.665 233.866 166.284C233.077 165.902 232.367 165.429 231.736 164.863C231.104 164.284 230.598 163.581 230.216 162.752C229.835 161.924 229.644 160.904 229.644 159.694V159.161C229.644 158.201 229.822 157.3 230.177 156.459C230.545 155.617 231.045 154.88 231.676 154.249C232.308 153.618 233.044 153.124 233.886 152.769C234.741 152.401 235.648 152.217 236.609 152.217H238.424C239.384 152.217 240.285 152.401 241.127 152.769C241.968 153.124 242.705 153.618 243.336 154.249C243.968 154.88 244.461 155.617 244.816 156.459C245.184 157.3 245.368 158.201 245.368 159.161V159.891L242.823 160.306V159.161C242.823 158.53 242.705 157.945 242.468 157.406C242.231 156.853 241.909 156.373 241.501 155.965C241.094 155.558 240.614 155.235 240.061 154.999C239.522 154.762 238.937 154.643 238.305 154.643H236.727C236.096 154.643 235.504 154.762 234.951 154.999C234.412 155.235 233.932 155.558 233.511 155.965C233.103 156.373 232.781 156.853 232.544 157.406C232.308 157.945 232.189 158.53 232.189 159.161V159.694C232.189 160.602 232.38 161.365 232.761 161.983C233.143 162.601 233.649 163.134 234.281 163.581C234.912 164.015 235.622 164.396 236.411 164.725C237.214 165.041 238.036 165.37 238.877 165.712C239.719 166.04 240.535 166.409 241.324 166.816C242.126 167.211 242.843 167.704 243.474 168.296C244.106 168.875 244.612 169.585 244.994 170.427C245.375 171.269 245.566 172.295 245.566 173.505V174.353ZM262.361 155.038V180.903H259.816V155.038H253.068V152.611H269.108V155.038H262.361Z"/>
</mask>
<path d="M19.1571 173.958C19.1571 174.919 18.9729 175.82 18.6047 176.661C18.2495 177.503 17.7563 178.24 17.125 178.871C16.4936 179.502 15.7505 180.002 14.8956 180.37C14.0538 180.726 13.1528 180.903 12.1927 180.903H3.23559V152.611H12.1927C13.1528 152.611 14.0538 152.796 14.8956 153.164C15.7505 153.519 16.4936 154.012 17.125 154.643C17.7563 155.275 18.2495 156.018 18.6047 156.873C18.9729 157.715 19.1571 158.616 19.1571 159.576V159.852C19.1571 160.523 19.065 161.167 18.8809 161.785C18.7099 162.39 18.46 162.956 18.1312 163.482C17.8023 164.008 17.4143 164.488 16.9671 164.922C16.5199 165.343 16.0201 165.698 15.4677 165.988C16.0201 166.277 16.5199 166.639 16.9671 167.073C17.4143 167.494 17.8023 167.974 18.1312 168.513C18.46 169.039 18.7099 169.611 18.8809 170.23C19.065 170.835 19.1571 171.473 19.1571 172.143V173.958ZM16.612 171.729C16.612 171.098 16.4936 170.512 16.2569 169.973C16.0201 169.421 15.6913 168.941 15.2704 168.533C14.8627 168.125 14.3826 167.803 13.8302 167.566C13.2909 167.329 12.7056 167.211 12.0743 167.211H5.78066V178.476H12.0743C12.7056 178.476 13.2909 178.358 13.8302 178.121C14.3826 177.885 14.8627 177.562 15.2704 177.155C15.6913 176.747 16.0201 176.273 16.2569 175.734C16.4936 175.182 16.612 174.59 16.612 173.958V171.729ZM16.612 159.576C16.612 158.944 16.4936 158.359 16.2569 157.82C16.0201 157.267 15.6913 156.787 15.2704 156.38C14.8627 155.959 14.3826 155.63 13.8302 155.393C13.2909 155.156 12.7056 155.038 12.0743 155.038H5.78066V164.784H12.0743C12.7056 164.784 13.2909 164.666 13.8302 164.429C14.3826 164.192 14.8627 163.87 15.2704 163.462C15.6913 163.042 16.0201 162.561 16.2569 162.022C16.4936 161.47 16.612 160.878 16.612 160.247V159.576ZM43.982 174.353C43.982 175.313 43.7978 176.214 43.4295 177.056C43.0744 177.898 42.5812 178.634 41.9499 179.266C41.3185 179.897 40.582 180.397 39.7402 180.765C38.8984 181.12 37.9974 181.298 37.0373 181.298H35.0249C34.0647 181.298 33.1572 181.12 32.3023 180.765C31.4605 180.397 30.7239 179.897 30.0926 179.266C29.4613 178.634 28.9614 177.898 28.5932 177.056C28.238 176.214 28.0605 175.313 28.0605 174.353V152.611H30.6055V174.353C30.6055 174.984 30.7239 175.576 30.9607 176.129C31.1974 176.668 31.5197 177.148 31.9274 177.569C32.3483 177.977 32.8284 178.299 33.3676 178.536C33.9201 178.772 34.5119 178.891 35.1433 178.891H36.9189C37.5502 178.891 38.1355 178.772 38.6748 178.536C39.2272 178.299 39.7073 177.977 40.115 177.569C40.5228 177.148 40.845 176.668 41.0818 176.129C41.3185 175.576 41.4369 174.984 41.4369 174.353V152.611H43.982V174.353ZM54.5032 180.903V152.611H57.0482V180.903H54.5032ZM83.9052 173.958C83.9052 174.919 83.7211 175.82 83.3528 176.661C82.9977 177.503 82.5045 178.24 81.8731 178.871C81.2418 179.502 80.4987 180.002 79.6437 180.37C78.8019 180.726 77.901 180.903 76.9408 180.903H67.9837V152.611H76.9408C77.901 152.611 78.8019 152.796 79.6437 153.164C80.4987 153.519 81.2418 154.012 81.8731 154.643C82.5045 155.275 82.9977 156.018 83.3528 156.873C83.7211 157.715 83.9052 158.616 83.9052 159.576V173.958ZM81.3602 159.576C81.3602 158.944 81.2418 158.359 81.005 157.82C80.7683 157.267 80.4395 156.787 80.0186 156.38C79.6108 155.959 79.1308 155.63 78.5783 155.393C78.0391 155.156 77.4538 155.038 76.8224 155.038H70.5288V178.476H76.8224C77.4538 178.476 78.0391 178.358 78.5783 178.121C79.1308 177.885 79.6108 177.562 80.0186 177.155C80.4395 176.747 80.7683 176.273 81.005 175.734C81.2418 175.182 81.3602 174.59 81.3602 173.958V159.576ZM93.9924 180.903V152.611H96.5375V178.476H107.369V180.903H93.9924ZM115.858 180.903V152.611H131.779V155.038H118.403V165.554H129.234V167.98H118.403V178.476H131.779V180.903H115.858ZM154.395 180.903L146.72 168.829H143.228V180.903H140.683V152.611H149.66C150.62 152.611 151.521 152.796 152.362 153.164C153.204 153.519 153.941 154.012 154.572 154.643C155.203 155.275 155.697 156.018 156.052 156.873C156.42 157.715 156.604 158.616 156.604 159.576V161.864C156.604 162.825 156.42 163.732 156.052 164.587C155.697 165.429 155.203 166.165 154.572 166.797C153.941 167.428 153.204 167.928 152.362 168.296C151.521 168.651 150.62 168.829 149.66 168.829L157.334 180.903H154.395ZM154.059 159.576C154.059 158.944 153.941 158.359 153.704 157.82C153.467 157.267 153.145 156.787 152.737 156.38C152.33 155.959 151.85 155.63 151.297 155.393C150.758 155.156 150.173 155.038 149.541 155.038H143.228V166.402H149.541C150.173 166.402 150.758 166.284 151.297 166.047C151.85 165.81 152.33 165.488 152.737 165.08C153.145 164.659 153.467 164.179 153.704 163.64C153.941 163.088 154.059 162.496 154.059 161.864V159.576ZM182.954 155.038V165.554H193.785V167.98H182.954V180.903H180.409V152.611H196.33V155.038H182.954ZM204.819 180.903V152.611H220.741V155.038H207.364V165.554H218.196V167.98H207.364V178.476H220.741V180.903H204.819ZM245.566 174.353C245.566 175.313 245.368 176.214 244.974 177.056C244.592 177.898 244.073 178.634 243.415 179.266C242.771 179.897 242.014 180.397 241.146 180.765C240.291 181.12 239.384 181.298 238.424 181.298H236.392C235.431 181.298 234.517 181.12 233.649 180.765C232.794 180.397 232.038 179.897 231.38 179.266C230.736 178.634 230.216 177.898 229.822 177.056C229.44 176.214 229.25 175.313 229.25 174.353V173.228L231.795 172.814V174.353C231.795 174.984 231.92 175.576 232.17 176.129C232.433 176.668 232.781 177.148 233.215 177.569C233.649 177.977 234.149 178.299 234.715 178.536C235.293 178.772 235.898 178.891 236.53 178.891H238.305C238.937 178.891 239.535 178.772 240.101 178.536C240.666 178.299 241.166 177.977 241.6 177.569C242.034 177.148 242.376 176.668 242.626 176.129C242.889 175.576 243.021 174.984 243.021 174.353V173.505C243.021 172.531 242.83 171.722 242.448 171.078C242.067 170.433 241.561 169.888 240.929 169.44C240.298 168.98 239.581 168.592 238.779 168.276C237.99 167.961 237.174 167.645 236.332 167.329C235.491 167.014 234.669 166.665 233.866 166.284C233.077 165.902 232.367 165.429 231.736 164.863C231.104 164.284 230.598 163.581 230.216 162.752C229.835 161.924 229.644 160.904 229.644 159.694V159.161C229.644 158.201 229.822 157.3 230.177 156.459C230.545 155.617 231.045 154.88 231.676 154.249C232.308 153.618 233.044 153.124 233.886 152.769C234.741 152.401 235.648 152.217 236.609 152.217H238.424C239.384 152.217 240.285 152.401 241.127 152.769C241.968 153.124 242.705 153.618 243.336 154.249C243.968 154.88 244.461 155.617 244.816 156.459C245.184 157.3 245.368 158.201 245.368 159.161V159.891L242.823 160.306V159.161C242.823 158.53 242.705 157.945 242.468 157.406C242.231 156.853 241.909 156.373 241.501 155.965C241.094 155.558 240.614 155.235 240.061 154.999C239.522 154.762 238.937 154.643 238.305 154.643H236.727C236.096 154.643 235.504 154.762 234.951 154.999C234.412 155.235 233.932 155.558 233.511 155.965C233.103 156.373 232.781 156.853 232.544 157.406C232.308 157.945 232.189 158.53 232.189 159.161V159.694C232.189 160.602 232.38 161.365 232.761 161.983C233.143 162.601 233.649 163.134 234.281 163.581C234.912 164.015 235.622 164.396 236.411 164.725C237.214 165.041 238.036 165.37 238.877 165.712C239.719 166.04 240.535 166.409 241.324 166.816C242.126 167.211 242.843 167.704 243.474 168.296C244.106 168.875 244.612 169.585 244.994 170.427C245.375 171.269 245.566 172.295 245.566 173.505V174.353ZM262.361 155.038V180.903H259.816V155.038H253.068V152.611H269.108V155.038H262.361Z" fill="white"/>
<path d="M18.6047 176.661L18.1552 176.465L18.1527 176.471L18.6047 176.661ZM14.8956 180.37L15.0862 180.822L15.0896 180.821L14.8956 180.37ZM3.23559 180.903H2.74507V181.394H3.23559V180.903ZM3.23559 152.611V152.121H2.74507V152.611H3.23559ZM14.8956 153.164L14.6989 153.613L14.7074 153.617L14.8956 153.164ZM18.6047 156.873L18.1516 157.061L18.1553 157.069L18.6047 156.873ZM18.8809 161.785L18.4107 161.645L18.4088 161.652L18.8809 161.785ZM16.9671 164.922L17.3034 165.28L17.3088 165.274L16.9671 164.922ZM15.4677 165.988L15.2401 165.553L14.4106 165.988L15.2401 166.422L15.4677 165.988ZM16.9671 167.073L16.6255 167.425L16.6309 167.43L16.9671 167.073ZM18.1312 168.513L17.7123 168.769L17.7152 168.773L18.1312 168.513ZM18.8809 170.23L18.4079 170.36L18.4116 170.372L18.8809 170.23ZM16.2569 169.973L15.806 170.166L15.8077 170.17L16.2569 169.973ZM15.2704 168.533L14.9235 168.88L14.9291 168.885L15.2704 168.533ZM13.8302 167.566L13.633 168.015L13.637 168.017L13.8302 167.566ZM5.78066 167.211V166.72H5.29014V167.211H5.78066ZM5.78066 178.476H5.29014V178.967H5.78066V178.476ZM13.8302 178.121L13.6369 177.67L13.633 177.672L13.8302 178.121ZM15.2704 177.155L14.9291 176.802L14.9236 176.808L15.2704 177.155ZM16.2569 175.734L16.706 175.931L16.7077 175.927L16.2569 175.734ZM16.2569 157.82L15.806 158.013L15.8077 158.017L16.2569 157.82ZM15.2704 156.38L14.9181 156.721L14.9235 156.727L14.9291 156.732L15.2704 156.38ZM13.8302 155.393L13.633 155.842L13.637 155.844L13.8302 155.393ZM5.78066 155.038V154.548H5.29014V155.038H5.78066ZM5.78066 164.784H5.29014V165.275H5.78066V164.784ZM13.8302 164.429L13.6369 163.978L13.633 163.98L13.8302 164.429ZM16.2569 162.022L16.706 162.219L16.7077 162.215L16.2569 162.022ZM19.1571 173.958H18.6665C18.6665 174.854 18.4952 175.688 18.1553 176.465L18.6047 176.661L19.0541 176.858C19.4507 175.951 19.6476 174.983 19.6476 173.958H19.1571ZM18.6047 176.661L18.1527 176.471C17.8216 177.255 17.3636 177.939 16.7781 178.524L17.125 178.871L17.4718 179.218C18.149 178.541 18.6775 177.751 19.0566 176.852L18.6047 176.661ZM17.125 178.871L16.7781 178.524C16.1925 179.11 15.5019 179.575 14.7015 179.92L14.8956 180.37L15.0896 180.821C15.9991 180.429 16.7947 179.895 17.4718 179.218L17.125 178.871ZM14.8956 180.37L14.7049 179.918C13.9265 180.247 13.0907 180.413 12.1927 180.413V180.903V181.394C13.2149 181.394 14.1811 181.204 15.0862 180.822L14.8956 180.37ZM12.1927 180.903V180.413H3.23559V180.903V181.394H12.1927V180.903ZM3.23559 180.903H3.72612V152.611H3.23559H2.74507V180.903H3.23559ZM3.23559 152.611V153.102H12.1927V152.611V152.121H3.23559V152.611ZM12.1927 152.611V153.102C13.0883 153.102 13.922 153.273 14.699 153.613L14.8956 153.164L15.0922 152.714C14.1856 152.318 13.2174 152.121 12.1927 152.121V152.611ZM14.8956 153.164L14.7074 153.617C15.5052 153.948 16.1939 154.406 16.7781 154.99L17.125 154.643L17.4718 154.297C16.7934 153.618 15.9958 153.09 15.0837 152.711L14.8956 153.164ZM17.125 154.643L16.7781 154.99C17.3623 155.575 17.8203 156.263 18.1517 157.061L18.6047 156.873L19.0577 156.685C18.6788 155.773 18.1503 154.975 17.4718 154.297L17.125 154.643ZM18.6047 156.873L18.1553 157.069C18.4952 157.846 18.6665 158.68 18.6665 159.576H19.1571H19.6476C19.6476 158.551 19.4507 157.583 19.0541 156.676L18.6047 156.873ZM19.1571 159.576H18.6665V159.852H19.1571H19.6476V159.576H19.1571ZM19.1571 159.852H18.6665C18.6665 160.477 18.5808 161.074 18.4108 161.645L18.8809 161.785L19.351 161.925C19.5492 161.26 19.6476 160.568 19.6476 159.852H19.1571ZM18.8809 161.785L18.4088 161.652C18.2503 162.213 18.0191 162.736 17.7152 163.222L18.1312 163.482L18.5471 163.742C18.9009 163.176 19.1695 162.568 19.3529 161.919L18.8809 161.785ZM18.1312 163.482L17.7152 163.222C17.4074 163.715 17.0444 164.164 16.6255 164.57L16.9671 164.922L17.3088 165.274C17.7842 164.813 18.1972 164.302 18.5471 163.742L18.1312 163.482ZM16.9671 164.922L16.6309 164.565C16.2168 164.955 15.7536 165.284 15.2401 165.553L15.4677 165.988L15.6953 166.422C16.2867 166.113 16.8231 165.732 17.3033 165.28L16.9671 164.922ZM15.4677 165.988L15.2401 166.422C15.7508 166.69 16.2122 167.024 16.6255 167.425L16.9671 167.073L17.3088 166.721C16.8277 166.254 16.2895 165.864 15.6953 165.553L15.4677 165.988ZM16.9671 167.073L16.6309 167.43C17.0453 167.82 17.4057 168.266 17.7123 168.768L18.1312 168.513L18.55 168.258C18.1989 167.682 17.7834 167.168 17.3033 166.716L16.9671 167.073ZM18.1312 168.513L17.7152 168.773C18.0181 169.258 18.2493 169.786 18.4081 170.36L18.8809 170.23L19.3536 170.099C19.1705 169.437 18.9018 168.821 18.5471 168.253L18.1312 168.513ZM18.8809 170.23L18.4116 170.372C18.5808 170.928 18.6665 171.518 18.6665 172.143H19.1571H19.6476C19.6476 171.427 19.5492 170.741 19.3501 170.087L18.8809 170.23ZM19.1571 172.143H18.6665V173.958H19.1571H19.6476V172.143H19.1571ZM16.612 171.729H17.1025C17.1025 171.035 16.972 170.382 16.706 169.776L16.2569 169.973L15.8077 170.17C16.0153 170.643 16.1215 171.161 16.1215 171.729H16.612ZM16.2569 169.973L16.7077 169.78C16.4461 169.169 16.0805 168.635 15.6117 168.181L15.2704 168.533L14.9291 168.885C15.3021 169.246 15.5942 169.672 15.806 170.166L16.2569 169.973ZM15.2704 168.533L15.6173 168.186C15.1636 167.732 14.6307 167.376 14.0234 167.115L13.8302 167.566L13.637 168.017C14.1345 168.23 14.5618 168.518 14.9236 168.88L15.2704 168.533ZM13.8302 167.566L14.0274 167.117C13.4216 166.851 12.7685 166.72 12.0743 166.72V167.211V167.702C12.6427 167.702 13.1603 167.808 13.633 168.015L13.8302 167.566ZM12.0743 167.211V166.72H5.78066V167.211V167.702H12.0743V167.211ZM5.78066 167.211H5.29014V178.476H5.78066H6.27119V167.211H5.78066ZM5.78066 178.476V178.967H12.0743V178.476V177.986H5.78066V178.476ZM12.0743 178.476V178.967C12.7685 178.967 13.4216 178.836 14.0274 178.57L13.8302 178.121L13.633 177.672C13.1603 177.88 12.6427 177.986 12.0743 177.986V178.476ZM13.8302 178.121L14.0234 178.572C14.6307 178.312 15.1636 177.955 15.6173 177.501L15.2704 177.155L14.9236 176.808C14.5618 177.169 14.1345 177.457 13.637 177.67L13.8302 178.121ZM15.2704 177.155L15.6117 177.507C16.0785 177.055 16.4439 176.528 16.706 175.931L16.2569 175.734L15.8077 175.537C15.5964 176.018 15.3041 176.439 14.9291 176.802L15.2704 177.155ZM16.2569 175.734L16.7077 175.927C16.972 175.311 17.1025 174.653 17.1025 173.958H16.612H16.1215C16.1215 174.527 16.0153 175.052 15.806 175.541L16.2569 175.734ZM16.612 173.958H17.1025V171.729H16.612H16.1215V173.958H16.612ZM16.612 159.576H17.1025C17.1025 158.882 16.972 158.229 16.706 157.623L16.2569 157.82L15.8077 158.017C16.0153 158.49 16.1215 159.007 16.1215 159.576H16.612ZM16.2569 157.82L16.7077 157.627C16.4461 157.016 16.0805 156.481 15.6117 156.027L15.2704 156.38L14.9291 156.732C15.3021 157.093 15.5942 157.519 15.806 158.013L16.2569 157.82ZM15.2704 156.38L15.6227 156.038C15.1686 155.57 14.634 155.204 14.0234 154.942L13.8302 155.393L13.637 155.844C14.1312 156.056 14.5568 156.348 14.9181 156.721L15.2704 156.38ZM13.8302 155.393L14.0274 154.944C13.4216 154.678 12.7685 154.548 12.0743 154.548V155.038V155.529C12.6427 155.529 13.1603 155.635 13.633 155.842L13.8302 155.393ZM12.0743 155.038V154.548H5.78066V155.038V155.529H12.0743V155.038ZM5.78066 155.038H5.29014V164.784H5.78066H6.27119V155.038H5.78066ZM5.78066 164.784V165.275H12.0743V164.784V164.294H5.78066V164.784ZM12.0743 164.784V165.275C12.7685 165.275 13.4216 165.144 14.0274 164.878L13.8302 164.429L13.633 163.98C13.1603 164.188 12.6427 164.294 12.0743 164.294V164.784ZM13.8302 164.429L14.0234 164.88C14.6307 164.62 15.1636 164.263 15.6173 163.809L15.2704 163.462L14.9236 163.116C14.5618 163.477 14.1345 163.765 13.637 163.978L13.8302 164.429ZM15.2704 163.462L15.6173 163.809C16.0808 163.346 16.4445 162.815 16.706 162.219L16.2569 162.022L15.8077 161.825C15.5957 162.308 15.3018 162.737 14.9236 163.116L15.2704 163.462ZM16.2569 162.022L16.7077 162.215C16.972 161.599 17.1025 160.941 17.1025 160.247H16.612H16.1215C16.1215 160.815 16.0153 161.341 15.806 161.829L16.2569 162.022ZM16.612 160.247H17.1025V159.576H16.612H16.1215V160.247H16.612ZM43.4295 177.056L42.9801 176.859L42.9776 176.865L43.4295 177.056ZM39.7402 180.765L39.9309 181.217L39.9368 181.214L39.7402 180.765ZM32.3023 180.765L32.1056 181.214L32.1141 181.218L32.3023 180.765ZM28.5932 177.056L28.1412 177.247L28.1438 177.252L28.5932 177.056ZM28.0605 152.611V152.121H27.57V152.611H28.0605ZM30.6055 152.611H31.0961V152.121H30.6055V152.611ZM30.9607 176.129L30.5098 176.322L30.5115 176.326L30.9607 176.129ZM31.9274 177.569L31.5751 177.91L31.5805 177.916L31.5861 177.921L31.9274 177.569ZM33.3676 178.536L33.1704 178.985L33.1744 178.986L33.3676 178.536ZM38.6748 178.536L38.4816 178.085L38.4776 178.086L38.6748 178.536ZM40.115 177.569L40.4619 177.916L40.4674 177.91L40.115 177.569ZM41.0818 176.129L41.5309 176.326L41.5326 176.322L41.0818 176.129ZM41.4369 152.611V152.121H40.9464V152.611H41.4369ZM43.982 152.611H44.4725V152.121H43.982V152.611ZM43.982 174.353H43.4914C43.4914 175.249 43.3201 176.082 42.9801 176.859L43.4295 177.056L43.8789 177.252C44.2756 176.346 44.4725 175.378 44.4725 174.353H43.982ZM43.4295 177.056L42.9776 176.865C42.6465 177.65 42.1885 178.333 41.603 178.919L41.9499 179.266L42.2967 179.612C42.9739 178.935 43.5023 178.145 43.8815 177.247L43.4295 177.056ZM41.9499 179.266L41.603 178.919C41.0162 179.506 40.331 179.971 39.5436 180.316L39.7402 180.765L39.9368 181.214C40.8329 180.822 41.6209 180.288 42.2967 179.612L41.9499 179.266ZM39.7402 180.765L39.5495 180.313C38.7711 180.641 37.9353 180.807 37.0373 180.807V181.298V181.788C38.0595 181.788 39.0257 181.599 39.9308 181.217L39.7402 180.765ZM37.0373 181.298V180.807H35.0249V181.298V181.788H37.0373V181.298ZM35.0249 181.298V180.807C34.1269 180.807 33.2835 180.641 32.4904 180.312L32.3023 180.765L32.1141 181.218C33.0309 181.599 34.0026 181.788 35.0249 181.788V181.298ZM32.3023 180.765L32.4989 180.316C31.7115 179.971 31.0263 179.506 30.4394 178.919L30.0926 179.266L29.7457 179.612C30.4216 180.288 31.2095 180.822 32.1057 181.214L32.3023 180.765ZM30.0926 179.266L30.4394 178.919C29.8526 178.332 29.3871 177.647 29.0426 176.859L28.5932 177.056L28.1438 177.252C28.5358 178.149 29.0699 178.937 29.7457 179.612L30.0926 179.266ZM28.5932 177.056L29.0451 176.865C28.7167 176.087 28.551 175.251 28.551 174.353H28.0605H27.57C27.57 175.375 27.7593 176.341 28.1412 177.247L28.5932 177.056ZM28.0605 174.353H28.551V152.611H28.0605H27.57V174.353H28.0605ZM28.0605 152.611V153.102H30.6055V152.611V152.121H28.0605V152.611ZM30.6055 152.611H30.115V174.353H30.6055H31.0961V152.611H30.6055ZM30.6055 174.353H30.115C30.115 175.047 30.2456 175.705 30.5098 176.322L30.9607 176.129L31.4115 175.935C31.2023 175.447 31.0961 174.921 31.0961 174.353H30.6055ZM30.9607 176.129L30.5115 176.326C30.7716 176.918 31.1266 177.447 31.5751 177.91L31.9274 177.569L32.2797 177.228C31.9128 176.849 31.6232 176.418 31.4098 175.931L30.9607 176.129ZM31.9274 177.569L31.5861 177.921C32.0491 178.37 32.578 178.725 33.1705 178.985L33.3676 178.536L33.5648 178.086C33.0787 177.873 32.6475 177.583 32.2687 177.217L31.9274 177.569ZM33.3676 178.536L33.1744 178.986C33.791 179.251 34.4489 179.381 35.1433 179.381V178.891V178.4C34.575 178.4 34.0492 178.294 33.5609 178.085L33.3676 178.536ZM35.1433 178.891V179.381H36.9189V178.891V178.4H35.1433V178.891ZM36.9189 178.891V179.381C37.6132 179.381 38.2662 179.251 38.872 178.985L38.6748 178.536L38.4776 178.086C38.0049 178.294 37.4873 178.4 36.9189 178.4V178.891ZM38.6748 178.536L38.868 178.986C39.4753 178.726 40.0082 178.369 40.4619 177.916L40.115 177.569L39.7682 177.222C39.4064 177.584 38.9791 177.871 38.4816 178.085L38.6748 178.536ZM40.115 177.569L40.4674 177.91C40.9159 177.447 41.2708 176.918 41.5309 176.326L41.0818 176.129L40.6326 175.931C40.4192 176.418 40.1297 176.849 39.7627 177.228L40.115 177.569ZM41.0818 176.129L41.5326 176.322C41.7969 175.705 41.9274 175.047 41.9274 174.353H41.4369H40.9464C40.9464 174.921 40.8402 175.447 40.6309 175.935L41.0818 176.129ZM41.4369 174.353H41.9274V152.611H41.4369H40.9464V174.353H41.4369ZM41.4369 152.611V153.102H43.982V152.611V152.121H41.4369V152.611ZM43.982 152.611H43.4914V174.353H43.982H44.4725V152.611H43.982ZM54.5032 180.903H54.0126V181.394H54.5032V180.903ZM54.5032 152.611V152.121H54.0126V152.611H54.5032ZM57.0482 152.611H57.5388V152.121H57.0482V152.611ZM57.0482 180.903V181.394H57.5388V180.903H57.0482ZM54.5032 180.903H54.9937V152.611H54.5032H54.0126V180.903H54.5032ZM54.5032 152.611V153.102H57.0482V152.611V152.121H54.5032V152.611ZM57.0482 152.611H56.5577V180.903H57.0482H57.5388V152.611H57.0482ZM57.0482 180.903V180.413H54.5032V180.903V181.394H57.0482V180.903ZM83.3528 176.661L82.9034 176.465L82.9009 176.471L83.3528 176.661ZM79.6437 180.37L79.8344 180.822L79.8378 180.821L79.6437 180.37ZM67.9837 180.903H67.4932V181.394H67.9837V180.903ZM67.9837 152.611V152.121H67.4932V152.611H67.9837ZM79.6437 153.164L79.4471 153.613L79.4556 153.617L79.6437 153.164ZM83.3528 156.873L82.8997 157.061L82.9034 157.069L83.3528 156.873ZM81.005 157.82L80.5542 158.013L80.5559 158.017L81.005 157.82ZM80.0186 156.38L79.6663 156.721L79.6717 156.727L79.6773 156.732L80.0186 156.38ZM78.5783 155.393L78.3811 155.842L78.3851 155.844L78.5783 155.393ZM70.5288 155.038V154.548H70.0383V155.038H70.5288ZM70.5288 178.476H70.0383V178.967H70.5288V178.476ZM78.5783 178.121L78.3851 177.67L78.3811 177.672L78.5783 178.121ZM80.0186 177.155L79.6772 176.802L79.6717 176.808L80.0186 177.155ZM81.005 175.734L81.4542 175.931L81.4559 175.927L81.005 175.734ZM83.9052 173.958H83.4147C83.4147 174.854 83.2433 175.688 82.9034 176.465L83.3528 176.661L83.8022 176.858C84.1988 175.951 84.3958 174.983 84.3958 173.958H83.9052ZM83.3528 176.661L82.9009 176.471C82.5698 177.255 82.1118 177.939 81.5263 178.524L81.8731 178.871L82.22 179.218C82.8972 178.541 83.4256 177.751 83.8048 176.852L83.3528 176.661ZM81.8731 178.871L81.5263 178.524C80.9407 179.11 80.25 179.575 79.4497 179.92L79.6437 180.37L79.8378 180.821C80.7473 180.429 81.5429 179.895 82.22 179.218L81.8731 178.871ZM79.6437 180.37L79.453 179.918C78.6747 180.247 77.8389 180.413 76.9408 180.413V180.903V181.394C77.9631 181.394 78.9292 181.204 79.8344 180.822L79.6437 180.37ZM76.9408 180.903V180.413H67.9837V180.903V181.394H76.9408V180.903ZM67.9837 180.903H68.4743V152.611H67.9837H67.4932V180.903H67.9837ZM67.9837 152.611V153.102H76.9408V152.611V152.121H67.9837V152.611ZM76.9408 152.611V153.102C77.8364 153.102 78.6701 153.273 79.4471 153.613L79.6437 153.164L79.8403 152.714C78.9338 152.318 77.9655 152.121 76.9408 152.121V152.611ZM79.6437 153.164L79.4556 153.617C80.2534 153.948 80.942 154.406 81.5263 154.99L81.8731 154.643L82.22 154.297C81.5415 153.618 80.7439 153.09 79.8319 152.711L79.6437 153.164ZM81.8731 154.643L81.5263 154.99C82.1105 155.575 82.5684 156.263 82.8998 157.061L83.3528 156.873L83.8058 156.685C83.427 155.773 82.8984 154.975 82.22 154.297L81.8731 154.643ZM83.3528 156.873L82.9034 157.069C83.2433 157.846 83.4147 158.68 83.4147 159.576H83.9052H84.3958C84.3958 158.551 84.1988 157.583 83.8022 156.676L83.3528 156.873ZM83.9052 159.576H83.4147V173.958H83.9052H84.3958V159.576H83.9052ZM81.3602 159.576H81.8507C81.8507 158.882 81.7201 158.229 81.4542 157.623L81.005 157.82L80.5559 158.017C80.7634 158.49 80.8696 159.007 80.8696 159.576H81.3602ZM81.005 157.82L81.4559 157.627C81.1942 157.016 80.8287 156.481 80.3599 156.027L80.0186 156.38L79.6773 156.732C80.0502 157.093 80.3424 157.519 80.5542 158.013L81.005 157.82ZM80.0186 156.38L80.3709 156.038C79.9167 155.57 79.3822 155.204 78.7716 154.942L78.5783 155.393L78.3851 155.844C78.8793 156.056 79.3049 156.348 79.6663 156.721L80.0186 156.38ZM78.5783 155.393L78.7755 154.944C78.1697 154.678 77.5167 154.548 76.8224 154.548V155.038V155.529C77.3908 155.529 77.9084 155.635 78.3811 155.842L78.5783 155.393ZM76.8224 155.038V154.548H70.5288V155.038V155.529H76.8224V155.038ZM70.5288 155.038H70.0383V178.476H70.5288H71.0193V155.038H70.5288ZM70.5288 178.476V178.967H76.8224V178.476V177.986H70.5288V178.476ZM76.8224 178.476V178.967C77.5167 178.967 78.1697 178.836 78.7755 178.57L78.5783 178.121L78.3811 177.672C77.9084 177.88 77.3908 177.986 76.8224 177.986V178.476ZM78.5783 178.121L78.7716 178.572C79.3789 178.312 79.9117 177.955 80.3654 177.501L80.0186 177.155L79.6717 176.808C79.31 177.169 78.8826 177.457 78.3851 177.67L78.5783 178.121ZM80.0186 177.155L80.3599 177.507C80.8267 177.055 81.192 176.528 81.4542 175.931L81.005 175.734L80.5559 175.537C80.3446 176.018 80.0523 176.439 79.6773 176.802L80.0186 177.155ZM81.005 175.734L81.4559 175.927C81.7201 175.311 81.8507 174.653 81.8507 173.958H81.3602H80.8696C80.8696 174.527 80.7634 175.052 80.5542 175.541L81.005 175.734ZM81.3602 173.958H81.8507V159.576H81.3602H80.8696V173.958H81.3602ZM93.9924 180.903H93.5019V181.394H93.9924V180.903ZM93.9924 152.611V152.121H93.5019V152.611H93.9924ZM96.5375 152.611H97.028V152.121H96.5375V152.611ZM96.5375 178.476H96.0469V178.967H96.5375V178.476ZM107.369 178.476H107.859V177.986H107.369V178.476ZM107.369 180.903V181.394H107.859V180.903H107.369ZM93.9924 180.903H94.4829V152.611H93.9924H93.5019V180.903H93.9924ZM93.9924 152.611V153.102H96.5375V152.611V152.121H93.9924V152.611ZM96.5375 152.611H96.0469V178.476H96.5375H97.028V152.611H96.5375ZM96.5375 178.476V178.967H107.369V178.476V177.986H96.5375V178.476ZM107.369 178.476H106.878V180.903H107.369H107.859V178.476H107.369ZM107.369 180.903V180.413H93.9924V180.903V181.394H107.369V180.903ZM115.858 180.903H115.367V181.394H115.858V180.903ZM115.858 152.611V152.121H115.367V152.611H115.858ZM131.779 152.611H132.27V152.121H131.779V152.611ZM131.779 155.038V155.529H132.27V155.038H131.779ZM118.403 155.038V154.548H117.912V155.038H118.403ZM118.403 165.554H117.912V166.044H118.403V165.554ZM129.234 165.554H129.725V165.063H129.234V165.554ZM129.234 167.98V168.471H129.725V167.98H129.234ZM118.403 167.98V167.49H117.912V167.98H118.403ZM118.403 178.476H117.912V178.967H118.403V178.476ZM131.779 178.476H132.27V177.986H131.779V178.476ZM131.779 180.903V181.394H132.27V180.903H131.779ZM115.858 180.903H116.348V152.611H115.858H115.367V180.903H115.858ZM115.858 152.611V153.102H131.779V152.611V152.121H115.858V152.611ZM131.779 152.611H131.289V155.038H131.779H132.27V152.611H131.779ZM131.779 155.038V154.548H118.403V155.038V155.529H131.779V155.038ZM118.403 155.038H117.912V165.554H118.403H118.893V155.038H118.403ZM118.403 165.554V166.044H129.234V165.554V165.063H118.403V165.554ZM129.234 165.554H128.744V167.98H129.234H129.725V165.554H129.234ZM129.234 167.98V167.49H118.403V167.98V168.471H129.234V167.98ZM118.403 167.98H117.912V178.476H118.403H118.893V167.98H118.403ZM118.403 178.476V178.967H131.779V178.476V177.986H118.403V178.476ZM131.779 178.476H131.289V180.903H131.779H132.27V178.476H131.779ZM131.779 180.903V180.413H115.858V180.903V181.394H131.779V180.903ZM154.395 180.903L153.981 181.166L154.125 181.394H154.395V180.903ZM146.72 168.829L147.134 168.566L146.989 168.338H146.72V168.829ZM143.228 168.829V168.338H142.737V168.829H143.228ZM143.228 180.903V181.394H143.718V180.903H143.228ZM140.683 180.903H140.192V181.394H140.683V180.903ZM140.683 152.611V152.121H140.192V152.611H140.683ZM152.362 153.164L152.166 153.613L152.172 153.616L152.362 153.164ZM156.052 156.873L155.599 157.061L155.602 157.069L156.052 156.873ZM156.052 164.587L155.601 164.393L155.6 164.396L156.052 164.587ZM152.362 168.296L152.553 168.748L152.559 168.746L152.362 168.296ZM149.66 168.829V168.338H148.767L149.246 169.092L149.66 168.829ZM157.334 180.903V181.394H158.227L157.748 180.64L157.334 180.903ZM153.704 157.82L153.253 158.013L153.255 158.017L153.704 157.82ZM152.737 156.38L152.385 156.721L152.39 156.727L152.737 156.38ZM151.297 155.393L151.1 155.842L151.104 155.844L151.297 155.393ZM143.228 155.038V154.548H142.737V155.038H143.228ZM143.228 166.402H142.737V166.893H143.228V166.402ZM151.297 166.047L151.104 165.596L151.1 165.598L151.297 166.047ZM152.737 165.08L153.084 165.427L153.09 165.422L152.737 165.08ZM153.704 163.64L154.153 163.837L154.155 163.833L153.704 163.64ZM154.395 180.903L154.809 180.64L147.134 168.566L146.72 168.829L146.306 169.092L153.981 181.166L154.395 180.903ZM146.72 168.829V168.338H143.228V168.829V169.319H146.72V168.829ZM143.228 168.829H142.737V180.903H143.228H143.718V168.829H143.228ZM143.228 180.903V180.413H140.683V180.903V181.394H143.228V180.903ZM140.683 180.903H141.173V152.611H140.683H140.192V180.903H140.683ZM140.683 152.611V153.102H149.66V152.611V152.121H140.683V152.611ZM149.66 152.611V153.102C150.555 153.102 151.389 153.273 152.166 153.613L152.362 153.164L152.559 152.714C151.653 152.318 150.684 152.121 149.66 152.121V152.611ZM152.362 153.164L152.172 153.616C152.957 153.947 153.64 154.405 154.225 154.99L154.572 154.643L154.919 154.297C154.242 153.619 153.452 153.091 152.553 152.712L152.362 153.164ZM154.572 154.643L154.225 154.99C154.81 155.575 155.267 156.263 155.599 157.061L156.052 156.873L156.505 156.685C156.126 155.773 155.597 154.975 154.919 154.297L154.572 154.643ZM156.052 156.873L155.602 157.069C155.942 157.846 156.114 158.68 156.114 159.576H156.604H157.095C157.095 158.551 156.898 157.583 156.501 156.676L156.052 156.873ZM156.604 159.576H156.114V161.864H156.604H157.095V159.576H156.604ZM156.604 161.864H156.114C156.114 162.76 155.942 163.601 155.601 164.393L156.052 164.587L156.502 164.781C156.898 163.863 157.095 162.889 157.095 161.864H156.604ZM156.052 164.587L155.6 164.396C155.269 165.181 154.811 165.864 154.225 166.45L154.572 166.797L154.919 167.144C155.596 166.466 156.125 165.676 156.504 164.778L156.052 164.587ZM154.572 166.797L154.225 166.45C153.638 167.037 152.953 167.502 152.166 167.847L152.362 168.296L152.559 168.746C153.455 168.353 154.243 167.819 154.919 167.144L154.572 166.797ZM152.362 168.296L152.172 167.844C151.393 168.173 150.558 168.338 149.66 168.338V168.829V169.319C150.682 169.319 151.648 169.13 152.553 168.748L152.362 168.296ZM149.66 168.829L149.246 169.092L156.92 181.166L157.334 180.903L157.748 180.64L150.074 168.566L149.66 168.829ZM157.334 180.903V180.413H154.395V180.903V181.394H157.334V180.903ZM154.059 159.576H154.55C154.55 158.882 154.419 158.229 154.153 157.623L153.704 157.82L153.255 158.017C153.462 158.49 153.569 159.007 153.569 159.576H154.059ZM153.704 157.82L154.155 157.627C153.895 157.019 153.538 156.487 153.084 156.033L152.737 156.38L152.39 156.727C152.752 157.088 153.04 157.516 153.253 158.013L153.704 157.82ZM152.737 156.38L153.09 156.038C152.635 155.57 152.101 155.204 151.49 154.942L151.297 155.393L151.104 155.844C151.598 156.056 152.024 156.348 152.385 156.721L152.737 156.38ZM151.297 155.393L151.494 154.944C150.888 154.678 150.235 154.548 149.541 154.548V155.038V155.529C150.11 155.529 150.627 155.635 151.1 155.842L151.297 155.393ZM149.541 155.038V154.548H143.228V155.038V155.529H149.541V155.038ZM143.228 155.038H142.737V166.402H143.228H143.718V155.038H143.228ZM143.228 166.402V166.893H149.541V166.402V165.912H143.228V166.402ZM149.541 166.402V166.893C150.235 166.893 150.888 166.762 151.494 166.496L151.297 166.047L151.1 165.598C150.627 165.805 150.11 165.912 149.541 165.912V166.402ZM151.297 166.047L151.49 166.498C152.098 166.238 152.63 165.881 153.084 165.427L152.737 165.08L152.39 164.733C152.029 165.095 151.601 165.383 151.104 165.596L151.297 166.047ZM152.737 165.08L153.09 165.422C153.538 164.959 153.893 164.43 154.153 163.837L153.704 163.64L153.255 163.443C153.041 163.929 152.752 164.36 152.385 164.739L152.737 165.08ZM153.704 163.64L154.155 163.833C154.419 163.217 154.55 162.559 154.55 161.864H154.059H153.569C153.569 162.433 153.462 162.958 153.253 163.447L153.704 163.64ZM154.059 161.864H154.55V159.576H154.059H153.569V161.864H154.059ZM182.954 155.038V154.548H182.463V155.038H182.954ZM182.954 165.554H182.463V166.044H182.954V165.554ZM193.785 165.554H194.276V165.063H193.785V165.554ZM193.785 167.98V168.471H194.276V167.98H193.785ZM182.954 167.98V167.49H182.463V167.98H182.954ZM182.954 180.903V181.394H183.444V180.903H182.954ZM180.409 180.903H179.918V181.394H180.409V180.903ZM180.409 152.611V152.121H179.918V152.611H180.409ZM196.33 152.611H196.821V152.121H196.33V152.611ZM196.33 155.038V155.529H196.821V155.038H196.33ZM182.954 155.038H182.463V165.554H182.954H183.444V155.038H182.954ZM182.954 165.554V166.044H193.785V165.554V165.063H182.954V165.554ZM193.785 165.554H193.295V167.98H193.785H194.276V165.554H193.785ZM193.785 167.98V167.49H182.954V167.98V168.471H193.785V167.98ZM182.954 167.98H182.463V180.903H182.954H183.444V167.98H182.954ZM182.954 180.903V180.413H180.409V180.903V181.394H182.954V180.903ZM180.409 180.903H180.899V152.611H180.409H179.918V180.903H180.409ZM180.409 152.611V153.102H196.33V152.611V152.121H180.409V152.611ZM196.33 152.611H195.84V155.038H196.33H196.821V152.611H196.33ZM196.33 155.038V154.548H182.954V155.038V155.529H196.33V155.038ZM204.819 180.903H204.329V181.394H204.819V180.903ZM204.819 152.611V152.121H204.329V152.611H204.819ZM220.741 152.611H221.231V152.121H220.741V152.611ZM220.741 155.038V155.529H221.231V155.038H220.741ZM207.364 155.038V154.548H206.874V155.038H207.364ZM207.364 165.554H206.874V166.044H207.364V165.554ZM218.196 165.554H218.686V165.063H218.196V165.554ZM218.196 167.98V168.471H218.686V167.98H218.196ZM207.364 167.98V167.49H206.874V167.98H207.364ZM207.364 178.476H206.874V178.967H207.364V178.476ZM220.741 178.476H221.231V177.986H220.741V178.476ZM220.741 180.903V181.394H221.231V180.903H220.741ZM204.819 180.903H205.31V152.611H204.819H204.329V180.903H204.819ZM204.819 152.611V153.102H220.741V152.611V152.121H204.819V152.611ZM220.741 152.611H220.25V155.038H220.741H221.231V152.611H220.741ZM220.741 155.038V154.548H207.364V155.038V155.529H220.741V155.038ZM207.364 155.038H206.874V165.554H207.364H207.855V155.038H207.364ZM207.364 165.554V166.044H218.196V165.554V165.063H207.364V165.554ZM218.196 165.554H217.705V167.98H218.196H218.686V165.554H218.196ZM218.196 167.98V167.49H207.364V167.98V168.471H218.196V167.98ZM207.364 167.98H206.874V178.476H207.364H207.855V167.98H207.364ZM207.364 178.476V178.967H220.741V178.476V177.986H207.364V178.476ZM220.741 178.476H220.25V180.903H220.741H221.231V178.476H220.741ZM220.741 180.903V180.413H204.819V180.903V181.394H220.741V180.903ZM244.974 177.056L244.53 176.848L244.527 176.853L244.974 177.056ZM243.415 179.266L243.075 178.912L243.072 178.915L243.415 179.266ZM241.146 180.765L241.335 181.218L241.338 181.217L241.146 180.765ZM233.649 180.765L233.455 181.216L233.464 181.219L233.649 180.765ZM231.38 179.266L231.037 179.616L231.041 179.619L231.38 179.266ZM229.822 177.056L229.375 177.258L229.378 177.264L229.822 177.056ZM229.25 173.228L229.171 172.744L228.759 172.811V173.228H229.25ZM231.795 172.814H232.285V172.237L231.716 172.33L231.795 172.814ZM232.17 176.129L231.723 176.331L231.726 176.337L231.729 176.344L232.17 176.129ZM233.215 177.569L232.874 177.921L232.879 177.926L233.215 177.569ZM234.715 178.536L234.525 178.988L234.529 178.99L234.715 178.536ZM241.6 177.569L241.936 177.926L241.942 177.921L241.6 177.569ZM242.626 176.129L242.183 175.918L242.181 175.922L242.626 176.129ZM240.929 169.44L240.64 169.837L240.646 169.841L240.929 169.44ZM238.779 168.276L238.597 168.732L238.599 168.733L238.779 168.276ZM233.866 166.284L233.653 166.725L233.656 166.727L233.866 166.284ZM231.736 164.863L231.404 165.225L231.408 165.229L231.736 164.863ZM230.177 156.459L229.727 156.262L229.725 156.268L230.177 156.459ZM233.886 152.769L234.077 153.221L234.08 153.22L233.886 152.769ZM241.127 152.769L240.93 153.219L240.936 153.221L241.127 152.769ZM244.816 156.459L244.364 156.649L244.367 156.655L244.816 156.459ZM245.368 159.891L245.447 160.376L245.859 160.309V159.891H245.368ZM242.823 160.306H242.333V160.883L242.902 160.79L242.823 160.306ZM242.468 157.406L242.017 157.599L242.019 157.603L242.468 157.406ZM240.061 154.999L239.864 155.448L239.868 155.449L240.061 154.999ZM234.951 154.999L234.758 154.548L234.754 154.549L234.951 154.999ZM233.511 155.965L233.17 155.613L233.164 155.618L233.511 155.965ZM232.544 157.406L232.994 157.603L232.995 157.599L232.544 157.406ZM234.281 163.581L233.997 163.981L234.003 163.985L234.281 163.581ZM236.411 164.725L236.223 165.178L236.232 165.182L236.411 164.725ZM238.877 165.712L238.693 166.166L238.699 166.168L238.877 165.712ZM241.324 166.816L241.099 167.252L241.107 167.257L241.324 166.816ZM243.474 168.296L243.139 168.654L243.143 168.658L243.474 168.296ZM245.566 174.353H245.075C245.075 175.244 244.893 176.073 244.53 176.848L244.974 177.056L245.418 177.264C245.844 176.355 246.056 175.383 246.056 174.353H245.566ZM244.974 177.056L244.527 176.853C244.171 177.639 243.688 178.324 243.076 178.912L243.415 179.266L243.755 179.619C244.458 178.944 245.014 178.156 245.421 177.258L244.974 177.056ZM243.415 179.266L243.072 178.915C242.473 179.502 241.769 179.968 240.955 180.313L241.146 180.765L241.338 181.217C242.26 180.825 243.068 180.292 243.758 179.616L243.415 179.266ZM241.146 180.765L240.958 180.312C240.165 180.641 239.322 180.807 238.424 180.807V181.298V181.788C239.446 181.788 240.418 181.599 241.335 181.218L241.146 180.765ZM238.424 181.298V180.807H236.392V181.298V181.788H238.424V181.298ZM236.392 181.298V180.807C235.494 180.807 234.643 180.641 233.835 180.311L233.649 180.765L233.464 181.219C234.392 181.599 235.369 181.788 236.392 181.788V181.298ZM233.649 180.765L233.843 180.314C233.041 179.969 232.334 179.501 231.72 178.912L231.38 179.266L231.041 179.619C231.742 180.292 232.547 180.824 233.455 181.215L233.649 180.765ZM231.38 179.266L231.724 178.915C231.122 178.326 230.636 177.638 230.266 176.848L229.822 177.056L229.378 177.264C229.796 178.157 230.35 178.942 231.037 179.616L231.38 179.266ZM229.822 177.056L230.269 176.853C229.917 176.078 229.74 175.246 229.74 174.353H229.25H228.759C228.759 175.38 228.964 176.35 229.375 177.258L229.822 177.056ZM229.25 174.353H229.74V173.228H229.25H228.759V174.353H229.25ZM229.25 173.228L229.328 173.713L231.874 173.298L231.795 172.814L231.716 172.33L229.171 172.744L229.25 173.228ZM231.795 172.814H231.304V174.353H231.795H232.285V172.814H231.795ZM231.795 174.353H231.304C231.304 175.051 231.443 175.712 231.723 176.331L232.17 176.129L232.616 175.926C232.396 175.44 232.285 174.918 232.285 174.353H231.795ZM232.17 176.129L231.729 176.344C232.017 176.934 232.399 177.461 232.874 177.921L233.215 177.569L233.557 177.217C233.163 176.835 232.848 176.401 232.61 175.914L232.17 176.129ZM233.215 177.569L232.879 177.926C233.357 178.375 233.907 178.729 234.525 178.988L234.715 178.536L234.904 178.083C234.391 177.868 233.941 177.578 233.551 177.211L233.215 177.569ZM234.715 178.536L234.529 178.99C235.167 179.251 235.835 179.381 236.53 179.381V178.891V178.4C235.961 178.4 235.42 178.294 234.9 178.082L234.715 178.536ZM236.53 178.891V179.381H238.305V178.891V178.4H236.53V178.891ZM238.305 178.891V179.381C239 179.381 239.663 179.251 240.29 178.988L240.101 178.536L239.911 178.083C239.408 178.294 238.874 178.4 238.305 178.4V178.891ZM240.101 178.536L240.29 178.988C240.908 178.729 241.458 178.375 241.936 177.926L241.6 177.569L241.264 177.211C240.874 177.578 240.424 177.868 239.911 178.083L240.101 178.536ZM241.6 177.569L241.942 177.921C242.418 177.459 242.795 176.93 243.071 176.335L242.626 176.129L242.181 175.922C241.957 176.406 241.65 176.837 241.259 177.217L241.6 177.569ZM242.626 176.129L243.069 176.339C243.364 175.719 243.511 175.055 243.511 174.353H243.021H242.53C242.53 174.914 242.414 175.433 242.183 175.918L242.626 176.129ZM243.021 174.353H243.511V173.505H243.021H242.53V174.353H243.021ZM243.021 173.505H243.511C243.511 172.469 243.308 171.568 242.871 170.828L242.448 171.078L242.026 171.328C242.352 171.877 242.53 172.593 242.53 173.505H243.021ZM242.448 171.078L242.871 170.828C242.453 170.122 241.899 169.526 241.213 169.04L240.929 169.44L240.646 169.841C241.223 170.249 241.681 170.745 242.026 171.328L242.448 171.078ZM240.929 169.44L241.218 169.044C240.55 168.557 239.796 168.149 238.958 167.82L238.779 168.276L238.599 168.733C239.367 169.035 240.046 169.403 240.64 169.837L240.929 169.44ZM238.779 168.276L238.961 167.821C238.168 167.504 237.35 167.187 236.505 166.87L236.332 167.329L236.16 167.789C236.999 168.103 237.811 168.418 238.597 168.732L238.779 168.276ZM236.332 167.329L236.505 166.87C235.676 166.559 234.867 166.216 234.077 165.841L233.866 166.284L233.656 166.727C234.471 167.114 235.306 167.468 236.16 167.789L236.332 167.329ZM233.866 166.284L234.08 165.842C233.33 165.48 232.659 165.032 232.063 164.498L231.736 164.863L231.408 165.229C232.075 165.826 232.824 166.325 233.653 166.725L233.866 166.284ZM231.736 164.863L232.067 164.502C231.487 163.97 231.018 163.32 230.662 162.547L230.216 162.752L229.771 162.957C230.178 163.841 230.722 164.599 231.404 165.225L231.736 164.863ZM230.216 162.752L230.662 162.547C230.318 161.8 230.135 160.855 230.135 159.694H229.644H229.154C229.154 160.953 229.352 162.047 229.771 162.957L230.216 162.752ZM229.644 159.694H230.135V159.161H229.644H229.154V159.694H229.644ZM229.644 159.161H230.135C230.135 158.263 230.3 157.428 230.629 156.649L230.177 156.459L229.725 156.268C229.343 157.173 229.154 158.139 229.154 159.161H229.644ZM230.177 156.459L230.626 156.655C230.971 155.868 231.436 155.183 232.023 154.596L231.676 154.249L231.329 153.902C230.654 154.578 230.12 155.366 229.728 156.262L230.177 156.459ZM231.676 154.249L232.023 154.596C232.609 154.01 233.292 153.552 234.077 153.221L233.886 152.769L233.695 152.317C232.797 152.696 232.007 153.225 231.329 153.902L231.676 154.249ZM233.886 152.769L234.08 153.22C234.872 152.879 235.713 152.707 236.609 152.707V152.217V151.726C235.584 151.726 234.61 151.923 233.692 152.319L233.886 152.769ZM236.609 152.217V152.707H238.424V152.217V151.726H236.609V152.217ZM238.424 152.217V152.707C239.319 152.707 240.153 152.879 240.93 153.219L241.127 152.769L241.323 152.32C240.417 151.923 239.448 151.726 238.424 151.726V152.217ZM241.127 152.769L240.936 153.221C241.721 153.552 242.404 154.01 242.989 154.596L243.336 154.249L243.683 153.902C243.006 153.225 242.216 152.696 241.317 152.317L241.127 152.769ZM243.336 154.249L242.989 154.596C243.575 155.181 244.033 155.864 244.364 156.649L244.816 156.459L245.268 156.268C244.889 155.369 244.36 154.579 243.683 153.902L243.336 154.249ZM244.816 156.459L244.367 156.655C244.707 157.432 244.878 158.266 244.878 159.161H245.368H245.859C245.859 158.137 245.662 157.169 245.265 156.262L244.816 156.459ZM245.368 159.161H244.878V159.891H245.368H245.859V159.161H245.368ZM245.368 159.891L245.29 159.407L242.745 159.822L242.823 160.306L242.902 160.79L245.447 160.376L245.368 159.891ZM242.823 160.306H243.314V159.161H242.823H242.333V160.306H242.823ZM242.823 159.161H243.314C243.314 158.467 243.183 157.814 242.917 157.208L242.468 157.406L242.019 157.603C242.227 158.075 242.333 158.593 242.333 159.161H242.823ZM242.468 157.406L242.919 157.212C242.659 156.605 242.302 156.072 241.848 155.618L241.501 155.965L241.155 156.312C241.516 156.674 241.804 157.101 242.017 157.599L242.468 157.406ZM241.501 155.965L241.848 155.618C241.395 155.165 240.862 154.808 240.254 154.548L240.061 154.999L239.868 155.449C240.366 155.663 240.793 155.95 241.155 156.312L241.501 155.965ZM240.061 154.999L240.258 154.549C239.653 154.283 239 154.153 238.305 154.153V154.643V155.134C238.874 155.134 239.391 155.24 239.864 155.448L240.061 154.999ZM238.305 154.643V154.153H236.727V154.643V155.134H238.305V154.643ZM236.727 154.643V154.153C236.033 154.153 235.375 154.284 234.758 154.548L234.951 154.999L235.145 155.449C235.633 155.24 236.159 155.134 236.727 155.134V154.643ZM234.951 154.999L234.754 154.549C234.162 154.81 233.633 155.164 233.17 155.613L233.511 155.965L233.852 156.318C234.231 155.951 234.662 155.661 235.149 155.448L234.951 154.999ZM233.511 155.965L233.164 155.618C232.711 156.072 232.354 156.605 232.094 157.212L232.544 157.406L232.995 157.599C233.208 157.101 233.496 156.674 233.858 156.312L233.511 155.965ZM232.544 157.406L232.095 157.208C231.829 157.814 231.699 158.467 231.699 159.161H232.189H232.68C232.68 158.593 232.786 158.075 232.994 157.603L232.544 157.406ZM232.189 159.161H231.699V159.694H232.189H232.68V159.161H232.189ZM232.189 159.694H231.699C231.699 160.67 231.904 161.528 232.344 162.24L232.761 161.983L233.179 161.725C232.856 161.202 232.68 160.533 232.68 159.694H232.189ZM232.761 161.983L232.344 162.24C232.762 162.918 233.315 163.498 233.997 163.981L234.281 163.581L234.564 163.181C233.983 162.769 233.523 162.284 233.179 161.725L232.761 161.983ZM234.281 163.581L234.003 163.985C234.665 164.44 235.406 164.838 236.223 165.178L236.411 164.725L236.6 164.272C235.839 163.955 235.159 163.589 234.558 163.177L234.281 163.581ZM236.411 164.725L236.232 165.182C237.032 165.497 237.853 165.825 238.693 166.166L238.877 165.712L239.062 165.257C238.219 164.915 237.395 164.585 236.591 164.269L236.411 164.725ZM238.877 165.712L238.699 166.168C239.525 166.491 240.325 166.852 241.099 167.252L241.324 166.816L241.549 166.381C240.744 165.965 239.913 165.59 239.056 165.255L238.877 165.712ZM241.324 166.816L241.107 167.257C241.868 167.63 242.544 168.096 243.139 168.654L243.474 168.296L243.81 167.938C243.142 167.312 242.385 166.792 241.54 166.376L241.324 166.816ZM243.474 168.296L243.143 168.658C243.722 169.188 244.19 169.843 244.547 170.629L244.994 170.427L245.44 170.224C245.034 169.327 244.49 168.561 243.806 167.935L243.474 168.296ZM244.994 170.427L244.547 170.629C244.892 171.391 245.075 172.344 245.075 173.505H245.566H246.056C246.056 172.245 245.858 171.146 245.44 170.224L244.994 170.427ZM245.566 173.505H245.075V174.353H245.566H246.056V173.505H245.566ZM262.361 155.038V154.548H261.87V155.038H262.361ZM262.361 180.903V181.394H262.851V180.903H262.361ZM259.816 180.903H259.325V181.394H259.816V180.903ZM259.816 155.038H260.306V154.548H259.816V155.038ZM253.068 155.038H252.578V155.529H253.068V155.038ZM253.068 152.611V152.121H252.578V152.611H253.068ZM269.108 152.611H269.599V152.121H269.108V152.611ZM269.108 155.038V155.529H269.599V155.038H269.108ZM262.361 155.038H261.87V180.903H262.361H262.851V155.038H262.361ZM262.361 180.903V180.413H259.816V180.903V181.394H262.361V180.903ZM259.816 180.903H260.306V155.038H259.816H259.325V180.903H259.816ZM259.816 155.038V154.548H253.068V155.038V155.529H259.816V155.038ZM253.068 155.038H253.559V152.611H253.068H252.578V155.038H253.068ZM253.068 152.611V153.102H269.108V152.611V152.121H253.068V152.611ZM269.108 152.611H268.618V155.038H269.108H269.599V152.611H269.108ZM269.108 155.038V154.548H262.361V155.038V155.529H269.108V155.038Z" fill="white" mask="url(#path-37-outside-1_668_385)"/>
<path d="M38.7838 230.028C37.9711 229.548 37.4539 229.031 37.2323 228.477C37.0107 227.959 36.8998 227.516 36.8998 227.147C36.8998 226.112 37.2692 224.709 38.008 222.936C38.7838 221.163 39.7996 219.149 41.0555 216.896C42.3484 214.606 43.7706 212.242 45.3221 209.804C43.9553 209.693 42.7917 209.619 41.8313 209.582C40.8708 209.545 40.0397 209.527 39.3379 209.527H37.3985C37.8049 208.455 38.5067 207.716 39.5041 207.31C40.5384 206.867 41.7574 206.645 43.1611 206.645C43.7891 206.645 44.4355 206.682 45.1004 206.756C45.7653 206.83 46.4487 206.922 47.1506 207.033C49.0345 204.189 50.9554 201.437 52.9132 198.777C54.9079 196.08 56.7549 193.698 58.4541 191.629C60.1903 189.524 61.6309 187.935 62.776 186.864C63.8473 185.83 64.7339 185.313 65.4357 185.313C65.842 185.313 66.2853 185.479 66.7655 185.811C67.2827 186.107 67.8183 186.532 68.3724 187.086C68.003 187.381 67.5228 188.175 66.9318 189.468C66.3777 190.724 65.7682 192.313 65.1032 194.234C64.4753 196.154 63.8473 198.26 63.2193 200.55C62.5914 202.84 62.0003 205.186 61.4462 207.587C60.9291 209.951 60.5043 212.205 60.1718 214.347C59.8763 216.49 59.7285 218.374 59.7285 219.999C59.7285 221.403 59.8763 222.492 60.1718 223.268C60.5043 224.044 61.0399 224.432 61.7787 224.432C62.7391 224.432 63.8288 223.767 65.0478 222.437C66.2668 221.107 67.5967 219.038 69.0373 216.231L69.5914 216.785C68.4832 219.74 67.061 222.16 65.3249 224.044C63.6257 225.928 61.8526 226.87 60.0056 226.87C58.4911 226.87 57.3829 226.205 56.681 224.875C56.0161 223.508 55.6836 221.698 55.6836 219.445C55.6836 218.263 55.7575 216.97 55.9053 215.566C56.09 214.162 56.3301 212.703 56.6256 211.189C55.0003 210.93 53.5042 210.727 52.1374 210.579C50.8076 210.395 49.5701 210.228 48.425 210.081C46.6888 213.294 44.9896 216.6 43.3273 219.999C41.702 223.397 40.1875 226.74 38.7838 230.028ZM57.0135 209.249C57.5676 206.811 58.214 204.355 58.9528 201.88C59.6916 199.368 60.4673 196.986 61.28 194.732C62.1296 192.479 62.9238 190.503 63.6626 188.803C62.5175 189.505 61.1876 190.761 59.6731 192.571C58.1955 194.344 56.6256 196.524 54.9633 199.11C53.301 201.658 51.6018 204.466 49.8656 207.532C51.1216 207.79 52.3591 208.086 53.5781 208.418C54.834 208.714 55.9792 208.991 57.0135 209.249ZM77.5132 226.648C76.2573 226.648 75.2599 226.316 74.5211 225.651C73.8193 224.986 73.4683 224.118 73.4683 223.046C73.4683 221.938 73.7269 220.775 74.2441 219.556C74.7612 218.337 75.2599 217.136 75.7401 215.954C76.2573 214.735 76.5159 213.645 76.5159 212.685C76.5159 211.503 76.1649 210.635 75.4631 210.081C74.7982 209.49 74.1148 208.954 73.4129 208.474C72.5633 210.653 71.6768 212.722 70.7533 214.68C69.8298 216.637 69.0725 218.115 68.4815 219.112L67.9828 218.17C68.5 217.21 69.1649 215.806 69.9775 213.959C70.8272 212.112 71.6583 210.007 72.471 207.643C72.1016 207.273 71.9169 206.83 71.9169 206.313C71.9169 205.205 72.2309 204.3 72.8588 203.598C73.4868 202.896 73.9486 202.545 74.2441 202.545C74.6504 202.545 74.872 202.73 74.909 203.099C74.9829 203.431 75.0198 203.69 75.0198 203.875C75.0198 204.059 74.909 204.429 74.6873 204.983C74.5026 205.5 74.4103 205.814 74.4103 205.925C74.4103 206.442 74.6873 206.922 75.2414 207.366C75.8325 207.772 76.4974 208.252 77.2362 208.806C77.975 209.323 78.6214 209.97 79.1755 210.746C79.7665 211.484 80.0621 212.445 80.0621 213.627C80.0621 214.735 79.822 215.862 79.3417 217.007C78.8985 218.152 78.4367 219.242 77.9565 220.276C77.5132 221.31 77.2916 222.215 77.2916 222.991C77.2916 223.656 77.4578 224.099 77.7903 224.321C78.1227 224.542 78.5106 224.653 78.9539 224.653C79.8404 224.653 80.7454 224.376 81.6689 223.822C82.6294 223.268 83.5529 222.566 84.4394 221.717C85.326 220.867 86.1202 219.98 86.822 219.057C87.5239 218.097 88.041 217.21 88.3735 216.397L89.0938 216.951C88.392 218.503 87.4315 220.036 86.2125 221.55C84.9935 223.028 83.6267 224.247 82.1122 225.207C80.6346 226.168 79.1016 226.648 77.5132 226.648ZM89.2964 240.722C88.4837 240.722 87.7449 240.463 87.08 239.946C86.4151 239.466 86.0826 238.653 86.0826 237.508C86.0826 236.4 86.4336 235.366 87.1354 234.405C87.8003 233.482 88.6684 232.614 89.7397 231.801C90.8109 231.025 91.9745 230.305 93.2305 229.64C94.5234 228.975 95.7424 228.347 96.8875 227.756C97.4046 226.463 97.8849 225.078 98.3281 223.601C98.8083 222.086 99.2701 220.424 99.7134 218.614C98.3097 220.645 96.8321 222.345 95.2806 223.711C93.7661 225.041 92.2331 225.706 90.6816 225.706C89.3518 225.706 88.3175 225.207 87.5787 224.21C86.8768 223.213 86.5259 221.92 86.5259 220.331C86.5259 218.411 86.9877 216.582 87.9112 214.846C88.8716 213.11 90.1091 211.577 91.6236 210.247C93.1381 208.917 94.745 207.883 96.4442 207.144C98.1434 206.368 99.7318 205.98 101.209 205.98C102.281 205.98 103.038 206.165 103.481 206.534C103.961 206.867 104.202 207.273 104.202 207.753C104.202 208.086 104.109 208.344 103.924 208.529C103.74 208.714 103.611 208.825 103.537 208.862C103.352 208.566 103.075 208.363 102.705 208.252C102.336 208.104 101.874 208.03 101.32 208.03C99.8796 208.03 98.4759 208.455 97.1091 209.305C95.7793 210.154 94.5972 211.244 93.5629 212.574C92.5286 213.904 91.6975 215.289 91.0695 216.73C90.4785 218.133 90.1829 219.426 90.1829 220.608C90.1829 221.495 90.3492 222.178 90.6816 222.659C91.051 223.102 91.5312 223.323 92.1223 223.323C93.1935 223.323 94.4679 222.622 95.9455 221.218C97.4601 219.777 98.9192 218.041 100.323 216.009C100.434 215.492 100.526 215.031 100.6 214.624C100.711 214.218 100.84 213.701 100.988 213.073C101.099 212.556 101.357 211.965 101.764 211.3C102.207 210.598 102.89 210.247 103.814 210.247C103.998 210.247 104.183 210.265 104.368 210.302C104.552 210.302 104.756 210.339 104.977 210.413C104.977 211.004 104.793 212.094 104.423 213.682C104.091 215.234 103.592 217.062 102.927 219.168C102.299 221.236 101.56 223.379 100.711 225.595C101.93 225.004 103.112 224.247 104.257 223.323C105.439 222.4 106.51 221.347 107.471 220.165C108.431 218.946 109.188 217.635 109.742 216.231L110.463 216.785C109.909 218.447 109.022 219.962 107.803 221.329C106.584 222.696 105.273 223.878 103.869 224.875C102.502 225.872 101.246 226.648 100.101 227.202C99.0669 229.677 97.9772 231.93 96.8321 233.962C95.6869 236.031 94.4864 237.675 93.2305 238.894C92.0115 240.113 90.7001 240.722 89.2964 240.722ZM89.1302 238.949C89.869 238.949 90.8663 238.21 92.1223 236.733C93.4152 235.292 94.8004 232.798 96.278 229.252C94.8004 229.991 93.4152 230.748 92.1223 231.524C90.8663 232.337 89.832 233.186 89.0193 234.073C88.2067 234.959 87.8003 235.938 87.8003 237.01C87.8003 237.601 87.9296 238.062 88.1882 238.395C88.4468 238.764 88.7608 238.949 89.1302 238.949ZM114.711 227.645C112.458 227.645 110.759 227.017 109.613 225.761C108.505 224.542 107.951 223.028 107.951 221.218C107.951 219.556 108.358 217.801 109.17 215.954C110.02 214.107 111.128 212.371 112.495 210.746C113.898 209.12 115.431 207.809 117.094 206.811C118.756 205.777 120.4 205.26 122.025 205.26C122.875 205.26 123.651 205.482 124.352 205.925C125.091 206.368 125.461 207.273 125.461 208.64C125.461 210.044 125.036 211.374 124.186 212.629C123.373 213.848 122.284 214.938 120.917 215.899C119.587 216.859 118.11 217.653 116.484 218.281C114.896 218.872 113.307 219.242 111.719 219.389C111.645 219.759 111.59 220.11 111.553 220.442C111.516 220.775 111.497 221.089 111.497 221.384C111.497 221.938 111.553 222.492 111.664 223.046C111.811 223.601 112.051 224.118 112.384 224.598C112.716 225.041 113.16 225.392 113.714 225.651C114.305 225.909 115.025 226.039 115.875 226.039C117.463 226.039 119.033 225.595 120.585 224.709C122.136 223.785 123.577 222.585 124.906 221.107C126.236 219.63 127.363 218.004 128.286 216.231L128.951 216.73C127.954 218.946 126.68 220.867 125.128 222.492C123.614 224.118 121.951 225.374 120.141 226.26C118.368 227.184 116.558 227.645 114.711 227.645ZM111.996 218.337C112.993 218.004 114.12 217.524 115.376 216.896C116.632 216.231 117.833 215.455 118.978 214.569C120.16 213.682 121.12 212.703 121.859 211.632C122.635 210.561 123.023 209.434 123.023 208.252C123.023 207.846 122.949 207.532 122.801 207.31C122.653 207.089 122.339 206.978 121.859 206.978C120.972 206.978 120.03 207.329 119.033 208.03C118.036 208.695 117.075 209.582 116.152 210.69C115.228 211.798 114.397 213.017 113.658 214.347C112.92 215.677 112.365 217.007 111.996 218.337ZM145.076 226.316C143.783 226.316 142.804 225.983 142.139 225.318C141.511 224.653 141.197 223.804 141.197 222.769C141.197 221.994 141.327 221.181 141.585 220.331C141.881 219.482 142.158 218.614 142.416 217.727C142.675 216.804 142.804 215.917 142.804 215.067C142.804 214.033 142.583 213.331 142.139 212.962C141.733 212.556 141.216 212.352 140.588 212.352C139.443 212.352 138.279 212.833 137.097 213.793C135.915 214.717 134.77 215.917 133.662 217.395C132.553 218.835 131.519 220.331 130.559 221.883C129.598 223.434 128.749 224.82 128.01 226.039C127.419 226.039 126.865 225.928 126.348 225.706C125.793 225.521 125.369 225.226 125.073 224.82C125.073 224.635 125.276 224.062 125.683 223.102C126.052 222.141 126.495 220.959 127.012 219.556C127.53 218.152 127.991 216.711 128.398 215.234C128.804 213.756 129.007 212.408 129.007 211.189C129.229 210.93 129.58 210.672 130.06 210.413C130.54 210.154 131.039 210.025 131.556 210.025C132.553 210.025 133.052 210.505 133.052 211.466C133.052 212.057 132.886 213.054 132.553 214.458C132.221 215.825 131.796 217.265 131.279 218.78C132.276 217.265 133.385 215.769 134.604 214.292C135.86 212.777 137.189 211.521 138.593 210.524C139.997 209.527 141.4 209.028 142.804 209.028C144.245 209.028 145.279 209.545 145.907 210.579C146.572 211.614 146.904 212.759 146.904 214.015C146.904 215.16 146.72 216.231 146.35 217.228C145.981 218.189 145.593 219.131 145.187 220.054C144.817 220.941 144.633 221.846 144.633 222.769C144.633 223.545 144.78 224.099 145.076 224.432C145.408 224.727 145.815 224.875 146.295 224.875C147.218 224.875 148.142 224.45 149.065 223.601C149.989 222.714 150.875 221.606 151.725 220.276C152.612 218.946 153.387 217.598 154.052 216.231L154.662 216.951C153.886 218.761 153.018 220.368 152.058 221.772C151.097 223.176 150.044 224.284 148.899 225.097C147.754 225.909 146.48 226.316 145.076 226.316ZM157.699 227.756C156.111 227.756 154.892 227.294 154.042 226.371C153.193 225.448 152.768 224.081 152.768 222.271C152.768 220.645 153.063 218.651 153.654 216.286C154.282 213.885 155.058 211.429 155.982 208.917C155.612 208.843 155.261 208.788 154.929 208.751C154.596 208.677 154.282 208.585 153.987 208.474V207.476C154.282 207.513 154.633 207.55 155.04 207.587C155.446 207.624 155.908 207.661 156.425 207.698C157.201 205.703 158.032 203.782 158.918 201.935C159.805 200.052 160.673 198.389 161.523 196.949C162.409 195.471 163.24 194.307 164.016 193.458C164.829 192.571 165.512 192.128 166.066 192.128C166.362 192.128 166.62 192.239 166.842 192.46C167.1 192.645 167.23 192.941 167.23 193.347C167.23 193.975 166.842 195.009 166.066 196.45C165.29 197.854 164.33 199.534 163.185 201.492C162.04 203.45 160.932 205.574 159.86 207.864C160.193 207.864 160.525 207.864 160.858 207.864C161.227 207.864 161.578 207.864 161.91 207.864C163.129 207.864 164.404 207.846 165.734 207.809C167.1 207.772 168.467 207.68 169.834 207.532V208.529C167.802 208.751 165.974 208.917 164.348 209.028C162.76 209.139 161.338 209.194 160.082 209.194C159.934 209.194 159.786 209.194 159.639 209.194C159.528 209.194 159.399 209.194 159.251 209.194C158.401 211.152 157.681 213.165 157.09 215.234C156.499 217.302 156.203 219.316 156.203 221.273C156.203 222.862 156.443 224.007 156.924 224.709C157.404 225.374 158.198 225.706 159.306 225.706C161.227 225.706 163.111 224.856 164.958 223.157C166.805 221.458 168.43 219.149 169.834 216.231L170.554 216.785C169.668 218.854 168.541 220.719 167.174 222.382C165.845 224.044 164.367 225.355 162.742 226.316C161.116 227.276 159.436 227.756 157.699 227.756ZM172.779 226.648C171.339 226.648 170.267 226.186 169.566 225.263C168.864 224.376 168.513 223.287 168.513 221.994C168.513 221.144 168.661 220.073 168.956 218.78C169.289 217.487 169.713 216.139 170.231 214.735C170.748 213.294 171.339 211.946 172.004 210.69C172.706 209.434 173.444 208.418 174.22 207.643C174.996 206.83 175.753 206.424 176.492 206.424C176.824 206.424 177.101 206.534 177.323 206.756C177.582 206.941 177.711 207.236 177.711 207.643C177.711 208.086 177.415 208.806 176.824 209.804C176.27 210.801 175.605 211.946 174.83 213.239C174.054 214.532 173.37 215.899 172.779 217.339C172.225 218.743 171.948 220.091 171.948 221.384C171.948 222.714 172.17 223.601 172.613 224.044C173.056 224.487 173.74 224.709 174.663 224.709C175.919 224.709 177.249 224.081 178.653 222.825C180.093 221.569 181.608 219.371 183.196 216.231L183.695 216.785C182.624 219.962 181.072 222.4 179.041 224.099C177.046 225.798 174.959 226.648 172.779 226.648ZM179.429 201.271C178.837 201.271 178.302 201.123 177.822 200.827C177.378 200.532 177.157 200.07 177.157 199.442C177.157 198.666 177.6 198.001 178.487 197.447C179.41 196.856 180.315 196.561 181.202 196.561C181.756 196.561 182.199 196.69 182.531 196.949C182.864 197.207 183.03 197.65 183.03 198.278C183.03 198.98 182.642 199.664 181.867 200.329C181.128 200.957 180.315 201.271 179.429 201.271ZM200.053 226.316C198.76 226.316 197.781 225.983 197.116 225.318C196.488 224.653 196.174 223.804 196.174 222.769C196.174 221.994 196.303 221.181 196.562 220.331C196.857 219.482 197.134 218.614 197.393 217.727C197.651 216.804 197.781 215.917 197.781 215.067C197.781 214.033 197.559 213.331 197.116 212.962C196.709 212.556 196.192 212.352 195.564 212.352C194.419 212.352 193.256 212.833 192.074 213.793C190.891 214.717 189.746 215.917 188.638 217.395C187.53 218.835 186.496 220.331 185.535 221.883C184.575 223.434 183.725 224.82 182.986 226.039C182.395 226.039 181.841 225.928 181.324 225.706C180.77 225.521 180.345 225.226 180.05 224.82C180.05 224.635 180.253 224.062 180.659 223.102C181.029 222.141 181.472 220.959 181.989 219.556C182.506 218.152 182.968 216.711 183.374 215.234C183.781 213.756 183.984 212.408 183.984 211.189C184.205 210.93 184.556 210.672 185.037 210.413C185.517 210.154 186.015 210.025 186.533 210.025C187.53 210.025 188.029 210.505 188.029 211.466C188.029 212.057 187.862 213.054 187.53 214.458C187.198 215.825 186.773 217.265 186.256 218.78C187.253 217.265 188.361 215.769 189.58 214.292C190.836 212.777 192.166 211.521 193.57 210.524C194.973 209.527 196.377 209.028 197.781 209.028C199.221 209.028 200.256 209.545 200.884 210.579C201.549 211.614 201.881 212.759 201.881 214.015C201.881 215.16 201.696 216.231 201.327 217.228C200.958 218.189 200.57 219.131 200.163 220.054C199.794 220.941 199.609 221.846 199.609 222.769C199.609 223.545 199.757 224.099 200.053 224.432C200.385 224.727 200.791 224.875 201.272 224.875C202.195 224.875 203.119 224.45 204.042 223.601C204.965 222.714 205.852 221.606 206.702 220.276C207.588 218.946 208.364 217.598 209.029 216.231L209.638 216.951C208.863 218.761 207.995 220.368 207.034 221.772C206.074 223.176 205.021 224.284 203.876 225.097C202.731 225.909 201.456 226.316 200.053 226.316ZM210.626 227.812C209.481 227.812 208.52 227.424 207.744 226.648C206.932 225.909 206.525 224.764 206.525 223.213C206.525 221.883 206.821 220.461 207.412 218.946C208.003 217.395 208.816 215.88 209.85 214.403C210.884 212.888 212.048 211.521 213.341 210.302C214.671 209.046 216.056 208.049 217.497 207.31C218.974 206.571 220.433 206.202 221.874 206.202C223.315 206.202 224.515 206.59 225.475 207.366C226.436 208.104 226.916 209.102 226.916 210.358C226.916 211.281 226.658 211.909 226.14 212.242C225.66 212.574 225.014 212.74 224.201 212.74C224.275 212.445 224.33 212.131 224.367 211.798C224.441 211.429 224.478 211.096 224.478 210.801C224.478 209.951 224.275 209.231 223.869 208.64C223.462 208.012 222.76 207.698 221.763 207.698C220.729 207.698 219.676 208.067 218.605 208.806C217.533 209.508 216.499 210.468 215.502 211.687C214.504 212.87 213.618 214.162 212.842 215.566C212.066 216.97 211.457 218.355 211.014 219.722C210.57 221.089 210.349 222.308 210.349 223.379C210.349 224.82 210.847 225.54 211.845 225.54C212.694 225.54 213.618 225.152 214.615 224.376C215.613 223.564 216.628 222.548 217.663 221.329C218.734 220.073 219.75 218.78 220.71 217.45C221.671 216.12 222.52 214.901 223.259 213.793C223.407 213.571 223.499 213.461 223.536 213.461C223.758 213.498 224.035 213.571 224.367 213.682C224.737 213.793 225.051 213.941 225.309 214.126C225.568 214.31 225.697 214.55 225.697 214.846C225.697 215.178 225.531 215.64 225.198 216.231C224.866 216.785 224.497 217.432 224.09 218.17C223.684 218.909 223.315 219.666 222.982 220.442C222.65 221.181 222.483 221.883 222.483 222.548C222.483 223.102 222.631 223.656 222.927 224.21C223.222 224.727 223.702 224.986 224.367 224.986C225.365 224.986 226.676 224.265 228.301 222.825C229.927 221.347 231.571 219.149 233.233 216.231L233.787 216.785C233.011 218.78 232.014 220.535 230.795 222.049C229.576 223.564 228.264 224.746 226.861 225.595C225.494 226.445 224.146 226.87 222.816 226.87C221.449 226.87 220.433 226.463 219.768 225.651C219.14 224.838 218.826 223.951 218.826 222.991C218.826 222.769 218.845 222.529 218.882 222.271C218.919 221.975 218.956 221.68 218.993 221.384C217.404 223.527 215.945 225.134 214.615 226.205C213.322 227.276 211.993 227.812 210.626 227.812Z" fill="#6CB3FF"/>
<defs>
<clipPath id="clip0_668_385">
<rect width="38.4713" height="35.6683" fill="white" transform="matrix(-1 0 0 1 150.103 72.6688)"/>
</clipPath>
</defs>
</svg>
