<svg width="157" height="15" viewBox="0 0 157 15" fill="none" xmlns="http://www.w3.org/2000/svg">
<mask id="path-1-outside-1_445_386" maskUnits="userSpaceOnUse" x="-0.28479" y="-0.344238" width="157" height="15" fill="black">
<rect fill="white" x="-0.28479" y="-0.344238" width="157" height="15"/>
<path d="M7.68138 10.4054C7.68138 10.8548 7.59519 11.2765 7.42283 11.6705C7.25661 12.0644 7.02577 12.4092 6.73028 12.7047C6.43479 13.0002 6.08698 13.2341 5.68684 13.4064C5.29286 13.5727 4.87118 13.6558 4.42179 13.6558H0.229578V0.414277H4.42179C4.87118 0.414277 5.29286 0.50046 5.68684 0.672827C6.08698 0.839038 6.43479 1.06989 6.73028 1.36537C7.02577 1.66086 7.25661 2.00867 7.42283 2.40881C7.59519 2.80279 7.68138 3.22448 7.68138 3.67386V3.80314C7.68138 4.11709 7.63828 4.41873 7.5521 4.70806C7.47207 4.99124 7.35511 5.25594 7.20121 5.50218C7.04731 5.74842 6.86571 5.97311 6.65641 6.17626C6.4471 6.37325 6.21318 6.53946 5.95463 6.6749C6.21318 6.81033 6.4471 6.97962 6.65641 7.18276C6.86571 7.37975 7.04731 7.60445 7.20121 7.85684C7.35511 8.10308 7.47207 8.37086 7.5521 8.66019C7.63828 8.94337 7.68138 9.24193 7.68138 9.55589V10.4054ZM6.4902 9.36197C6.4902 9.06649 6.43479 8.79255 6.32399 8.54015C6.21318 8.2816 6.05928 8.05691 5.86229 7.86607C5.67145 7.67524 5.44676 7.52442 5.18821 7.41361C4.93581 7.3028 4.66187 7.2474 4.36639 7.2474H1.42076V12.52H4.36639C4.66187 12.52 4.93581 12.4646 5.18821 12.3538C5.44676 12.243 5.67145 12.0921 5.86229 11.9013C6.05928 11.7105 6.21318 11.4889 6.32399 11.2365C6.43479 10.9779 6.4902 10.7009 6.4902 10.4054V9.36197ZM6.4902 3.67386C6.4902 3.37837 6.43479 3.10443 6.32399 2.85204C6.21318 2.59349 6.05928 2.3688 5.86229 2.17796C5.67145 1.98097 5.44676 1.82707 5.18821 1.71626C4.93581 1.60546 4.66187 1.55005 4.36639 1.55005H1.42076V6.11162H4.36639C4.66187 6.11162 4.93581 6.05622 5.18821 5.94541C5.44676 5.83461 5.67145 5.68378 5.86229 5.49295C6.05928 5.29596 6.21318 5.07127 6.32399 4.81887C6.43479 4.56032 6.4902 4.2833 6.4902 3.98782V3.67386ZM19.3003 10.5901C19.3003 11.0395 19.2141 11.4612 19.0417 11.8551C18.8755 12.2491 18.6447 12.5939 18.3492 12.8893C18.0537 13.1848 17.709 13.4188 17.315 13.5911C16.921 13.7573 16.4993 13.8404 16.0499 13.8404H15.1081C14.6587 13.8404 14.2339 13.7573 13.8338 13.5911C13.4398 13.4188 13.0951 13.1848 12.7996 12.8893C12.5041 12.5939 12.2702 12.2491 12.0978 11.8551C11.9316 11.4612 11.8485 11.0395 11.8485 10.5901V0.414277H13.0397V10.5901C13.0397 10.8856 13.0951 11.1626 13.2059 11.4211C13.3167 11.6735 13.4675 11.8982 13.6583 12.0952C13.8553 12.2861 14.08 12.4369 14.3324 12.5477C14.591 12.6585 14.868 12.7139 15.1635 12.7139H15.9945C16.29 12.7139 16.5639 12.6585 16.8163 12.5477C17.0749 12.4369 17.2996 12.2861 17.4904 12.0952C17.6813 11.8982 17.8321 11.6735 17.9429 11.4211C18.0537 11.1626 18.1091 10.8856 18.1091 10.5901V0.414277H19.3003V10.5901ZM24.2246 13.6558V0.414277H25.4157V13.6558H24.2246ZM37.9857 10.4054C37.9857 10.8548 37.8995 11.2765 37.7272 11.6705C37.561 12.0644 37.3301 12.4092 37.0346 12.7047C36.7391 13.0002 36.3913 13.2341 35.9912 13.4064C35.5972 13.5727 35.1755 13.6558 34.7261 13.6558H30.5339V0.414277H34.7261C35.1755 0.414277 35.5972 0.50046 35.9912 0.672827C36.3913 0.839038 36.7391 1.06989 37.0346 1.36537C37.3301 1.66086 37.561 2.00867 37.7272 2.40881C37.8995 2.80279 37.9857 3.22448 37.9857 3.67386V10.4054ZM36.7945 3.67386C36.7945 3.37837 36.7391 3.10443 36.6283 2.85204C36.5175 2.59349 36.3636 2.3688 36.1666 2.17796C35.9758 1.98097 35.7511 1.82707 35.4926 1.71626C35.2402 1.60546 34.9662 1.55005 34.6707 1.55005H31.7251V12.52H34.6707C34.9662 12.52 35.2402 12.4646 35.4926 12.3538C35.7511 12.243 35.9758 12.0921 36.1666 11.9013C36.3636 11.7105 36.5175 11.4889 36.6283 11.2365C36.7391 10.9779 36.7945 10.7009 36.7945 10.4054V3.67386ZM42.7069 13.6558V0.414277H43.898V12.52H48.9675V13.6558H42.7069ZM52.9407 13.6558V0.414277H60.3925V1.55005H54.1318V6.47175H59.2013V7.60752H54.1318V12.52H60.3925V13.6558H52.9407ZM70.9772 13.6558L67.3851 8.00458H65.7507V13.6558H64.5596V0.414277H68.761C69.2104 0.414277 69.6321 0.50046 70.0261 0.672827C70.42 0.839038 70.7648 1.06989 71.0603 1.36537C71.3557 1.66086 71.5866 2.00867 71.7528 2.40881C71.9252 2.80279 72.0114 3.22448 72.0114 3.67386V4.745C72.0114 5.19438 71.9252 5.61915 71.7528 6.01928C71.5866 6.41327 71.3557 6.758 71.0603 7.05349C70.7648 7.34897 70.42 7.5829 70.0261 7.75527C69.6321 7.92148 69.2104 8.00458 68.761 8.00458L72.353 13.6558H70.9772ZM70.8202 3.67386C70.8202 3.37837 70.7648 3.10443 70.654 2.85204C70.5432 2.59349 70.3923 2.3688 70.2015 2.17796C70.0107 1.98097 69.786 1.82707 69.5274 1.71626C69.275 1.60546 69.0011 1.55005 68.7056 1.55005H65.7507V6.86881H68.7056C69.0011 6.86881 69.275 6.8134 69.5274 6.7026C69.786 6.59179 70.0107 6.44097 70.2015 6.25013C70.3923 6.05314 70.5432 5.82845 70.654 5.57605C70.7648 5.3175 70.8202 5.04049 70.8202 4.745V3.67386ZM84.3439 1.55005V6.47175H89.4133V7.60752H84.3439V13.6558H83.1527V0.414277H90.6045V1.55005H84.3439ZM94.5777 13.6558V0.414277H102.029V1.55005H95.7688V6.47175H100.838V7.60752H95.7688V12.52H102.029V13.6558H94.5777ZM113.648 10.5901C113.648 11.0395 113.556 11.4612 113.371 11.8551C113.193 12.2491 112.95 12.5939 112.642 12.8893C112.34 13.1848 111.986 13.4188 111.58 13.5911C111.18 13.7573 110.755 13.8404 110.306 13.8404H109.355C108.905 13.8404 108.477 13.7573 108.071 13.5911C107.671 13.4188 107.317 13.1848 107.009 12.8893C106.707 12.5939 106.464 12.2491 106.28 11.8551C106.101 11.4612 106.012 11.0395 106.012 10.5901V10.0638L107.203 9.86984V10.5901C107.203 10.8856 107.262 11.1626 107.378 11.4211C107.502 11.6735 107.665 11.8982 107.868 12.0952C108.071 12.2861 108.305 12.4369 108.57 12.5477C108.841 12.6585 109.124 12.7139 109.419 12.7139H110.25C110.546 12.7139 110.826 12.6585 111.091 12.5477C111.355 12.4369 111.589 12.2861 111.792 12.0952C111.995 11.8982 112.156 11.6735 112.272 11.4211C112.396 11.1626 112.457 10.8856 112.457 10.5901V10.193C112.457 9.73749 112.368 9.3589 112.189 9.05725C112.011 8.75561 111.774 8.50014 111.478 8.29084C111.183 8.07538 110.847 7.89378 110.472 7.74603C110.103 7.59829 109.721 7.45055 109.327 7.3028C108.933 7.15506 108.548 6.99193 108.173 6.8134C107.803 6.63488 107.471 6.41327 107.175 6.14856C106.88 5.8777 106.643 5.54835 106.464 5.16053C106.286 4.7727 106.197 4.29561 106.197 3.72926V3.47995C106.197 3.03056 106.28 2.60888 106.446 2.2149C106.618 1.82091 106.852 1.47618 107.148 1.18069C107.443 0.885208 107.788 0.654359 108.182 0.488148C108.582 0.315781 109.007 0.229597 109.456 0.229597H110.306C110.755 0.229597 111.177 0.315781 111.571 0.488148C111.965 0.654359 112.309 0.885208 112.605 1.18069C112.9 1.47618 113.131 1.82091 113.297 2.2149C113.47 2.60888 113.556 3.03056 113.556 3.47995V3.8216L112.365 4.01552V3.47995C112.365 3.18446 112.309 2.91052 112.199 2.65813C112.088 2.39958 111.937 2.17488 111.746 1.98405C111.555 1.79321 111.331 1.64239 111.072 1.53158C110.82 1.42078 110.546 1.36537 110.25 1.36537H109.512C109.216 1.36537 108.939 1.42078 108.68 1.53158C108.428 1.64239 108.203 1.79321 108.006 1.98405C107.816 2.17488 107.665 2.39958 107.554 2.65813C107.443 2.91052 107.388 3.18446 107.388 3.47995V3.72926C107.388 4.15403 107.477 4.51107 107.656 4.8004C107.834 5.08973 108.071 5.33905 108.367 5.54835C108.662 5.7515 108.994 5.93002 109.364 6.08392C109.739 6.23167 110.124 6.38556 110.518 6.54562C110.912 6.69952 111.294 6.87189 111.663 7.06272C112.039 7.2474 112.374 7.47825 112.67 7.75527C112.965 8.02613 113.202 8.35855 113.381 8.75253C113.559 9.14652 113.648 9.62668 113.648 10.193V10.5901ZM121.509 1.55005V13.6558H120.318V1.55005H117.16V0.414277H124.667V1.55005H121.509ZM135.088 3.78467H137.258L137.544 0.414277H138.662L138.375 3.78467H141.441L141.727 0.414277H142.845L142.558 3.78467H144.544V4.72653H142.466L142.087 9.34351H144.165V10.2854H141.986L141.709 13.6558H140.592L140.878 10.2854H137.812L137.526 13.6558H136.409L136.695 10.2854H134.71V9.34351H136.787L137.166 4.72653H135.088V3.78467ZM137.904 9.34351H140.97L141.349 4.72653H138.283L137.904 9.34351ZM156.163 10.5901C156.163 11.0395 156.076 11.4612 155.904 11.8551C155.738 12.2491 155.507 12.5939 155.211 12.8893C154.916 13.1848 154.571 13.4188 154.177 13.5911C153.783 13.7573 153.362 13.8404 152.912 13.8404H152.349C151.9 13.8404 151.475 13.7573 151.075 13.5911C150.681 13.4188 150.336 13.1848 150.04 12.8893C149.745 12.5939 149.511 12.2491 149.339 11.8551C149.172 11.4612 149.089 11.0395 149.089 10.5901V10.2484L150.281 10.0638V10.5901C150.281 10.8856 150.336 11.1626 150.447 11.4211C150.558 11.6735 150.708 11.8982 150.899 12.0952C151.096 12.2861 151.321 12.4369 151.573 12.5477C151.832 12.6585 152.109 12.7139 152.404 12.7139H152.857C153.152 12.7139 153.426 12.6585 153.679 12.5477C153.937 12.4369 154.162 12.2861 154.353 12.0952C154.544 11.8982 154.694 11.6735 154.805 11.4211C154.916 11.1626 154.971 10.8856 154.971 10.5901V9.49125C154.971 9.19576 154.916 8.92182 154.805 8.66943C154.694 8.41088 154.544 8.18618 154.353 7.99535C154.162 7.80451 153.937 7.65369 153.679 7.54289C153.426 7.43208 153.152 7.37668 152.857 7.37668H151.97V6.2409H152.857C153.152 6.2409 153.426 6.1855 153.679 6.07469C153.937 5.96388 154.162 5.81306 154.353 5.62222C154.544 5.43139 154.694 5.20977 154.805 4.95738C154.916 4.69883 154.971 4.42181 154.971 4.12632V3.47995C154.971 3.18446 154.916 2.91052 154.805 2.65813C154.694 2.39958 154.544 2.17488 154.353 1.98405C154.162 1.79321 153.937 1.64239 153.679 1.53158C153.426 1.42078 153.152 1.36537 152.857 1.36537H152.404C152.109 1.36537 151.832 1.42078 151.573 1.53158C151.321 1.64239 151.096 1.79321 150.899 1.98405C150.708 2.17488 150.558 2.39958 150.447 2.65813C150.336 2.91052 150.281 3.18446 150.281 3.47995V4.01552L149.089 3.8216V3.47995C149.089 3.03056 149.172 2.60888 149.339 2.2149C149.511 1.82091 149.745 1.47618 150.04 1.18069C150.336 0.885208 150.681 0.654359 151.075 0.488148C151.475 0.315781 151.9 0.229597 152.349 0.229597H152.912C153.362 0.229597 153.783 0.315781 154.177 0.488148C154.571 0.654359 154.916 0.885208 155.211 1.18069C155.507 1.47618 155.738 1.82091 155.904 2.2149C156.076 2.60888 156.163 3.03056 156.163 3.47995V3.93241C156.163 4.24637 156.119 4.54801 156.033 4.83734C155.953 5.12051 155.836 5.38522 155.682 5.63146C155.535 5.8777 155.356 6.10239 155.147 6.30554C154.938 6.50253 154.704 6.67182 154.445 6.8134C154.704 6.94884 154.938 7.11812 155.147 7.32127C155.356 7.51826 155.535 7.73988 155.682 7.98612C155.836 8.23235 155.953 8.50014 156.033 8.78947C156.119 9.07264 156.163 9.37121 156.163 9.68516V10.5901Z"/>
</mask>
<path d="M7.68138 10.4054C7.68138 10.8548 7.59519 11.2765 7.42283 11.6705C7.25661 12.0644 7.02577 12.4092 6.73028 12.7047C6.43479 13.0002 6.08698 13.2341 5.68684 13.4064C5.29286 13.5727 4.87118 13.6558 4.42179 13.6558H0.229578V0.414277H4.42179C4.87118 0.414277 5.29286 0.50046 5.68684 0.672827C6.08698 0.839038 6.43479 1.06989 6.73028 1.36537C7.02577 1.66086 7.25661 2.00867 7.42283 2.40881C7.59519 2.80279 7.68138 3.22448 7.68138 3.67386V3.80314C7.68138 4.11709 7.63828 4.41873 7.5521 4.70806C7.47207 4.99124 7.35511 5.25594 7.20121 5.50218C7.04731 5.74842 6.86571 5.97311 6.65641 6.17626C6.4471 6.37325 6.21318 6.53946 5.95463 6.6749C6.21318 6.81033 6.4471 6.97962 6.65641 7.18276C6.86571 7.37975 7.04731 7.60445 7.20121 7.85684C7.35511 8.10308 7.47207 8.37086 7.5521 8.66019C7.63828 8.94337 7.68138 9.24193 7.68138 9.55589V10.4054ZM6.4902 9.36197C6.4902 9.06649 6.43479 8.79255 6.32399 8.54015C6.21318 8.2816 6.05928 8.05691 5.86229 7.86607C5.67145 7.67524 5.44676 7.52442 5.18821 7.41361C4.93581 7.3028 4.66187 7.2474 4.36639 7.2474H1.42076V12.52H4.36639C4.66187 12.52 4.93581 12.4646 5.18821 12.3538C5.44676 12.243 5.67145 12.0921 5.86229 11.9013C6.05928 11.7105 6.21318 11.4889 6.32399 11.2365C6.43479 10.9779 6.4902 10.7009 6.4902 10.4054V9.36197ZM6.4902 3.67386C6.4902 3.37837 6.43479 3.10443 6.32399 2.85204C6.21318 2.59349 6.05928 2.3688 5.86229 2.17796C5.67145 1.98097 5.44676 1.82707 5.18821 1.71626C4.93581 1.60546 4.66187 1.55005 4.36639 1.55005H1.42076V6.11162H4.36639C4.66187 6.11162 4.93581 6.05622 5.18821 5.94541C5.44676 5.83461 5.67145 5.68378 5.86229 5.49295C6.05928 5.29596 6.21318 5.07127 6.32399 4.81887C6.43479 4.56032 6.4902 4.2833 6.4902 3.98782V3.67386ZM19.3003 10.5901C19.3003 11.0395 19.2141 11.4612 19.0417 11.8551C18.8755 12.2491 18.6447 12.5939 18.3492 12.8893C18.0537 13.1848 17.709 13.4188 17.315 13.5911C16.921 13.7573 16.4993 13.8404 16.0499 13.8404H15.1081C14.6587 13.8404 14.2339 13.7573 13.8338 13.5911C13.4398 13.4188 13.0951 13.1848 12.7996 12.8893C12.5041 12.5939 12.2702 12.2491 12.0978 11.8551C11.9316 11.4612 11.8485 11.0395 11.8485 10.5901V0.414277H13.0397V10.5901C13.0397 10.8856 13.0951 11.1626 13.2059 11.4211C13.3167 11.6735 13.4675 11.8982 13.6583 12.0952C13.8553 12.2861 14.08 12.4369 14.3324 12.5477C14.591 12.6585 14.868 12.7139 15.1635 12.7139H15.9945C16.29 12.7139 16.5639 12.6585 16.8163 12.5477C17.0749 12.4369 17.2996 12.2861 17.4904 12.0952C17.6813 11.8982 17.8321 11.6735 17.9429 11.4211C18.0537 11.1626 18.1091 10.8856 18.1091 10.5901V0.414277H19.3003V10.5901ZM24.2246 13.6558V0.414277H25.4157V13.6558H24.2246ZM37.9857 10.4054C37.9857 10.8548 37.8995 11.2765 37.7272 11.6705C37.561 12.0644 37.3301 12.4092 37.0346 12.7047C36.7391 13.0002 36.3913 13.2341 35.9912 13.4064C35.5972 13.5727 35.1755 13.6558 34.7261 13.6558H30.5339V0.414277H34.7261C35.1755 0.414277 35.5972 0.50046 35.9912 0.672827C36.3913 0.839038 36.7391 1.06989 37.0346 1.36537C37.3301 1.66086 37.561 2.00867 37.7272 2.40881C37.8995 2.80279 37.9857 3.22448 37.9857 3.67386V10.4054ZM36.7945 3.67386C36.7945 3.37837 36.7391 3.10443 36.6283 2.85204C36.5175 2.59349 36.3636 2.3688 36.1666 2.17796C35.9758 1.98097 35.7511 1.82707 35.4926 1.71626C35.2402 1.60546 34.9662 1.55005 34.6707 1.55005H31.7251V12.52H34.6707C34.9662 12.52 35.2402 12.4646 35.4926 12.3538C35.7511 12.243 35.9758 12.0921 36.1666 11.9013C36.3636 11.7105 36.5175 11.4889 36.6283 11.2365C36.7391 10.9779 36.7945 10.7009 36.7945 10.4054V3.67386ZM42.7069 13.6558V0.414277H43.898V12.52H48.9675V13.6558H42.7069ZM52.9407 13.6558V0.414277H60.3925V1.55005H54.1318V6.47175H59.2013V7.60752H54.1318V12.52H60.3925V13.6558H52.9407ZM70.9772 13.6558L67.3851 8.00458H65.7507V13.6558H64.5596V0.414277H68.761C69.2104 0.414277 69.6321 0.50046 70.0261 0.672827C70.42 0.839038 70.7648 1.06989 71.0603 1.36537C71.3557 1.66086 71.5866 2.00867 71.7528 2.40881C71.9252 2.80279 72.0114 3.22448 72.0114 3.67386V4.745C72.0114 5.19438 71.9252 5.61915 71.7528 6.01928C71.5866 6.41327 71.3557 6.758 71.0603 7.05349C70.7648 7.34897 70.42 7.5829 70.0261 7.75527C69.6321 7.92148 69.2104 8.00458 68.761 8.00458L72.353 13.6558H70.9772ZM70.8202 3.67386C70.8202 3.37837 70.7648 3.10443 70.654 2.85204C70.5432 2.59349 70.3923 2.3688 70.2015 2.17796C70.0107 1.98097 69.786 1.82707 69.5274 1.71626C69.275 1.60546 69.0011 1.55005 68.7056 1.55005H65.7507V6.86881H68.7056C69.0011 6.86881 69.275 6.8134 69.5274 6.7026C69.786 6.59179 70.0107 6.44097 70.2015 6.25013C70.3923 6.05314 70.5432 5.82845 70.654 5.57605C70.7648 5.3175 70.8202 5.04049 70.8202 4.745V3.67386ZM84.3439 1.55005V6.47175H89.4133V7.60752H84.3439V13.6558H83.1527V0.414277H90.6045V1.55005H84.3439ZM94.5777 13.6558V0.414277H102.029V1.55005H95.7688V6.47175H100.838V7.60752H95.7688V12.52H102.029V13.6558H94.5777ZM113.648 10.5901C113.648 11.0395 113.556 11.4612 113.371 11.8551C113.193 12.2491 112.95 12.5939 112.642 12.8893C112.34 13.1848 111.986 13.4188 111.58 13.5911C111.18 13.7573 110.755 13.8404 110.306 13.8404H109.355C108.905 13.8404 108.477 13.7573 108.071 13.5911C107.671 13.4188 107.317 13.1848 107.009 12.8893C106.707 12.5939 106.464 12.2491 106.28 11.8551C106.101 11.4612 106.012 11.0395 106.012 10.5901V10.0638L107.203 9.86984V10.5901C107.203 10.8856 107.262 11.1626 107.378 11.4211C107.502 11.6735 107.665 11.8982 107.868 12.0952C108.071 12.2861 108.305 12.4369 108.57 12.5477C108.841 12.6585 109.124 12.7139 109.419 12.7139H110.25C110.546 12.7139 110.826 12.6585 111.091 12.5477C111.355 12.4369 111.589 12.2861 111.792 12.0952C111.995 11.8982 112.156 11.6735 112.272 11.4211C112.396 11.1626 112.457 10.8856 112.457 10.5901V10.193C112.457 9.73749 112.368 9.3589 112.189 9.05725C112.011 8.75561 111.774 8.50014 111.478 8.29084C111.183 8.07538 110.847 7.89378 110.472 7.74603C110.103 7.59829 109.721 7.45055 109.327 7.3028C108.933 7.15506 108.548 6.99193 108.173 6.8134C107.803 6.63488 107.471 6.41327 107.175 6.14856C106.88 5.8777 106.643 5.54835 106.464 5.16053C106.286 4.7727 106.197 4.29561 106.197 3.72926V3.47995C106.197 3.03056 106.28 2.60888 106.446 2.2149C106.618 1.82091 106.852 1.47618 107.148 1.18069C107.443 0.885208 107.788 0.654359 108.182 0.488148C108.582 0.315781 109.007 0.229597 109.456 0.229597H110.306C110.755 0.229597 111.177 0.315781 111.571 0.488148C111.965 0.654359 112.309 0.885208 112.605 1.18069C112.9 1.47618 113.131 1.82091 113.297 2.2149C113.47 2.60888 113.556 3.03056 113.556 3.47995V3.8216L112.365 4.01552V3.47995C112.365 3.18446 112.309 2.91052 112.199 2.65813C112.088 2.39958 111.937 2.17488 111.746 1.98405C111.555 1.79321 111.331 1.64239 111.072 1.53158C110.82 1.42078 110.546 1.36537 110.25 1.36537H109.512C109.216 1.36537 108.939 1.42078 108.68 1.53158C108.428 1.64239 108.203 1.79321 108.006 1.98405C107.816 2.17488 107.665 2.39958 107.554 2.65813C107.443 2.91052 107.388 3.18446 107.388 3.47995V3.72926C107.388 4.15403 107.477 4.51107 107.656 4.8004C107.834 5.08973 108.071 5.33905 108.367 5.54835C108.662 5.7515 108.994 5.93002 109.364 6.08392C109.739 6.23167 110.124 6.38556 110.518 6.54562C110.912 6.69952 111.294 6.87189 111.663 7.06272C112.039 7.2474 112.374 7.47825 112.67 7.75527C112.965 8.02613 113.202 8.35855 113.381 8.75253C113.559 9.14652 113.648 9.62668 113.648 10.193V10.5901ZM121.509 1.55005V13.6558H120.318V1.55005H117.16V0.414277H124.667V1.55005H121.509ZM135.088 3.78467H137.258L137.544 0.414277H138.662L138.375 3.78467H141.441L141.727 0.414277H142.845L142.558 3.78467H144.544V4.72653H142.466L142.087 9.34351H144.165V10.2854H141.986L141.709 13.6558H140.592L140.878 10.2854H137.812L137.526 13.6558H136.409L136.695 10.2854H134.71V9.34351H136.787L137.166 4.72653H135.088V3.78467ZM137.904 9.34351H140.97L141.349 4.72653H138.283L137.904 9.34351ZM156.163 10.5901C156.163 11.0395 156.076 11.4612 155.904 11.8551C155.738 12.2491 155.507 12.5939 155.211 12.8893C154.916 13.1848 154.571 13.4188 154.177 13.5911C153.783 13.7573 153.362 13.8404 152.912 13.8404H152.349C151.9 13.8404 151.475 13.7573 151.075 13.5911C150.681 13.4188 150.336 13.1848 150.04 12.8893C149.745 12.5939 149.511 12.2491 149.339 11.8551C149.172 11.4612 149.089 11.0395 149.089 10.5901V10.2484L150.281 10.0638V10.5901C150.281 10.8856 150.336 11.1626 150.447 11.4211C150.558 11.6735 150.708 11.8982 150.899 12.0952C151.096 12.2861 151.321 12.4369 151.573 12.5477C151.832 12.6585 152.109 12.7139 152.404 12.7139H152.857C153.152 12.7139 153.426 12.6585 153.679 12.5477C153.937 12.4369 154.162 12.2861 154.353 12.0952C154.544 11.8982 154.694 11.6735 154.805 11.4211C154.916 11.1626 154.971 10.8856 154.971 10.5901V9.49125C154.971 9.19576 154.916 8.92182 154.805 8.66943C154.694 8.41088 154.544 8.18618 154.353 7.99535C154.162 7.80451 153.937 7.65369 153.679 7.54289C153.426 7.43208 153.152 7.37668 152.857 7.37668H151.97V6.2409H152.857C153.152 6.2409 153.426 6.1855 153.679 6.07469C153.937 5.96388 154.162 5.81306 154.353 5.62222C154.544 5.43139 154.694 5.20977 154.805 4.95738C154.916 4.69883 154.971 4.42181 154.971 4.12632V3.47995C154.971 3.18446 154.916 2.91052 154.805 2.65813C154.694 2.39958 154.544 2.17488 154.353 1.98405C154.162 1.79321 153.937 1.64239 153.679 1.53158C153.426 1.42078 153.152 1.36537 152.857 1.36537H152.404C152.109 1.36537 151.832 1.42078 151.573 1.53158C151.321 1.64239 151.096 1.79321 150.899 1.98405C150.708 2.17488 150.558 2.39958 150.447 2.65813C150.336 2.91052 150.281 3.18446 150.281 3.47995V4.01552L149.089 3.8216V3.47995C149.089 3.03056 149.172 2.60888 149.339 2.2149C149.511 1.82091 149.745 1.47618 150.04 1.18069C150.336 0.885208 150.681 0.654359 151.075 0.488148C151.475 0.315781 151.9 0.229597 152.349 0.229597H152.912C153.362 0.229597 153.783 0.315781 154.177 0.488148C154.571 0.654359 154.916 0.885208 155.211 1.18069C155.507 1.47618 155.738 1.82091 155.904 2.2149C156.076 2.60888 156.163 3.03056 156.163 3.47995V3.93241C156.163 4.24637 156.119 4.54801 156.033 4.83734C155.953 5.12051 155.836 5.38522 155.682 5.63146C155.535 5.8777 155.356 6.10239 155.147 6.30554C154.938 6.50253 154.704 6.67182 154.445 6.8134C154.704 6.94884 154.938 7.11812 155.147 7.32127C155.356 7.51826 155.535 7.73988 155.682 7.98612C155.836 8.23235 155.953 8.50014 156.033 8.78947C156.119 9.07264 156.163 9.37121 156.163 9.68516V10.5901Z" fill="#004289"/>
<path d="M7.42283 11.6705L7.21247 11.5784L7.2113 11.5812L7.42283 11.6705ZM5.68684 13.4064L5.77608 13.618L5.77767 13.6173L5.68684 13.4064ZM0.229578 13.6558H-5.48363e-06V13.8853H0.229578V13.6558ZM0.229578 0.414277V0.184693H-5.48363e-06V0.414277H0.229578ZM5.68684 0.672827L5.59481 0.883198L5.59877 0.884847L5.68684 0.672827ZM7.42283 2.40881L7.21077 2.49689L7.21249 2.50083L7.42283 2.40881ZM7.5521 4.70806L7.33205 4.64252L7.33117 4.64563L7.5521 4.70806ZM7.20121 5.50218L7.00652 5.3805L7.20121 5.50218ZM6.65641 6.17626L6.81377 6.34346L6.81631 6.34101L6.65641 6.17626ZM5.95463 6.6749L5.8481 6.47152L5.45984 6.6749L5.8481 6.87827L5.95463 6.6749ZM6.65641 7.18276L6.49649 7.34753L6.49906 7.34995L6.65641 7.18276ZM7.20121 7.85684L7.00518 7.97637L7.00652 7.97852L7.20121 7.85684ZM7.5521 8.66019L7.33075 8.72142L7.33246 8.72704L7.5521 8.66019ZM6.32399 8.54015L6.11296 8.63059L6.11377 8.63244L6.32399 8.54015ZM5.86229 7.86607L5.69993 8.02843L5.70254 8.03097L5.86229 7.86607ZM5.18821 7.41361L5.09592 7.62384L5.09777 7.62463L5.18821 7.41361ZM1.42076 7.2474V7.01782H1.19117V7.2474H1.42076ZM1.42076 12.52H1.19117V12.7496H1.42076V12.52ZM5.18821 12.3538L5.09777 12.1427L5.09592 12.1436L5.18821 12.3538ZM5.86229 11.9013L5.70252 11.7364L5.69995 11.739L5.86229 11.9013ZM6.32399 11.2365L6.53421 11.3288L6.53501 11.3269L6.32399 11.2365ZM6.32399 2.85204L6.11296 2.94248L6.11377 2.94433L6.32399 2.85204ZM5.86229 2.17796L5.69731 2.33778L5.70254 2.34286L5.86229 2.17796ZM5.18821 1.71626L5.09592 1.92649L5.09777 1.92728L5.18821 1.71626ZM1.42076 1.55005V1.32047H1.19117V1.55005H1.42076ZM1.42076 6.11162H1.19117V6.34121H1.42076V6.11162ZM5.18821 5.94541L5.09777 5.73438L5.09592 5.7352L5.18821 5.94541ZM5.86229 5.49295L6.02463 5.65529L5.86229 5.49295ZM6.32399 4.81887L6.53421 4.91117L6.53501 4.90931L6.32399 4.81887ZM7.68138 10.4054H7.45179C7.45179 10.8246 7.37159 11.2148 7.21249 11.5784L7.42283 11.6705L7.63316 11.7625C7.81879 11.3382 7.91096 10.885 7.91096 10.4054H7.68138ZM7.42283 11.6705L7.2113 11.5812C7.05633 11.9485 6.84197 12.2683 6.56794 12.5423L6.73028 12.7047L6.89262 12.867C7.20956 12.5501 7.45689 12.1803 7.63436 11.7597L7.42283 11.6705ZM6.73028 12.7047L6.56794 12.5423C6.29388 12.8164 5.97061 13.0342 5.59601 13.1956L5.68684 13.4064L5.77767 13.6173C6.20335 13.4339 6.57571 13.1839 6.89262 12.867L6.73028 12.7047ZM5.68684 13.4064L5.5976 13.1949C5.23329 13.3486 4.84211 13.4262 4.42179 13.4262V13.6558V13.8853C4.90024 13.8853 5.35243 13.7967 5.77608 13.618L5.68684 13.4064ZM4.42179 13.6558V13.4262H0.229578V13.6558V13.8853H4.42179V13.6558ZM0.229578 13.6558H0.459161V0.414277H0.229578H-5.48363e-06V13.6558H0.229578ZM0.229578 0.414277V0.64386H4.42179V0.414277V0.184693H0.229578V0.414277ZM4.42179 0.414277V0.64386C4.84096 0.64386 5.23116 0.72406 5.59482 0.883162L5.68684 0.672827L5.77886 0.462492C5.35456 0.27686 4.9014 0.184693 4.42179 0.184693V0.414277ZM5.68684 0.672827L5.59877 0.884847C5.97218 1.03996 6.2945 1.25428 6.56794 1.52771L6.73028 1.36537L6.89262 1.20303C6.57508 0.885498 6.20178 0.638121 5.77491 0.460808L5.68684 0.672827ZM6.73028 1.36537L6.56794 1.52771C6.84138 1.80115 7.0557 2.12347 7.21081 2.49688L7.42283 2.40881L7.63484 2.32074C7.45753 1.89388 7.21015 1.52057 6.89262 1.20303L6.73028 1.36537ZM7.42283 2.40881L7.21249 2.50083C7.37159 2.86449 7.45179 3.25469 7.45179 3.67386H7.68138H7.91096C7.91096 3.19426 7.81879 2.74109 7.63316 2.31679L7.42283 2.40881ZM7.68138 3.67386H7.45179V3.80314H7.68138H7.91096V3.67386H7.68138ZM7.68138 3.80314H7.45179C7.45179 4.09579 7.41167 4.3753 7.33207 4.64252L7.5521 4.70806L7.77213 4.7736C7.8649 4.46217 7.91096 4.13839 7.91096 3.80314H7.68138ZM7.5521 4.70806L7.33117 4.64563C7.25697 4.9082 7.14876 5.15292 7.00652 5.3805L7.20121 5.50218L7.3959 5.62386C7.56146 5.35897 7.68718 5.07428 7.77303 4.7705L7.5521 4.70806ZM7.20121 5.50218L7.00652 5.3805C6.86249 5.61097 6.69258 5.82121 6.49651 6.01152L6.65641 6.17626L6.81631 6.34101C7.03884 6.12502 7.23214 5.88588 7.3959 5.62386L7.20121 5.50218ZM6.65641 6.17626L6.49906 6.00908C6.30521 6.19153 6.08843 6.34563 5.8481 6.47152L5.95463 6.6749L6.06116 6.87827C6.33792 6.73329 6.589 6.55498 6.81376 6.34344L6.65641 6.17626ZM5.95463 6.6749L5.8481 6.87827C6.08711 7.00346 6.30306 7.15975 6.49651 7.34751L6.65641 7.18276L6.81631 7.01802C6.59115 6.79949 6.33925 6.61719 6.06116 6.47152L5.95463 6.6749ZM6.65641 7.18276L6.49906 7.34995C6.69297 7.53245 6.86169 7.74101 7.00519 7.97636L7.20121 7.85684L7.39723 7.73732C7.23294 7.46788 7.03845 7.22705 6.81376 7.01558L6.65641 7.18276ZM7.20121 7.85684L7.00652 7.97852C7.1483 8.20536 7.2565 8.45268 7.33083 8.7214L7.5521 8.66019L7.77338 8.59899C7.68765 8.28905 7.56192 8.0008 7.3959 7.73516L7.20121 7.85684ZM7.5521 8.66019L7.33246 8.72704C7.41166 8.98727 7.45179 9.26321 7.45179 9.55589H7.68138H7.91096C7.91096 9.22066 7.8649 8.89947 7.77174 8.59335L7.5521 8.66019ZM7.68138 9.55589H7.45179V10.4054H7.68138H7.91096V9.55589H7.68138ZM6.4902 9.36197H6.71978C6.71978 9.03704 6.65868 8.7314 6.5342 8.44786L6.32399 8.54015L6.11377 8.63244C6.2109 8.85369 6.26061 9.09594 6.26061 9.36197H6.4902ZM6.32399 8.54015L6.53501 8.44972C6.41252 8.16393 6.24145 7.91374 6.02203 7.70118L5.86229 7.86607L5.70254 8.03097C5.87711 8.20008 6.01383 8.39928 6.11296 8.63059L6.32399 8.54015ZM5.86229 7.86607L6.02463 7.70373C5.81227 7.49138 5.56289 7.32441 5.27865 7.20259L5.18821 7.41361L5.09777 7.62463C5.33063 7.72443 5.53064 7.8591 5.69995 8.02841L5.86229 7.86607ZM5.18821 7.41361L5.2805 7.20339C4.99696 7.07891 4.69133 7.01782 4.36639 7.01782V7.2474V7.47698C4.63242 7.47698 4.87467 7.52669 5.09592 7.62383L5.18821 7.41361ZM4.36639 7.2474V7.01782H1.42076V7.2474V7.47698H4.36639V7.2474ZM1.42076 7.2474H1.19117V12.52H1.42076H1.65034V7.2474H1.42076ZM1.42076 12.52V12.7496H4.36639V12.52V12.2904H1.42076V12.52ZM4.36639 12.52V12.7496C4.69133 12.7496 4.99696 12.6885 5.2805 12.564L5.18821 12.3538L5.09592 12.1436C4.87467 12.2407 4.63242 12.2904 4.36639 12.2904V12.52ZM5.18821 12.3538L5.27865 12.5648C5.56289 12.443 5.81227 12.276 6.02463 12.0637L5.86229 11.9013L5.69995 11.739C5.53064 11.9083 5.33063 12.043 5.09777 12.1428L5.18821 12.3538ZM5.86229 11.9013L6.02203 12.0662C6.2405 11.8546 6.4115 11.6083 6.5342 11.3288L6.32399 11.2365L6.11377 11.1442C6.01486 11.3695 5.87806 11.5664 5.70254 11.7364L5.86229 11.9013ZM6.32399 11.2365L6.53501 11.3269C6.65867 11.0383 6.71978 10.7304 6.71978 10.4054H6.4902H6.26061C6.26061 10.6714 6.21091 10.9175 6.11296 11.146L6.32399 11.2365ZM6.4902 10.4054H6.71978V9.36197H6.4902H6.26061V10.4054H6.4902ZM6.4902 3.67386H6.71978C6.71978 3.34892 6.65868 3.04329 6.5342 2.75975L6.32399 2.85204L6.11377 2.94433C6.2109 3.16558 6.26061 3.40783 6.26061 3.67386H6.4902ZM6.32399 2.85204L6.53501 2.7616C6.41252 2.47581 6.24145 2.22562 6.02203 2.01306L5.86229 2.17796L5.70254 2.34286C5.87711 2.51197 6.01383 2.71117 6.11296 2.94248L6.32399 2.85204ZM5.86229 2.17796L6.02718 2.01822C5.81462 1.7988 5.56444 1.62772 5.27865 1.50524L5.18821 1.71626L5.09777 1.92728C5.32908 2.02642 5.52828 2.16314 5.69739 2.3377L5.86229 2.17796ZM5.18821 1.71626L5.2805 1.50605C4.99696 1.38157 4.69133 1.32047 4.36639 1.32047V1.55005V1.77964C4.63242 1.77964 4.87467 1.82935 5.09592 1.92648L5.18821 1.71626ZM4.36639 1.55005V1.32047H1.42076V1.55005V1.77964H4.36639V1.55005ZM1.42076 1.55005H1.19117V6.11162H1.42076H1.65034V1.55005H1.42076ZM1.42076 6.11162V6.34121H4.36639V6.11162V5.88204H1.42076V6.11162ZM4.36639 6.11162V6.34121C4.69133 6.34121 4.99696 6.28011 5.2805 6.15563L5.18821 5.94541L5.09592 5.7352C4.87467 5.83233 4.63242 5.88204 4.36639 5.88204V6.11162ZM5.18821 5.94541L5.27865 6.15643C5.56289 6.03462 5.81227 5.86765 6.02463 5.65529L5.86229 5.49295L5.69995 5.33061C5.53064 5.49992 5.33063 5.6346 5.09777 5.73439L5.18821 5.94541ZM5.86229 5.49295L6.02463 5.65529C6.24157 5.43835 6.4118 5.18996 6.5342 4.91116L6.32399 4.81887L6.11377 4.72658C6.01455 4.95257 5.87699 5.15357 5.69995 5.33061L5.86229 5.49295ZM6.32399 4.81887L6.53501 4.90931C6.65867 4.62075 6.71978 4.3128 6.71978 3.98782H6.4902H6.26061C6.26061 4.25381 6.21091 4.49989 6.11296 4.72843L6.32399 4.81887ZM6.4902 3.98782H6.71978V3.67386H6.4902H6.26061V3.98782H6.4902ZM19.0417 11.8551L18.8314 11.7631L18.8302 11.7659L19.0417 11.8551ZM17.315 13.5911L17.4042 13.8027L17.407 13.8015L17.315 13.5911ZM13.8338 13.5911L13.7417 13.8015L13.7457 13.8031L13.8338 13.5911ZM12.0978 11.8551L11.8862 11.9444L11.8875 11.9472L12.0978 11.8551ZM11.8485 0.414277V0.184693H11.6189V0.414277H11.8485ZM13.0397 0.414277H13.2692V0.184693H13.0397V0.414277ZM13.2059 11.4211L12.9948 11.5116L12.9956 11.5134L13.2059 11.4211ZM13.6583 12.0952L13.4933 12.255L13.4986 12.2601L13.6583 12.0952ZM14.3324 12.5477L14.2401 12.7579L14.242 12.7587L14.3324 12.5477ZM16.8163 12.5477L16.7259 12.3367L16.724 12.3375L16.8163 12.5477ZM17.4904 12.0952L17.6528 12.2576L17.6553 12.255L17.4904 12.0952ZM17.9429 11.4211L18.1531 11.5134L18.1539 11.5116L17.9429 11.4211ZM18.1091 0.414277V0.184693H17.8795V0.414277H18.1091ZM19.3003 0.414277H19.5299V0.184693H19.3003V0.414277ZM19.3003 10.5901H19.0707C19.0707 11.0093 18.9905 11.3995 18.8314 11.7631L19.0417 11.8551L19.2521 11.9472C19.4377 11.5229 19.5299 11.0697 19.5299 10.5901H19.3003ZM19.0417 11.8551L18.8302 11.7659C18.6752 12.1332 18.4609 12.453 18.1868 12.727L18.3492 12.8893L18.5115 13.0517C18.8285 12.7347 19.0758 12.365 19.2533 11.9444L19.0417 11.8551ZM18.3492 12.8893L18.1868 12.727C17.9122 13.0017 17.5915 13.2196 17.223 13.3808L17.315 13.5911L17.407 13.8015C17.8264 13.618 18.1952 13.368 18.5115 13.0517L18.3492 12.8893ZM17.315 13.5911L17.2257 13.3796C16.8614 13.5333 16.4702 13.6109 16.0499 13.6109V13.8404V14.07C16.5284 14.07 16.9806 13.9814 17.4042 13.8027L17.315 13.5911ZM16.0499 13.8404V13.6109H15.1081V13.8404V14.07H16.0499V13.8404ZM15.1081 13.8404V13.6109C14.6878 13.6109 14.293 13.5333 13.9218 13.3791L13.8338 13.5911L13.7457 13.8031C14.1748 13.9814 14.6296 14.07 15.1081 14.07V13.8404ZM13.8338 13.5911L13.9258 13.3808C13.5573 13.2196 13.2366 13.0017 12.9619 12.727L12.7996 12.8893L12.6372 13.0517C12.9536 13.368 13.3223 13.618 13.7418 13.8015L13.8338 13.5911ZM12.7996 12.8893L12.9619 12.727C12.6873 12.4524 12.4694 12.1317 12.3081 11.7631L12.0978 11.8551L11.8875 11.9472C12.071 12.3666 12.3209 12.7354 12.6372 13.0517L12.7996 12.8893ZM12.0978 11.8551L12.3093 11.7659C12.1556 11.4016 12.0781 11.0104 12.0781 10.5901H11.8485H11.6189C11.6189 11.0685 11.7075 11.5207 11.8863 11.9444L12.0978 11.8551ZM11.8485 10.5901H12.0781V0.414277H11.8485H11.6189V10.5901H11.8485ZM11.8485 0.414277V0.64386H13.0397V0.414277V0.184693H11.8485V0.414277ZM13.0397 0.414277H12.8101V10.5901H13.0397H13.2692V0.414277H13.0397ZM13.0397 10.5901H12.8101C12.8101 10.9151 12.8712 11.223 12.9948 11.5116L13.2059 11.4211L13.4169 11.3307C13.3189 11.1022 13.2692 10.8561 13.2692 10.5901H13.0397ZM13.2059 11.4211L12.9956 11.5134C13.1174 11.7907 13.2835 12.0383 13.4934 12.255L13.6583 12.0952L13.8232 11.9355C13.6515 11.7582 13.516 11.5564 13.4161 11.3289L13.2059 11.4211ZM13.6583 12.0952L13.4986 12.2601C13.7153 12.4701 13.9628 12.6362 14.2401 12.7579L14.3324 12.5477L14.4247 12.3375C14.1972 12.2376 13.9954 12.1021 13.8181 11.9303L13.6583 12.0952ZM14.3324 12.5477L14.242 12.7587C14.5305 12.8824 14.8385 12.9435 15.1635 12.9435V12.7139V12.4843C14.8975 12.4843 14.6514 12.4346 14.4228 12.3367L14.3324 12.5477ZM15.1635 12.7139V12.9435H15.9945V12.7139V12.4843H15.1635V12.7139ZM15.9945 12.7139V12.9435C16.3195 12.9435 16.6251 12.8824 16.9086 12.7579L16.8163 12.5477L16.724 12.3375C16.5028 12.4346 16.2606 12.4843 15.9945 12.4843V12.7139ZM16.8163 12.5477L16.9068 12.7587C17.191 12.6369 17.4404 12.4699 17.6528 12.2576L17.4904 12.0952L17.3281 11.9329C17.1588 12.1022 16.9588 12.2369 16.7259 12.3367L16.8163 12.5477ZM17.4904 12.0952L17.6553 12.255C17.8652 12.0383 18.0314 11.7907 18.1531 11.5134L17.9429 11.4211L17.7327 11.3289C17.6328 11.5564 17.4973 11.7582 17.3255 11.9355L17.4904 12.0952ZM17.9429 11.4211L18.1539 11.5116C18.2776 11.223 18.3387 10.9151 18.3387 10.5901H18.1091H17.8795C17.8795 10.8561 17.8298 11.1022 17.7319 11.3307L17.9429 11.4211ZM18.1091 10.5901H18.3387V0.414277H18.1091H17.8795V10.5901H18.1091ZM18.1091 0.414277V0.64386H19.3003V0.414277V0.184693H18.1091V0.414277ZM19.3003 0.414277H19.0707V10.5901H19.3003H19.5299V0.414277H19.3003ZM24.2246 13.6558H23.995V13.8853H24.2246V13.6558ZM24.2246 0.414277V0.184693H23.995V0.414277H24.2246ZM25.4157 0.414277H25.6453V0.184693H25.4157V0.414277ZM25.4157 13.6558V13.8853H25.6453V13.6558H25.4157ZM24.2246 13.6558H24.4541V0.414277H24.2246H23.995V13.6558H24.2246ZM24.2246 0.414277V0.64386H25.4157V0.414277V0.184693H24.2246V0.414277ZM25.4157 0.414277H25.1861V13.6558H25.4157H25.6453V0.414277H25.4157ZM25.4157 13.6558V13.4262H24.2246V13.6558V13.8853H25.4157V13.6558ZM37.7272 11.6705L37.5168 11.5784L37.5156 11.5812L37.7272 11.6705ZM35.9912 13.4064L36.0804 13.618L36.082 13.6173L35.9912 13.4064ZM30.5339 13.6558H30.3043V13.8853H30.5339V13.6558ZM30.5339 0.414277V0.184693H30.3043V0.414277H30.5339ZM35.9912 0.672827L35.8992 0.883198L35.9031 0.884847L35.9912 0.672827ZM37.7272 2.40881L37.5151 2.49689L37.5168 2.50083L37.7272 2.40881ZM36.6283 2.85204L36.4173 2.94248L36.4181 2.94433L36.6283 2.85204ZM36.1666 2.17796L36.0017 2.33778L36.0069 2.34286L36.1666 2.17796ZM35.4926 1.71626L35.4003 1.92649L35.4021 1.92728L35.4926 1.71626ZM31.7251 1.55005V1.32047H31.4955V1.55005H31.7251ZM31.7251 12.52H31.4955V12.7496H31.7251V12.52ZM35.4926 12.3538L35.4021 12.1427L35.4003 12.1436L35.4926 12.3538ZM36.1666 11.9013L36.0069 11.7364L36.0043 11.739L36.1666 11.9013ZM36.6283 11.2365L36.8386 11.3288L36.8394 11.3269L36.6283 11.2365ZM37.9857 10.4054H37.7561C37.7561 10.8246 37.6759 11.2148 37.5168 11.5784L37.7272 11.6705L37.9375 11.7625C38.1231 11.3382 38.2153 10.885 38.2153 10.4054H37.9857ZM37.7272 11.6705L37.5156 11.5812C37.3607 11.9485 37.1463 12.2683 36.8723 12.5423L37.0346 12.7047L37.197 12.867C37.5139 12.5501 37.7612 12.1803 37.9387 11.7597L37.7272 11.6705ZM37.0346 12.7047L36.8723 12.5423C36.5982 12.8164 36.275 13.0342 35.9004 13.1956L35.9912 13.4064L36.082 13.6173C36.5077 13.4339 36.8801 13.1839 37.197 12.867L37.0346 12.7047ZM35.9912 13.4064L35.902 13.1949C35.5376 13.3486 35.1465 13.4262 34.7261 13.4262V13.6558V13.8853C35.2046 13.8853 35.6568 13.7967 36.0804 13.618L35.9912 13.4064ZM34.7261 13.6558V13.4262H30.5339V13.6558V13.8853H34.7261V13.6558ZM30.5339 13.6558H30.7635V0.414277H30.5339H30.3043V13.6558H30.5339ZM30.5339 0.414277V0.64386H34.7261V0.414277V0.184693H30.5339V0.414277ZM34.7261 0.414277V0.64386C35.1453 0.64386 35.5355 0.72406 35.8992 0.883162L35.9912 0.672827L36.0832 0.462492C35.6589 0.27686 35.2057 0.184693 34.7261 0.184693V0.414277ZM35.9912 0.672827L35.9031 0.884847C36.2765 1.03996 36.5989 1.25428 36.8723 1.52771L37.0346 1.36537L37.197 1.20303C36.8794 0.885498 36.5061 0.638121 36.0793 0.460808L35.9912 0.672827ZM37.0346 1.36537L36.8723 1.52771C37.1457 1.80115 37.36 2.12347 37.5152 2.49688L37.7272 2.40881L37.9392 2.32074C37.7619 1.89388 37.5145 1.52057 37.197 1.20303L37.0346 1.36537ZM37.7272 2.40881L37.5168 2.50083C37.6759 2.86449 37.7561 3.25469 37.7561 3.67386H37.9857H38.2153C38.2153 3.19426 38.1231 2.74109 37.9375 2.31679L37.7272 2.40881ZM37.9857 3.67386H37.7561V10.4054H37.9857H38.2153V3.67386H37.9857ZM36.7945 3.67386H37.0241C37.0241 3.34892 36.963 3.04329 36.8386 2.75975L36.6283 2.85204L36.4181 2.94433C36.5153 3.16558 36.565 3.40783 36.565 3.67386H36.7945ZM36.6283 2.85204L36.8394 2.7616C36.7169 2.47581 36.5458 2.22562 36.3264 2.01306L36.1666 2.17796L36.0069 2.34286C36.1815 2.51197 36.3182 2.71117 36.4173 2.94248L36.6283 2.85204ZM36.1666 2.17796L36.3315 2.01822C36.119 1.7988 35.8688 1.62772 35.583 1.50524L35.4926 1.71626L35.4021 1.92728C35.6334 2.02642 35.8326 2.16314 36.0017 2.3377L36.1666 2.17796ZM35.4926 1.71626L35.5848 1.50605C35.3013 1.38157 34.9957 1.32047 34.6707 1.32047V1.55005V1.77964C34.9368 1.77964 35.179 1.82935 35.4003 1.92648L35.4926 1.71626ZM34.6707 1.55005V1.32047H31.7251V1.55005V1.77964H34.6707V1.55005ZM31.7251 1.55005H31.4955V12.52H31.7251H31.9547V1.55005H31.7251ZM31.7251 12.52V12.7496H34.6707V12.52V12.2904H31.7251V12.52ZM34.6707 12.52V12.7496C34.9957 12.7496 35.3013 12.6885 35.5848 12.564L35.4926 12.3538L35.4003 12.1436C35.179 12.2407 34.9368 12.2904 34.6707 12.2904V12.52ZM35.4926 12.3538L35.583 12.5648C35.8672 12.443 36.1166 12.276 36.329 12.0637L36.1666 11.9013L36.0043 11.739C35.835 11.9083 35.635 12.043 35.4021 12.1428L35.4926 12.3538ZM36.1666 11.9013L36.3264 12.0662C36.5448 11.8546 36.7158 11.6083 36.8386 11.3288L36.6283 11.2365L36.4181 11.1442C36.3192 11.3695 36.1824 11.5664 36.0069 11.7364L36.1666 11.9013ZM36.6283 11.2365L36.8394 11.3269C36.963 11.0383 37.0241 10.7304 37.0241 10.4054H36.7945H36.565C36.565 10.6714 36.5153 10.9175 36.4173 11.146L36.6283 11.2365ZM36.7945 10.4054H37.0241V3.67386H36.7945H36.565V10.4054H36.7945ZM42.7069 13.6558H42.4773V13.8853H42.7069V13.6558ZM42.7069 0.414277V0.184693H42.4773V0.414277H42.7069ZM43.898 0.414277H44.1276V0.184693H43.898V0.414277ZM43.898 12.52H43.6685V12.7496H43.898V12.52ZM48.9675 12.52H49.1971V12.2904H48.9675V12.52ZM48.9675 13.6558V13.8853H49.1971V13.6558H48.9675ZM42.7069 13.6558H42.9364V0.414277H42.7069H42.4773V13.6558H42.7069ZM42.7069 0.414277V0.64386H43.898V0.414277V0.184693H42.7069V0.414277ZM43.898 0.414277H43.6685V12.52H43.898H44.1276V0.414277H43.898ZM43.898 12.52V12.7496H48.9675V12.52V12.2904H43.898V12.52ZM48.9675 12.52H48.7379V13.6558H48.9675H49.1971V12.52H48.9675ZM48.9675 13.6558V13.4262H42.7069V13.6558V13.8853H48.9675V13.6558ZM52.9407 13.6558H52.7111V13.8853H52.9407V13.6558ZM52.9407 0.414277V0.184693H52.7111V0.414277H52.9407ZM60.3925 0.414277H60.622V0.184693H60.3925V0.414277ZM60.3925 1.55005V1.77964H60.622V1.55005H60.3925ZM54.1318 1.55005V1.32047H53.9023V1.55005H54.1318ZM54.1318 6.47175H53.9023V6.70133H54.1318V6.47175ZM59.2013 6.47175H59.4309V6.24216H59.2013V6.47175ZM59.2013 7.60752V7.83711H59.4309V7.60752H59.2013ZM54.1318 7.60752V7.37794H53.9023V7.60752H54.1318ZM54.1318 12.52H53.9023V12.7496H54.1318V12.52ZM60.3925 12.52H60.622V12.2904H60.3925V12.52ZM60.3925 13.6558V13.8853H60.622V13.6558H60.3925ZM52.9407 13.6558H53.1702V0.414277H52.9407H52.7111V13.6558H52.9407ZM52.9407 0.414277V0.64386H60.3925V0.414277V0.184693H52.9407V0.414277ZM60.3925 0.414277H60.1629V1.55005H60.3925H60.622V0.414277H60.3925ZM60.3925 1.55005V1.32047H54.1318V1.55005V1.77964H60.3925V1.55005ZM54.1318 1.55005H53.9023V6.47175H54.1318H54.3614V1.55005H54.1318ZM54.1318 6.47175V6.70133H59.2013V6.47175V6.24216H54.1318V6.47175ZM59.2013 6.47175H58.9717V7.60752H59.2013H59.4309V6.47175H59.2013ZM59.2013 7.60752V7.37794H54.1318V7.60752V7.83711H59.2013V7.60752ZM54.1318 7.60752H53.9023V12.52H54.1318H54.3614V7.60752H54.1318ZM54.1318 12.52V12.7496H60.3925V12.52V12.2904H54.1318V12.52ZM60.3925 12.52H60.1629V13.6558H60.3925H60.622V12.52H60.3925ZM60.3925 13.6558V13.4262H52.9407V13.6558V13.8853H60.3925V13.6558ZM70.9772 13.6558L70.7834 13.7789L70.8511 13.8853H70.9772V13.6558ZM67.3851 8.00458L67.5789 7.88143L67.5113 7.775H67.3851V8.00458ZM65.7507 8.00458V7.775H65.5212V8.00458H65.7507ZM65.7507 13.6558V13.8853H65.9803V13.6558H65.7507ZM64.5596 13.6558H64.33V13.8853H64.5596V13.6558ZM64.5596 0.414277V0.184693H64.33V0.414277H64.5596ZM70.0261 0.672827L69.934 0.88318L69.9368 0.884357L70.0261 0.672827ZM71.7528 2.40881L71.5407 2.49689L71.5425 2.50083L71.7528 2.40881ZM71.7528 6.01928L71.5419 5.92845L71.5413 5.93005L71.7528 6.01928ZM70.0261 7.75527L70.1153 7.96682L70.1181 7.9656L70.0261 7.75527ZM68.761 8.00458V7.775H68.343L68.5673 8.12774L68.761 8.00458ZM72.353 13.6558V13.8853H72.771L72.5468 13.5326L72.353 13.6558ZM70.654 2.85204L70.4429 2.94248L70.4437 2.94433L70.654 2.85204ZM70.2015 2.17796L70.0366 2.33772L70.0392 2.3403L70.2015 2.17796ZM69.5274 1.71626L69.4351 1.92649L69.437 1.92728L69.5274 1.71626ZM65.7507 1.55005V1.32047H65.5212V1.55005H65.7507ZM65.7507 6.86881H65.5212V7.09839H65.7507V6.86881ZM69.5274 6.7026L69.437 6.49157L69.4351 6.49238L69.5274 6.7026ZM70.2015 6.25013L70.3639 6.41249L70.3664 6.40988L70.2015 6.25013ZM70.654 5.57605L70.8642 5.66835L70.865 5.66649L70.654 5.57605ZM70.9772 13.6558L71.1709 13.5326L67.5789 7.88143L67.3851 8.00458L67.1914 8.12774L70.7834 13.7789L70.9772 13.6558ZM67.3851 8.00458V7.775H65.7507V8.00458V8.23417H67.3851V8.00458ZM65.7507 8.00458H65.5212V13.6558H65.7507H65.9803V8.00458H65.7507ZM65.7507 13.6558V13.4262H64.5596V13.6558V13.8853H65.7507V13.6558ZM64.5596 13.6558H64.7891V0.414277H64.5596H64.33V13.6558H64.5596ZM64.5596 0.414277V0.64386H68.761V0.414277V0.184693H64.5596V0.414277ZM68.761 0.414277V0.64386C69.1802 0.64386 69.5704 0.72406 69.934 0.883162L70.0261 0.672827L70.1181 0.462492C69.6938 0.27686 69.2406 0.184693 68.761 0.184693V0.414277ZM70.0261 0.672827L69.9368 0.884357C70.3041 1.03932 70.6239 1.25368 70.8979 1.52771L71.0603 1.36537L71.2226 1.20303C70.9057 0.886091 70.5359 0.638757 70.1153 0.461297L70.0261 0.672827ZM71.0603 1.36537L70.8979 1.52771C71.1714 1.80115 71.3857 2.12347 71.5408 2.49688L71.7528 2.40881L71.9648 2.32074C71.7875 1.89388 71.5401 1.52057 71.2226 1.20303L71.0603 1.36537ZM71.7528 2.40881L71.5425 2.50083C71.7016 2.86449 71.7818 3.25469 71.7818 3.67386H72.0114H72.2409C72.2409 3.19426 72.1488 2.74109 71.9631 2.31679L71.7528 2.40881ZM72.0114 3.67386H71.7818V4.745H72.0114H72.2409V3.67386H72.0114ZM72.0114 4.745H71.7818C71.7818 5.16416 71.7016 5.55791 71.542 5.92846L71.7528 6.01928L71.9637 6.11011C72.1488 5.68038 72.2409 5.22461 72.2409 4.745H72.0114ZM71.7528 6.01928L71.5413 5.93005C71.3863 6.29736 71.172 6.61712 70.8979 6.89115L71.0603 7.05349L71.2226 7.21583C71.5395 6.89888 71.7869 6.52917 71.9643 6.10852L71.7528 6.01928ZM71.0603 7.05349L70.8979 6.89115C70.6233 7.1658 70.3026 7.3837 69.934 7.54493L70.0261 7.75527L70.1181 7.9656C70.5375 7.7821 70.9063 7.53215 71.2226 7.21583L71.0603 7.05349ZM70.0261 7.75527L69.9368 7.54374C69.5725 7.69743 69.1813 7.775 68.761 7.775V8.00458V8.23417C69.2395 8.23417 69.6916 8.14553 70.1153 7.9668L70.0261 7.75527ZM68.761 8.00458L68.5673 8.12774L72.1593 13.7789L72.353 13.6558L72.5468 13.5326L68.9548 7.88143L68.761 8.00458ZM72.353 13.6558V13.4262H70.9772V13.6558V13.8853H72.353V13.6558ZM70.8202 3.67386H71.0498C71.0498 3.34892 70.9887 3.04329 70.8642 2.75975L70.654 2.85204L70.4437 2.94433C70.5409 3.16558 70.5906 3.40783 70.5906 3.67386H70.8202ZM70.654 2.85204L70.865 2.7616C70.7432 2.47736 70.5762 2.22798 70.3638 2.01562L70.2015 2.17796L70.0392 2.3403C70.2085 2.50961 70.3431 2.70962 70.4429 2.94248L70.654 2.85204ZM70.2015 2.17796L70.3664 2.01822C70.1538 1.7988 69.9037 1.62772 69.6179 1.50524L69.5274 1.71626L69.437 1.92728C69.6683 2.02642 69.8675 2.16314 70.0366 2.3377L70.2015 2.17796ZM69.5274 1.71626L69.6197 1.50605C69.3362 1.38157 69.0305 1.32047 68.7056 1.32047V1.55005V1.77964C68.9716 1.77964 69.2139 1.82935 69.4351 1.92648L69.5274 1.71626ZM68.7056 1.55005V1.32047H65.7507V1.55005V1.77964H68.7056V1.55005ZM65.7507 1.55005H65.5212V6.86881H65.7507H65.9803V1.55005H65.7507ZM65.7507 6.86881V7.09839H68.7056V6.86881V6.63923H65.7507V6.86881ZM68.7056 6.86881V7.09839C69.0305 7.09839 69.3362 7.03729 69.6197 6.91281L69.5274 6.7026L69.4351 6.49238C69.2139 6.58951 68.9716 6.63923 68.7056 6.63923V6.86881ZM69.5274 6.7026L69.6179 6.91362C69.9021 6.7918 70.1515 6.62483 70.3638 6.41247L70.2015 6.25013L70.0392 6.08779C69.8699 6.25711 69.6698 6.39178 69.437 6.49158L69.5274 6.7026ZM70.2015 6.25013L70.3664 6.40988C70.5763 6.19317 70.7425 5.94561 70.8642 5.66835L70.654 5.57605L70.4437 5.48376C70.3439 5.71129 70.2084 5.91311 70.0366 6.09039L70.2015 6.25013ZM70.654 5.57605L70.865 5.66649C70.9887 5.37793 71.0498 5.06998 71.0498 4.745H70.8202H70.5906C70.5906 5.01099 70.5409 5.25708 70.4429 5.48562L70.654 5.57605ZM70.8202 4.745H71.0498V3.67386H70.8202H70.5906V4.745H70.8202ZM84.3439 1.55005V1.32047H84.1143V1.55005H84.3439ZM84.3439 6.47175H84.1143V6.70133H84.3439V6.47175ZM89.4133 6.47175H89.6429V6.24216H89.4133V6.47175ZM89.4133 7.60752V7.83711H89.6429V7.60752H89.4133ZM84.3439 7.60752V7.37794H84.1143V7.60752H84.3439ZM84.3439 13.6558V13.8853H84.5734V13.6558H84.3439ZM83.1527 13.6558H82.9231V13.8853H83.1527V13.6558ZM83.1527 0.414277V0.184693H82.9231V0.414277H83.1527ZM90.6045 0.414277H90.8341V0.184693H90.6045V0.414277ZM90.6045 1.55005V1.77964H90.8341V1.55005H90.6045ZM84.3439 1.55005H84.1143V6.47175H84.3439H84.5734V1.55005H84.3439ZM84.3439 6.47175V6.70133H89.4133V6.47175V6.24216H84.3439V6.47175ZM89.4133 6.47175H89.1837V7.60752H89.4133H89.6429V6.47175H89.4133ZM89.4133 7.60752V7.37794H84.3439V7.60752V7.83711H89.4133V7.60752ZM84.3439 7.60752H84.1143V13.6558H84.3439H84.5734V7.60752H84.3439ZM84.3439 13.6558V13.4262H83.1527V13.6558V13.8853H84.3439V13.6558ZM83.1527 13.6558H83.3823V0.414277H83.1527H82.9231V13.6558H83.1527ZM83.1527 0.414277V0.64386H90.6045V0.414277V0.184693H83.1527V0.414277ZM90.6045 0.414277H90.3749V1.55005H90.6045H90.8341V0.414277H90.6045ZM90.6045 1.55005V1.32047H84.3439V1.55005V1.77964H90.6045V1.55005ZM94.5777 13.6558H94.3481V13.8853H94.5777V13.6558ZM94.5777 0.414277V0.184693H94.3481V0.414277H94.5777ZM102.029 0.414277H102.259V0.184693H102.029V0.414277ZM102.029 1.55005V1.77964H102.259V1.55005H102.029ZM95.7688 1.55005V1.32047H95.5393V1.55005H95.7688ZM95.7688 6.47175H95.5393V6.70133H95.7688V6.47175ZM100.838 6.47175H101.068V6.24216H100.838V6.47175ZM100.838 7.60752V7.83711H101.068V7.60752H100.838ZM95.7688 7.60752V7.37794H95.5393V7.60752H95.7688ZM95.7688 12.52H95.5393V12.7496H95.7688V12.52ZM102.029 12.52H102.259V12.2904H102.029V12.52ZM102.029 13.6558V13.8853H102.259V13.6558H102.029ZM94.5777 13.6558H94.8072V0.414277H94.5777H94.3481V13.6558H94.5777ZM94.5777 0.414277V0.64386H102.029V0.414277V0.184693H94.5777V0.414277ZM102.029 0.414277H101.8V1.55005H102.029H102.259V0.414277H102.029ZM102.029 1.55005V1.32047H95.7688V1.55005V1.77964H102.029V1.55005ZM95.7688 1.55005H95.5393V6.47175H95.7688H95.9984V1.55005H95.7688ZM95.7688 6.47175V6.70133H100.838V6.47175V6.24216H95.7688V6.47175ZM100.838 6.47175H100.609V7.60752H100.838H101.068V6.47175H100.838ZM100.838 7.60752V7.37794H95.7688V7.60752V7.83711H100.838V7.60752ZM95.7688 7.60752H95.5393V12.52H95.7688H95.9984V7.60752H95.7688ZM95.7688 12.52V12.7496H102.029V12.52V12.2904H95.7688V12.52ZM102.029 12.52H101.8V13.6558H102.029H102.259V12.52H102.029ZM102.029 13.6558V13.4262H94.5777V13.6558V13.8853H102.029V13.6558ZM113.371 11.8551L113.163 11.7577L113.162 11.7604L113.371 11.8551ZM112.642 12.8893L112.483 12.7237L112.481 12.7253L112.642 12.8893ZM111.58 13.5911L111.668 13.8032L111.67 13.8025L111.58 13.5911ZM108.071 13.5911L107.98 13.802L107.984 13.8036L108.071 13.5911ZM107.009 12.8893L106.848 13.0534L106.85 13.055L107.009 12.8893ZM106.28 11.8551L106.071 11.9499L106.072 11.9526L106.28 11.8551ZM106.012 10.0638L105.975 9.83715L105.782 9.86852V10.0638H106.012ZM107.203 9.86984H107.433V9.59986L107.166 9.64324L107.203 9.86984ZM107.379 11.4211L107.169 11.5158L107.172 11.5218L107.379 11.4211ZM107.868 12.0952L107.708 12.2601L107.711 12.2626L107.868 12.0952ZM108.57 12.5477L108.481 12.7595L108.483 12.7602L108.57 12.5477ZM111.792 12.0952L111.95 12.2626L111.952 12.26L111.792 12.0952ZM112.272 11.4211L112.065 11.3224L112.064 11.3246L112.272 11.4211ZM112.189 9.05725L112.387 8.94032L112.189 9.05725ZM111.478 8.29084L111.343 8.47636L111.346 8.47818L111.478 8.29084ZM110.472 7.74603L110.387 7.9592L110.388 7.95968L110.472 7.74603ZM108.173 6.8134L108.073 7.02011L108.074 7.02075L108.173 6.8134ZM107.175 6.14856L107.02 6.31781L107.022 6.31956L107.175 6.14856ZM106.446 2.2149L106.236 2.12287L106.234 2.12566L106.446 2.2149ZM108.182 0.488148L108.271 0.699684L108.273 0.699L108.182 0.488148ZM111.571 0.488148L111.479 0.698501L111.481 0.699678L111.571 0.488148ZM113.297 2.2149L113.086 2.30414L113.087 2.30692L113.297 2.2149ZM113.556 3.8216L113.593 4.0482L113.786 4.01684V3.8216H113.556ZM112.365 4.01552H112.135V4.2855L112.402 4.24212L112.365 4.01552ZM112.199 2.65813L111.988 2.74857L111.988 2.75042L112.199 2.65813ZM111.072 1.53158L110.98 1.74181L110.982 1.7426L111.072 1.53158ZM108.68 1.53158L108.59 1.32056L108.588 1.32137L108.68 1.53158ZM108.006 1.98405L107.847 1.81913L107.844 1.82171L108.006 1.98405ZM107.554 2.65813L107.764 2.75042L107.765 2.74856L107.554 2.65813ZM108.367 5.54835L108.234 5.73572L108.236 5.73754L108.367 5.54835ZM109.364 6.08392L109.275 6.29589L109.28 6.29756L109.364 6.08392ZM110.518 6.54562L110.432 6.75834L110.435 6.75947L110.518 6.54562ZM111.663 7.06272L111.558 7.26673L111.562 7.26874L111.663 7.06272ZM112.67 7.75527L112.513 7.92277L112.514 7.92451L112.67 7.75527ZM113.381 8.75253L113.59 8.65778L113.381 8.75253ZM113.648 10.5901H113.419C113.419 11.0069 113.333 11.3952 113.163 11.7577L113.371 11.8551L113.579 11.9526C113.779 11.5271 113.878 11.072 113.878 10.5901H113.648ZM113.371 11.8551L113.162 11.7604C112.996 12.1281 112.769 12.4487 112.483 12.7237L112.642 12.8893L112.801 13.055C113.13 12.739 113.39 12.3701 113.58 11.9499L113.371 11.8551ZM112.642 12.8893L112.481 12.7253C112.201 12.9998 111.871 13.2181 111.49 13.3798L111.58 13.5911L111.67 13.8025C112.101 13.6194 112.479 13.3698 112.803 13.0533L112.642 12.8893ZM111.58 13.5911L111.492 13.3791C111.121 13.5333 110.726 13.6109 110.306 13.6109V13.8404V14.07C110.784 14.07 111.239 13.9814 111.668 13.8031L111.58 13.5911ZM110.306 13.8404V13.6109H109.355V13.8404V14.07H110.306V13.8404ZM109.355 13.8404V13.6109C108.934 13.6109 108.536 13.5333 108.158 13.3786L108.071 13.5911L107.984 13.8036C108.419 13.9814 108.876 14.07 109.355 14.07V13.8404ZM108.071 13.5911L108.162 13.3803C107.786 13.2185 107.456 12.9998 107.168 12.7237L107.009 12.8893L106.85 13.055C107.178 13.3699 107.555 13.619 107.98 13.802L108.071 13.5911ZM107.009 12.8893L107.17 12.7253C106.888 12.4496 106.661 12.1276 106.488 11.7577L106.28 11.8551L106.072 11.9526C106.268 12.3706 106.527 12.7381 106.848 13.0533L107.009 12.8893ZM106.28 11.8551L106.489 11.7604C106.324 11.3973 106.241 11.0081 106.241 10.5901H106.012H105.782C105.782 11.0709 105.878 11.525 106.071 11.9499L106.28 11.8551ZM106.012 10.5901H106.241V10.0638H106.012H105.782V10.5901H106.012ZM106.012 10.0638L106.049 10.2904L107.24 10.0964L107.203 9.86984L107.166 9.64324L105.975 9.83715L106.012 10.0638ZM107.203 9.86984H106.973V10.5901H107.203H107.433V9.86984H107.203ZM107.203 10.5901H106.973C106.973 10.9168 107.038 11.2263 107.169 11.5158L107.379 11.4211L107.588 11.3265C107.485 11.0989 107.433 10.8543 107.433 10.5901H107.203ZM107.379 11.4211L107.172 11.5218C107.307 11.7983 107.486 12.0447 107.708 12.26L107.868 12.0952L108.028 11.9304C107.844 11.7518 107.696 11.5488 107.585 11.3205L107.379 11.4211ZM107.868 12.0952L107.711 12.2626C107.934 12.4727 108.192 12.6384 108.481 12.7595L108.57 12.5477L108.658 12.3359C108.418 12.2354 108.208 12.0994 108.025 11.9279L107.868 12.0952ZM108.57 12.5477L108.483 12.7602C108.781 12.8824 109.094 12.9435 109.419 12.9435V12.7139V12.4843C109.153 12.4843 108.9 12.4346 108.657 12.3352L108.57 12.5477ZM109.419 12.7139V12.9435H110.25V12.7139V12.4843H109.419V12.7139ZM110.25 12.7139V12.9435C110.575 12.9435 110.886 12.8824 111.179 12.7595L111.091 12.5477L111.002 12.3359C110.766 12.4346 110.516 12.4843 110.25 12.4843V12.7139ZM111.091 12.5477L111.179 12.7595C111.468 12.6384 111.726 12.4727 111.95 12.2626L111.792 12.0952L111.635 11.9279C111.453 12.0994 111.242 12.2354 111.002 12.3359L111.091 12.5477ZM111.792 12.0952L111.952 12.26C112.175 12.0438 112.352 11.7961 112.481 11.5177L112.272 11.4211L112.064 11.3246C111.959 11.551 111.816 11.7527 111.633 11.9304L111.792 12.0952ZM112.272 11.4211L112.48 11.5199C112.618 11.2295 112.687 10.9186 112.687 10.5901H112.457H112.228C112.228 10.8525 112.173 11.0957 112.065 11.3224L112.272 11.4211ZM112.457 10.5901H112.687V10.193H112.457H112.228V10.5901H112.457ZM112.457 10.193H112.687C112.687 9.7084 112.592 9.28647 112.387 8.94032L112.189 9.05725L111.992 9.17419C112.144 9.43132 112.228 9.76658 112.228 10.193H112.457ZM112.189 9.05725L112.387 8.94032C112.191 8.60998 111.932 8.33081 111.611 8.10349L111.478 8.29084L111.346 8.47818C111.616 8.66947 111.83 8.90124 111.992 9.17419L112.189 9.05725ZM111.478 8.29084L111.614 8.10533C111.301 7.87723 110.948 7.68656 110.556 7.53239L110.472 7.74603L110.388 7.95968C110.747 8.10099 111.065 8.27352 111.343 8.47634L111.478 8.29084ZM110.472 7.74603L110.557 7.53287C110.186 7.38448 109.803 7.23613 109.407 7.08784L109.327 7.3028L109.246 7.51777C109.639 7.66496 110.019 7.81211 110.387 7.9592L110.472 7.74603ZM109.327 7.3028L109.407 7.08784C109.02 6.94235 108.641 6.78176 108.271 6.60606L108.173 6.8134L108.074 7.02075C108.456 7.2021 108.846 7.36777 109.246 7.51777L109.327 7.3028ZM108.173 6.8134L108.273 6.6067C107.922 6.4372 107.607 6.22745 107.329 5.97756L107.175 6.14856L107.022 6.31956C107.334 6.59909 107.685 6.83256 108.073 7.02011L108.173 6.8134ZM107.175 6.14856L107.33 5.97932C107.059 5.7304 106.839 5.42646 106.673 5.06453L106.464 5.16053L106.256 5.25653C106.446 5.67024 106.701 6.025 107.02 6.3178L107.175 6.14856ZM106.464 5.16053L106.673 5.06453C106.512 4.71494 106.426 4.27278 106.426 3.72927H106.197H105.967C105.967 4.31845 106.06 4.83046 106.256 5.25653L106.464 5.16053ZM106.197 3.72927H106.426V3.47995H106.197H105.967V3.72927H106.197ZM106.197 3.47995H106.426C106.426 3.05963 106.504 2.66845 106.657 2.30414L106.446 2.2149L106.234 2.12566C106.056 2.54931 105.967 3.0015 105.967 3.47995H106.197ZM106.446 2.2149L106.656 2.30692C106.817 1.93839 107.035 1.61769 107.31 1.34303L107.148 1.18069L106.985 1.01835C106.669 1.33467 106.419 1.70344 106.236 2.12288L106.446 2.2149ZM107.148 1.18069L107.31 1.34303C107.584 1.069 107.904 0.85464 108.271 0.699678L108.182 0.488148L108.093 0.276618C107.672 0.454078 107.302 0.701412 106.985 1.01835L107.148 1.18069ZM108.182 0.488148L108.273 0.699C108.643 0.539382 109.037 0.459181 109.456 0.459181V0.229598V1.43051e-05C108.977 1.43051e-05 108.521 0.0921798 108.091 0.277296L108.182 0.488148ZM109.456 0.229598V0.459181H110.306V0.229598V1.43051e-05H109.456V0.229598ZM110.306 0.229598V0.459181C110.725 0.459181 111.115 0.539382 111.479 0.698483L111.571 0.488148L111.663 0.277813C111.238 0.0921807 110.785 1.43051e-05 110.306 1.43051e-05V0.229598ZM111.571 0.488148L111.481 0.699678C111.849 0.85464 112.169 1.069 112.443 1.34303L112.605 1.18069L112.767 1.01835C112.45 0.701412 112.081 0.454078 111.66 0.276618L111.571 0.488148ZM112.605 1.18069L112.443 1.34303C112.717 1.61706 112.931 1.93682 113.086 2.30414L113.297 2.2149L113.509 2.12566C113.332 1.70501 113.084 1.3353 112.767 1.01835L112.605 1.18069ZM113.297 2.2149L113.087 2.30692C113.246 2.67058 113.326 3.06078 113.326 3.47995H113.556H113.786C113.786 3.00034 113.693 2.54718 113.508 2.12288L113.297 2.2149ZM113.556 3.47995H113.326V3.8216H113.556H113.786V3.47995H113.556ZM113.556 3.8216L113.519 3.595L112.328 3.78892L112.365 4.01552L112.402 4.24212L113.593 4.0482L113.556 3.8216ZM112.365 4.01552H112.594V3.47995H112.365H112.135V4.01552H112.365ZM112.365 3.47995H112.594C112.594 3.15501 112.533 2.84937 112.409 2.56584L112.199 2.65813L111.988 2.75042C112.086 2.97167 112.135 3.21391 112.135 3.47995H112.365ZM112.199 2.65813L112.41 2.56769C112.288 2.28345 112.121 2.03407 111.909 1.82171L111.746 1.98405L111.584 2.14639C111.753 2.3157 111.888 2.5157 111.988 2.74856L112.199 2.65813ZM111.746 1.98405L111.909 1.82171C111.696 1.60935 111.447 1.44238 111.163 1.32056L111.072 1.53158L110.982 1.7426C111.215 1.8424 111.415 1.97708 111.584 2.14639L111.746 1.98405ZM111.072 1.53158L111.164 1.32137C110.881 1.19689 110.575 1.13579 110.25 1.13579V1.36537V1.59496C110.516 1.59496 110.759 1.64467 110.98 1.7418L111.072 1.53158ZM110.25 1.36537V1.13579H109.512V1.36537V1.59496H110.25V1.36537ZM109.512 1.36537V1.13579C109.187 1.13579 108.879 1.1969 108.59 1.32056L108.68 1.53158L108.771 1.7426C108.999 1.64466 109.246 1.59496 109.512 1.59496V1.36537ZM108.68 1.53158L108.588 1.32137C108.311 1.44309 108.063 1.60922 107.847 1.81915L108.006 1.98405L108.166 2.14894C108.343 1.9772 108.545 1.84169 108.773 1.7418L108.68 1.53158ZM108.006 1.98405L107.844 1.82171C107.632 2.03407 107.465 2.28345 107.343 2.56769L107.554 2.65813L107.765 2.74856C107.865 2.5157 107.999 2.3157 108.169 2.14639L108.006 1.98405ZM107.554 2.65813L107.344 2.56584C107.219 2.84937 107.158 3.15501 107.158 3.47995H107.388H107.617C107.617 3.21391 107.667 2.97167 107.764 2.75042L107.554 2.65813ZM107.388 3.47995H107.158V3.72927H107.388H107.617V3.47995H107.388ZM107.388 3.72927H107.158C107.158 4.18605 107.254 4.58735 107.46 4.92096L107.656 4.8004L107.851 4.67985C107.7 4.43479 107.617 4.122 107.617 3.72927H107.388ZM107.656 4.8004L107.46 4.92096C107.656 5.23822 107.915 5.50975 108.234 5.7357L108.367 5.54835L108.499 5.36101C108.227 5.16835 108.012 4.94125 107.851 4.67985L107.656 4.8004ZM108.367 5.54835L108.236 5.73754C108.546 5.95066 108.893 6.13653 109.275 6.29585L109.364 6.08392L109.452 5.872C109.096 5.72352 108.778 5.55234 108.497 5.35917L108.367 5.54835ZM109.364 6.08392L109.28 6.29756C109.654 6.44498 110.038 6.59857 110.432 6.75832L110.518 6.54562L110.604 6.33292C110.21 6.17256 109.824 6.01835 109.448 5.87028L109.364 6.08392ZM110.518 6.54562L110.435 6.75947C110.821 6.91051 111.196 7.07959 111.558 7.26669L111.663 7.06272L111.768 6.85875C111.392 6.66418 111.003 6.48853 110.602 6.33177L110.518 6.54562ZM111.663 7.06272L111.562 7.26874C111.918 7.44373 112.234 7.66177 112.513 7.92276L112.67 7.75527L112.827 7.58778C112.514 7.29472 112.16 7.05107 111.764 6.8567L111.663 7.06272ZM112.67 7.75527L112.514 7.92451C112.785 8.17283 113.005 8.47927 113.171 8.84729L113.381 8.75253L113.59 8.65778C113.399 8.23784 113.145 7.87943 112.825 7.58603L112.67 7.75527ZM113.381 8.75253L113.171 8.84729C113.333 9.20381 113.419 9.6497 113.419 10.193H113.648H113.878C113.878 9.60366 113.785 9.08923 113.59 8.65778L113.381 8.75253ZM113.648 10.193H113.419V10.5901H113.648H113.878V10.193H113.648ZM121.509 1.55005V1.32047H121.279V1.55005H121.509ZM121.509 13.6558V13.8853H121.739V13.6558H121.509ZM120.318 13.6558H120.088V13.8853H120.318V13.6558ZM120.318 1.55005H120.547V1.32047H120.318V1.55005ZM117.16 1.55005H116.93V1.77964H117.16V1.55005ZM117.16 0.414277V0.184693H116.93V0.414277H117.16ZM124.667 0.414277H124.897V0.184693H124.667V0.414277ZM124.667 1.55005V1.77964H124.897V1.55005H124.667ZM121.509 1.55005H121.279V13.6558H121.509H121.739V1.55005H121.509ZM121.509 13.6558V13.4262H120.318V13.6558V13.8853H121.509V13.6558ZM120.318 13.6558H120.547V1.55005H120.318H120.088V13.6558H120.318ZM120.318 1.55005V1.32047H117.16V1.55005V1.77964H120.318V1.55005ZM117.16 1.55005H117.389V0.414277H117.16H116.93V1.55005H117.16ZM117.16 0.414277V0.64386H124.667V0.414277V0.184693H117.16V0.414277ZM124.667 0.414277H124.437V1.55005H124.667H124.897V0.414277H124.667ZM124.667 1.55005V1.32047H121.509V1.55005V1.77964H124.667V1.55005ZM135.088 3.78467V3.55509H134.859V3.78467H135.088ZM137.258 3.78467V4.01425H137.469L137.487 3.8041L137.258 3.78467ZM137.544 0.414277V0.184693H137.333L137.316 0.394847L137.544 0.414277ZM138.662 0.414277L138.89 0.433705L138.912 0.184693H138.662V0.414277ZM138.375 3.78467L138.147 3.76524L138.125 4.01425H138.375V3.78467ZM141.441 3.78467V4.01425H141.652L141.67 3.8041L141.441 3.78467ZM141.727 0.414277V0.184693H141.516L141.499 0.394847L141.727 0.414277ZM142.845 0.414277L143.073 0.433705L143.095 0.184693H142.845V0.414277ZM142.558 3.78467L142.33 3.76524L142.308 4.01425H142.558V3.78467ZM144.544 3.78467H144.773V3.55509H144.544V3.78467ZM144.544 4.72653V4.95611H144.773V4.72653H144.544ZM142.466 4.72653V4.49695H142.255L142.237 4.70777L142.466 4.72653ZM142.087 9.34351L141.859 9.32474L141.838 9.57309H142.087V9.34351ZM144.165 9.34351H144.395V9.11392H144.165V9.34351ZM144.165 10.2854V10.515H144.395V10.2854H144.165ZM141.986 10.2854V10.0558H141.774L141.757 10.2666L141.986 10.2854ZM141.709 13.6558V13.8853H141.92L141.938 13.6746L141.709 13.6558ZM140.592 13.6558L140.363 13.6363L140.342 13.8853H140.592V13.6558ZM140.878 10.2854L141.107 10.3048L141.128 10.0558H140.878V10.2854ZM137.812 10.2854V10.0558H137.601L137.583 10.2659L137.812 10.2854ZM137.526 13.6558V13.8853H137.737L137.755 13.6752L137.526 13.6558ZM136.409 13.6558L136.18 13.6363L136.159 13.8853H136.409V13.6558ZM136.695 10.2854L136.924 10.3048L136.945 10.0558H136.695V10.2854ZM134.71 10.2854H134.48V10.515H134.71V10.2854ZM134.71 9.34351V9.11392H134.48V9.34351H134.71ZM136.787 9.34351V9.57309H136.999L137.016 9.36227L136.787 9.34351ZM137.166 4.72653L137.395 4.74529L137.415 4.49695H137.166V4.72653ZM135.088 4.72653H134.859V4.95611H135.088V4.72653ZM137.904 9.34351L137.676 9.32474L137.655 9.57309H137.904V9.34351ZM140.97 9.34351V9.57309H141.182L141.199 9.36227L140.97 9.34351ZM141.349 4.72653L141.578 4.74529L141.598 4.49695H141.349V4.72653ZM138.283 4.72653V4.49695H138.072L138.054 4.70777L138.283 4.72653ZM135.088 3.78467V4.01425H137.258V3.78467V3.55509H135.088V3.78467ZM137.258 3.78467L137.487 3.8041L137.773 0.433705L137.544 0.414277L137.316 0.394847L137.029 3.76524L137.258 3.78467ZM137.544 0.414277V0.64386H138.662V0.414277V0.184693H137.544V0.414277ZM138.662 0.414277L138.433 0.394847L138.147 3.76524L138.375 3.78467L138.604 3.8041L138.89 0.433705L138.662 0.414277ZM138.375 3.78467V4.01425H141.441V3.78467V3.55509H138.375V3.78467ZM141.441 3.78467L141.67 3.8041L141.956 0.433705L141.727 0.414277L141.499 0.394847L141.212 3.76524L141.441 3.78467ZM141.727 0.414277V0.64386H142.845V0.414277V0.184693H141.727V0.414277ZM142.845 0.414277L142.616 0.394847L142.33 3.76524L142.558 3.78467L142.787 3.8041L143.073 0.433705L142.845 0.414277ZM142.558 3.78467V4.01425H144.544V3.78467V3.55509H142.558V3.78467ZM144.544 3.78467H144.314V4.72653H144.544H144.773V3.78467H144.544ZM144.544 4.72653V4.49695H142.466V4.72653V4.95611H144.544V4.72653ZM142.466 4.72653L142.237 4.70777L141.859 9.32474L142.087 9.34351L142.316 9.36227L142.695 4.74529L142.466 4.72653ZM142.087 9.34351V9.57309H144.165V9.34351V9.11392H142.087V9.34351ZM144.165 9.34351H143.935V10.2854H144.165H144.395V9.34351H144.165ZM144.165 10.2854V10.0558H141.986V10.2854V10.515H144.165V10.2854ZM141.986 10.2854L141.757 10.2666L141.48 13.637L141.709 13.6558L141.938 13.6746L142.215 10.3042L141.986 10.2854ZM141.709 13.6558V13.4262H140.592V13.6558V13.8853H141.709V13.6558ZM140.592 13.6558L140.82 13.6752L141.107 10.3048L140.878 10.2854L140.649 10.2659L140.363 13.6363L140.592 13.6558ZM140.878 10.2854V10.0558H137.812V10.2854V10.515H140.878V10.2854ZM137.812 10.2854L137.583 10.2659L137.297 13.6363L137.526 13.6558L137.755 13.6752L138.041 10.3048L137.812 10.2854ZM137.526 13.6558V13.4262H136.409V13.6558V13.8853H137.526V13.6558ZM136.409 13.6558L136.637 13.6752L136.924 10.3048L136.695 10.2854L136.466 10.2659L136.18 13.6363L136.409 13.6558ZM136.695 10.2854V10.0558H134.71V10.2854V10.515H136.695V10.2854ZM134.71 10.2854H134.939V9.34351H134.71H134.48V10.2854H134.71ZM134.71 9.34351V9.57309H136.787V9.34351V9.11392H134.71V9.34351ZM136.787 9.34351L137.016 9.36227L137.395 4.74529L137.166 4.72653L136.937 4.70777L136.558 9.32474L136.787 9.34351ZM137.166 4.72653V4.49695H135.088V4.72653V4.95611H137.166V4.72653ZM135.088 4.72653H135.318V3.78467H135.088H134.859V4.72653H135.088ZM137.904 9.34351V9.57309H140.97V9.34351V9.11392H137.904V9.34351ZM140.97 9.34351L141.199 9.36227L141.578 4.74529L141.349 4.72653L141.12 4.70777L140.741 9.32474L140.97 9.34351ZM141.349 4.72653V4.49695H138.283V4.72653V4.95611H141.349V4.72653ZM138.283 4.72653L138.054 4.70777L137.676 9.32474L137.904 9.34351L138.133 9.36227L138.512 4.74529L138.283 4.72653ZM155.904 11.8551L155.694 11.7631L155.692 11.7659L155.904 11.8551ZM154.177 13.5911L154.267 13.8027L154.269 13.8015L154.177 13.5911ZM151.075 13.5911L150.983 13.8015L150.987 13.8031L151.075 13.5911ZM149.339 11.8551L149.127 11.9444L149.128 11.9472L149.339 11.8551ZM149.089 10.2484L149.054 10.0216L148.86 10.0517V10.2484H149.089ZM150.281 10.0638H150.51V9.79583L150.245 9.83688L150.281 10.0638ZM150.447 11.4211L150.236 11.5116L150.237 11.5134L150.447 11.4211ZM150.899 12.0952L150.734 12.255L150.739 12.2601L150.899 12.0952ZM151.573 12.5477L151.481 12.7579L151.483 12.7587L151.573 12.5477ZM153.679 12.5477L153.588 12.3367L153.586 12.3375L153.679 12.5477ZM154.353 12.0952L154.515 12.2576L154.518 12.255L154.353 12.0952ZM154.805 11.4211L155.015 11.5134L155.016 11.5116L154.805 11.4211ZM154.805 8.66943L154.594 8.75987L154.595 8.76172L154.805 8.66943ZM153.679 7.54289L153.586 7.75311L153.588 7.75391L153.679 7.54289ZM151.97 7.37668H151.741V7.60626H151.97V7.37668ZM151.97 6.2409V6.01132H151.741V6.2409H151.97ZM153.679 6.07469L153.588 5.86366L153.586 5.86447L153.679 6.07469ZM154.353 5.62222L154.19 5.45988L154.353 5.62222ZM154.805 4.95738L155.015 5.04967L155.016 5.04782L154.805 4.95738ZM154.805 2.65813L154.594 2.74857L154.595 2.75042L154.805 2.65813ZM153.679 1.53158L153.586 1.74181L153.588 1.7426L153.679 1.53158ZM151.573 1.53158L151.483 1.32056L151.481 1.32137L151.573 1.53158ZM150.899 1.98405L150.739 1.81913L150.737 1.82171L150.899 1.98405ZM150.447 2.65813L150.657 2.75042L150.658 2.74856L150.447 2.65813ZM150.281 4.01552L150.244 4.24212L150.51 4.2855V4.01552H150.281ZM149.089 3.8216H148.86V4.01684L149.052 4.0482L149.089 3.8216ZM149.339 2.2149L149.128 2.12287L149.127 2.12566L149.339 2.2149ZM151.075 0.488148L151.164 0.699684L151.165 0.699L151.075 0.488148ZM154.177 0.488148L154.085 0.698501L154.088 0.699678L154.177 0.488148ZM155.904 2.2149L155.692 2.30414L155.694 2.30692L155.904 2.2149ZM156.033 4.83734L155.813 4.77179L155.812 4.7749L156.033 4.83734ZM155.682 5.63146L155.488 5.50976L155.486 5.51334L155.682 5.63146ZM155.147 6.30554L155.304 6.47274L155.307 6.47028L155.147 6.30554ZM154.445 6.8134L154.335 6.61204L153.959 6.8179L154.339 7.01678L154.445 6.8134ZM155.147 7.32127L154.987 7.48604L154.989 7.48845L155.147 7.32127ZM155.682 7.98612L155.486 8.10426L155.488 8.10779L155.682 7.98612ZM156.033 8.78947L155.812 8.85069L155.814 8.85632L156.033 8.78947ZM156.163 10.5901H155.933C155.933 11.0093 155.853 11.3995 155.694 11.7631L155.904 11.8551L156.114 11.9472C156.3 11.5229 156.392 11.0697 156.392 10.5901H156.163ZM155.904 11.8551L155.692 11.7659C155.538 12.1332 155.323 12.453 155.049 12.727L155.211 12.8893L155.374 13.0517C155.691 12.7347 155.938 12.365 156.116 11.9444L155.904 11.8551ZM155.211 12.8893L155.049 12.727C154.774 13.0017 154.454 13.2196 154.085 13.3808L154.177 13.5911L154.269 13.8015C154.689 13.618 155.057 13.368 155.374 13.0517L155.211 12.8893ZM154.177 13.5911L154.088 13.3796C153.724 13.5333 153.333 13.6109 152.912 13.6109V13.8404V14.07C153.391 14.07 153.843 13.9814 154.267 13.8027L154.177 13.5911ZM152.912 13.8404V13.6109H152.349V13.8404V14.07H152.912V13.8404ZM152.349 13.8404V13.6109C151.929 13.6109 151.534 13.5333 151.163 13.3791L151.075 13.5911L150.987 13.8031C151.416 13.9814 151.87 14.07 152.349 14.07V13.8404ZM151.075 13.5911L151.167 13.3808C150.798 13.2196 150.477 13.0017 150.203 12.727L150.04 12.8893L149.878 13.0517C150.194 13.368 150.563 13.618 150.983 13.8015L151.075 13.5911ZM150.04 12.8893L150.203 12.727C149.928 12.4524 149.71 12.1317 149.549 11.7631L149.339 11.8551L149.128 11.9472C149.312 12.3666 149.562 12.7354 149.878 13.0517L150.04 12.8893ZM149.339 11.8551L149.55 11.7659C149.397 11.4016 149.319 11.0104 149.319 10.5901H149.089H148.86C148.86 11.0685 148.948 11.5207 149.127 11.9444L149.339 11.8551ZM149.089 10.5901H149.319V10.2484H149.089H148.86V10.5901H149.089ZM149.089 10.2484L149.125 10.4753L150.316 10.2906L150.281 10.0638L150.245 9.83688L149.054 10.0216L149.089 10.2484ZM150.281 10.0638H150.051V10.5901H150.281H150.51V10.0638H150.281ZM150.281 10.5901H150.051C150.051 10.9151 150.112 11.223 150.236 11.5116L150.447 11.4211L150.658 11.3307C150.56 11.1022 150.51 10.8561 150.51 10.5901H150.281ZM150.447 11.4211L150.237 11.5134C150.358 11.7907 150.524 12.0383 150.734 12.255L150.899 12.0952L151.064 11.9355C150.892 11.7582 150.757 11.5564 150.657 11.3289L150.447 11.4211ZM150.899 12.0952L150.739 12.2601C150.956 12.4701 151.204 12.6362 151.481 12.7579L151.573 12.5477L151.666 12.3375C151.438 12.2376 151.236 12.1021 151.059 11.9303L150.899 12.0952ZM151.573 12.5477L151.483 12.7587C151.771 12.8824 152.079 12.9435 152.404 12.9435V12.7139V12.4843C152.138 12.4843 151.892 12.4346 151.664 12.3367L151.573 12.5477ZM152.404 12.7139V12.9435H152.857V12.7139V12.4843H152.404V12.7139ZM152.857 12.7139V12.9435C153.182 12.9435 153.487 12.8824 153.771 12.7579L153.679 12.5477L153.586 12.3375C153.365 12.4346 153.123 12.4843 152.857 12.4843V12.7139ZM153.679 12.5477L153.769 12.7587C154.053 12.6369 154.303 12.4699 154.515 12.2576L154.353 12.0952L154.19 11.9329C154.021 12.1022 153.821 12.2369 153.588 12.3367L153.679 12.5477ZM154.353 12.0952L154.518 12.255C154.728 12.0383 154.894 11.7907 155.015 11.5134L154.805 11.4211L154.595 11.3289C154.495 11.5564 154.36 11.7582 154.188 11.9355L154.353 12.0952ZM154.805 11.4211L155.016 11.5116C155.14 11.223 155.201 10.9151 155.201 10.5901H154.971H154.742C154.742 10.8561 154.692 11.1022 154.594 11.3307L154.805 11.4211ZM154.971 10.5901H155.201V9.49125H154.971H154.742V10.5901H154.971ZM154.971 9.49125H155.201C155.201 9.16631 155.14 8.86068 155.015 8.57714L154.805 8.66943L154.595 8.76172C154.692 8.98297 154.742 9.22522 154.742 9.49125H154.971ZM154.805 8.66943L155.016 8.57899C154.894 8.29475 154.727 8.04537 154.515 7.83301L154.353 7.99535L154.19 8.15769C154.36 8.327 154.494 8.52701 154.594 8.75987L154.805 8.66943ZM154.353 7.99535L154.515 7.83301C154.303 7.62065 154.053 7.45368 153.769 7.33187L153.679 7.54289L153.588 7.75391C153.821 7.8537 154.021 7.98838 154.19 8.15769L154.353 7.99535ZM153.679 7.54289L153.771 7.33267C153.487 7.20819 153.182 7.14709 152.857 7.14709V7.37668V7.60626C153.123 7.60626 153.365 7.65597 153.586 7.7531L153.679 7.54289ZM152.857 7.37668V7.14709H151.97V7.37668V7.60626H152.857V7.37668ZM151.97 7.37668H152.2V6.2409H151.97H151.741V7.37668H151.97ZM151.97 6.2409V6.47048H152.857V6.2409V6.01132H151.97V6.2409ZM152.857 6.2409V6.47048C153.182 6.47048 153.487 6.40938 153.771 6.2849L153.679 6.07469L153.586 5.86447C153.365 5.96161 153.123 6.01132 152.857 6.01132V6.2409ZM153.679 6.07469L153.769 6.28571C154.053 6.16389 154.303 5.99692 154.515 5.78456L154.353 5.62222L154.19 5.45988C154.021 5.6292 153.821 5.76387 153.588 5.86367L153.679 6.07469ZM154.353 5.62222L154.515 5.78456C154.727 5.57312 154.893 5.32762 155.015 5.04967L154.805 4.95738L154.595 4.86509C154.495 5.09193 154.361 5.28966 154.19 5.45988L154.353 5.62222ZM154.805 4.95738L155.016 5.04782C155.14 4.75926 155.201 4.45131 155.201 4.12632H154.971H154.742C154.742 4.39232 154.692 4.6384 154.594 4.86694L154.805 4.95738ZM154.971 4.12632H155.201V3.47995H154.971H154.742V4.12632H154.971ZM154.971 3.47995H155.201C155.201 3.15501 155.14 2.84937 155.015 2.56584L154.805 2.65813L154.595 2.75042C154.692 2.97167 154.742 3.21391 154.742 3.47995H154.971ZM154.805 2.65813L155.016 2.56769C154.894 2.28345 154.727 2.03407 154.515 1.82171L154.353 1.98405L154.19 2.14639C154.36 2.3157 154.494 2.5157 154.594 2.74856L154.805 2.65813ZM154.353 1.98405L154.515 1.82171C154.303 1.60935 154.053 1.44238 153.769 1.32056L153.679 1.53158L153.588 1.7426C153.821 1.8424 154.021 1.97708 154.19 2.14639L154.353 1.98405ZM153.679 1.53158L153.771 1.32137C153.487 1.19689 153.182 1.13579 152.857 1.13579V1.36537V1.59496C153.123 1.59496 153.365 1.64467 153.586 1.7418L153.679 1.53158ZM152.857 1.36537V1.13579H152.404V1.36537V1.59496H152.857V1.36537ZM152.404 1.36537V1.13579C152.079 1.13579 151.771 1.1969 151.483 1.32056L151.573 1.53158L151.664 1.7426C151.892 1.64466 152.138 1.59496 152.404 1.59496V1.36537ZM151.573 1.53158L151.481 1.32137C151.204 1.44309 150.956 1.60922 150.739 1.81915L150.899 1.98405L151.059 2.14894C151.236 1.9772 151.438 1.84169 151.666 1.7418L151.573 1.53158ZM150.899 1.98405L150.737 1.82171C150.525 2.03407 150.358 2.28345 150.236 2.56769L150.447 2.65813L150.658 2.74856C150.758 2.5157 150.892 2.3157 151.062 2.14639L150.899 1.98405ZM150.447 2.65813L150.237 2.56584C150.112 2.84937 150.051 3.15501 150.051 3.47995H150.281H150.51C150.51 3.21391 150.56 2.97167 150.657 2.75042L150.447 2.65813ZM150.281 3.47995H150.051V4.01552H150.281H150.51V3.47995H150.281ZM150.281 4.01552L150.317 3.78892L149.126 3.595L149.089 3.8216L149.052 4.0482L150.244 4.24212L150.281 4.01552ZM149.089 3.8216H149.319V3.47995H149.089H148.86V3.8216H149.089ZM149.089 3.47995H149.319C149.319 3.05963 149.397 2.66845 149.55 2.30414L149.339 2.2149L149.127 2.12566C148.948 2.54931 148.86 3.0015 148.86 3.47995H149.089ZM149.339 2.2149L149.549 2.30692C149.71 1.93839 149.928 1.61769 150.203 1.34303L150.04 1.18069L149.878 1.01835C149.562 1.33467 149.312 1.70344 149.128 2.12288L149.339 2.2149ZM150.04 1.18069L150.203 1.34303C150.477 1.069 150.797 0.85464 151.164 0.699678L151.075 0.488148L150.985 0.276618C150.565 0.454078 150.195 0.701412 149.878 1.01835L150.04 1.18069ZM151.075 0.488148L151.165 0.699C151.536 0.539382 151.93 0.459181 152.349 0.459181V0.229598V1.43051e-05C151.869 1.43051e-05 151.414 0.0921798 150.984 0.277296L151.075 0.488148ZM152.349 0.229598V0.459181H152.912V0.229598V1.43051e-05H152.349V0.229598ZM152.912 0.229598V0.459181C153.331 0.459181 153.722 0.539382 154.085 0.698483L154.177 0.488148L154.269 0.277813C153.845 0.0921807 153.392 1.43051e-05 152.912 1.43051e-05V0.229598ZM154.177 0.488148L154.088 0.699678C154.455 0.85464 154.775 1.069 155.049 1.34303L155.211 1.18069L155.374 1.01835C155.057 0.701412 154.687 0.454078 154.267 0.276618L154.177 0.488148ZM155.211 1.18069L155.049 1.34303C155.323 1.61706 155.538 1.93682 155.692 2.30414L155.904 2.2149L156.116 2.12566C155.938 1.70501 155.691 1.3353 155.374 1.01835L155.211 1.18069ZM155.904 2.2149L155.694 2.30692C155.853 2.67058 155.933 3.06078 155.933 3.47995H156.163H156.392C156.392 3.00034 156.3 2.54718 156.114 2.12288L155.904 2.2149ZM156.163 3.47995H155.933V3.93241H156.163H156.392V3.47995H156.163ZM156.163 3.93241H155.933C155.933 4.22506 155.893 4.50458 155.813 4.7718L156.033 4.83734L156.253 4.90288C156.346 4.59144 156.392 4.26767 156.392 3.93241H156.163ZM156.033 4.83734L155.812 4.7749C155.738 5.03747 155.63 5.2822 155.488 5.50978L155.682 5.63146L155.877 5.75314C156.043 5.48824 156.168 5.20356 156.254 4.89978L156.033 4.83734ZM155.682 5.63146L155.486 5.51334C155.348 5.74223 155.182 5.9513 154.987 6.14079L155.147 6.30554L155.307 6.47028C155.53 6.25348 155.721 6.01317 155.879 5.74958L155.682 5.63146ZM155.147 6.30554L154.989 6.13835C154.795 6.32166 154.577 6.47956 154.335 6.61204L154.445 6.8134L154.555 7.01477C154.831 6.86407 155.08 6.68339 155.304 6.47272L155.147 6.30554ZM154.445 6.8134L154.339 7.01678C154.578 7.14197 154.793 7.29825 154.987 7.48602L155.147 7.32127L155.307 7.15653C155.082 6.93799 154.83 6.7557 154.552 6.61003L154.445 6.8134ZM155.147 7.32127L154.989 7.48845C155.183 7.671 155.349 7.87611 155.486 8.10424L155.682 7.98612L155.879 7.868C155.721 7.60365 155.529 7.36553 155.304 7.15409L155.147 7.32127ZM155.682 7.98612L155.488 8.10779C155.629 8.33463 155.738 8.58195 155.812 8.85067L156.033 8.78947L156.255 8.72827C156.169 8.41833 156.043 8.13008 155.877 7.86444L155.682 7.98612ZM156.033 8.78947L155.814 8.85632C155.893 9.11654 155.933 9.39248 155.933 9.68516H156.163H156.392C156.392 9.34993 156.346 9.02875 156.253 8.72262L156.033 8.78947ZM156.163 9.68516H155.933V10.5901H156.163H156.392V9.68516H156.163Z" fill="#004289" mask="url(#path-1-outside-1_445_386)"/>
</svg>
