<svg xmlns="http://www.w3.org/2000/svg" width="364" height="130" fill="none" viewBox="0 0 364 130">
  <path fill="#6cb3ff" d="m38.18 47-.56 1.52c-7.22-.33-14.59-.27-21.76.78-2.69.4-11.44 2.16-12.96 4.3-1.33 1.87 2.36 3.41 3.74 3.95 11.72 4.58 35.28 4.34 47.42 1.15 1.54-.4 7.15-2 6.98-4.05-.55-1.78-2.76-2.53-4.37-3.1-3.5-1.28-7.34-1.75-11-2.28l.25-1.33c.49-.42 7.32 1.1 8.41 1.4 2.68.72 8.22 2.31 8.14 5.73-.1 4.3-4.92 6.85-6.04 11-1.35 5 2.67 11.84 4.27 16.62 3.87 11.59 3.38 22.28-4.38 32.06-.85 1.07-3.28 3.23-3.67 4.27-.57 1.5.27 2.88-.11 4.43-.66 2.7-4.9 3.73-7.29 4.29-8.62 2-19.38 2.04-27.95-.27-1.73-.47-5.25-1.57-6.23-3.08-1.05-1.62-.33-2.66-.37-4.17-.05-1.91-3.59-5.02-4.83-6.73-6.14-8.44-7.24-18.4-4.33-28.35 1.49-5.1 6.48-13.71 5.26-18.67C5.75 62.22.15 58.42 1.02 54.2c.7-3.34 8.6-5.2 11.47-5.77 8.32-1.63 17.24-1.86 25.69-1.43m19.96 12.26c-3.28.87-6.56 1.88-9.92 2.44a105 105 0 0 1-26.26.74c-6.11-.6-12.22-1.75-17.81-4.31-.25.25 2.78 4.1 3.13 4.7 4.16 7.2-.31 12.85-2.69 19.7-4.52 13.03-3.02 23.78 6.47 33.94 8.04 8.6 30 9.68 38.92 2.15 11.05-9.32 12.98-22.34 8.62-35.65-1.87-5.72-6.25-12.43-3.74-18.48zM12.9 121c-.97 1.55-.15 3.07 1.38 3.83 6.55 3.23 28.58 3.62 34.86-.03 1.37-.8 1.8-2.22.95-3.58a32 32 0 0 1-8.91 3.11 54 54 0 0 1-19.97-.3c-2.89-.64-5.7-1.66-8.31-3.03"/>
  <path fill="#6cb3ff" d="M43.18 54.75c.28.26 7.43-.85 7.7-1.14.43-.44-.92-.73-1.13-.79-1.06-.32-4.22-.56-4.76-.9-.48-.3.05-1.23.54-1.24.7-.02 2.51.4 3.32.55 9.16 1.7 3.93 3.9-1.55 4.8-9.3 1.55-24.12 1.58-33.21-.9-1.26-.34-3.69-.81-3.33-2.5.2-.6 3.11-1.24 3.83-1.4 7.22-1.58 14.77-1.2 22.12-1.24.71.04.51.7.2 1.15-7.8.22-15.83-.13-23.46 1.8-.45.47.98.7 1.18.75 1.99.55 4.58.85 6.65 1.06 4.92.5 9.93.54 14.87.35 4.1-10.62 7.18-22.02 12.2-32.25C52.97 13.43 60.26 7.34 67.79.33c1.17-1.18 4.37 1.07 3.93 2.55l-10.97 11.5c-4.76 4.94-7.15 11.13-9.58 17.41a361 361 0 0 0-8 22.96m20.1-45.22q3.26-3.48 6.66-6.84c-.68-1.14-1.26-1.22-2.23-.41a70 70 0 0 0-20.03 26.24 233 233 0 0 0-9.15 23.97c-.11.37-.74 2.32-.57 2.48 1.13-.18 2.9.52 3.6-.6 5.56-13.93 8.18-29.8 18.29-41.35 1.06-1.21 2.32-2.32 3.42-3.5M56.34 97.64c-.35 9.17-6.38 19.1-15.7 21.35 2.73-1.9 5.38-3.65 7.63-6.13 3.97-4.4 5.9-9.12 7.59-14.7.11-.36-.18-.63.48-.52M15.12 114.09c1.6 1.66 3.54 2.96 5.13 4.62-9.25-3.36-13.9-13.26-14.08-22.64.28.07.52.36.62.63.59 1.54.8 3.92 1.35 5.66a30.4 30.4 0 0 0 6.98 11.73M52.28 63.81a43 43 0 0 0-1.48 7.95c-.98-1.76-.73-4.87.17-6.64.11-.21 1.03-1.62 1.3-1.3M13.25 71.32c-.6.05-.38.02-.45-.35-.19-1.02-.12-2.17-.3-3.12-.18-1.02-.62-2.02-.85-3.02-.04-.17-.4-.82.11-.78 1.44.11 2.22 6.11 1.5 7.27z"/>
  <g fill="#fff" clip-path="url(#a)">
    <path d="M40.47 90.37a2.6 2.6 0 0 1-2.44 2.74h-.16a2.6 2.6 0 0 1-2.58-2.6 2.6 2.6 0 0 1 5.18-.13M50.13 89.7c.47-.03.87.33.89.8a.84.84 0 1 1-.88-.8M40.63 75.28a.85.85 0 0 1-.37-1.13.84.84 0 0 1 1.5.75c-.2.43-.7.6-1.13.38M38 79.88a1.3 1.3 0 1 1 1.16-2.32 1.3 1.3 0 0 1-1.15 2.32M46.85 83.05a1.07 1.07 0 0 1-1.17-1.8 1.07 1.07 0 0 1 1.17 1.8M45.28 89.24c.72-.04 1.33.5 1.37 1.23a1.3 1.3 0 1 1-2.59.14 1.3 1.3 0 0 1 1.22-1.37M46.7 97.96a1.07 1.07 0 1 1-1.44.47c.28-.52.92-.74 1.45-.47M41.68 86.56a1.5 1.5 0 0 1-2.1-.45 1.5 1.5 0 0 1 .44-2.1 1.5 1.5 0 0 1 2.1.44c.46.7.27 1.64-.44 2.1M25.73 79.78a1.3 1.3 0 1 1-1.43-2.17 1.3 1.3 0 0 1 1.43 2.17M23.08 75.2a.83.83 0 0 1-1.16-.25.84.84 0 0 1 .25-1.16.84.84 0 0 1 1.16.24c.24.39.13.91-.25 1.17M25.53 87.9a2.6 2.6 0 0 1 2.73 2.44 2.6 2.6 0 0 1-2.44 2.74h-.14a2.6 2.6 0 0 1-.15-5.19M37.16 86.37a2.6 2.6 0 1 1-4.63-2.35 2.6 2.6 0 0 1 3.48-1.15 2.6 2.6 0 0 1 1.15 3.5M16.85 83.05a1.07 1.07 0 1 1 .98-1.9 1.07 1.07 0 0 1-.98 1.9M23.42 83.87c.75.38 1.06 1.3.68 2.05a1.52 1.52 0 1 1-2.72-1.37 1.53 1.53 0 0 1 2.04-.68M31.88 74.81a1.1 1.1 0 0 1-1.13-1c-.04-.6.43-1.1 1.01-1.14s1.09.41 1.13 1-.42 1.1-1 1.14M31.9 81.53c-.85.05-1.56-.6-1.6-1.44-.06-.84.59-1.56 1.43-1.6.84-.06 1.56.6 1.6 1.44s-.6 1.56-1.44 1.6M40.14 97.14a1.53 1.53 0 0 1-.67-2.05 1.52 1.52 0 1 1 2.71 1.37 1.5 1.5 0 0 1-2.04.68M30.9 83.77a2.6 2.6 0 0 1-.74 3.59 2.6 2.6 0 1 1-1.42-4.77c.88 0 1.69.44 2.17 1.18M26.4 94.64a2.6 2.6 0 0 1 3.48-1.16 2.6 2.6 0 0 1-2.32 4.64 2.6 2.6 0 0 1-1.16-3.46zM21.88 94.45a1.5 1.5 0 0 1 2.1.44c.47.71.27 1.66-.44 2.11a1.5 1.5 0 0 1-2.1-.44c-.46-.7-.27-1.65.44-2.11M16.92 90.55a1.3 1.3 0 1 1 2.58-.14 1.3 1.3 0 1 1-2.58.14M13.34 89.62c.46-.03.86.33.88.8a.84.84 0 1 1-.88-.8M16.71 97.96a1.07 1.07 0 0 1 1.17 1.8 1.07 1.07 0 0 1-1.17-1.8M40.5 105.8a.84.84 0 1 1 .91 1.4.84.84 0 0 1-.92-1.4M22.93 105.72c.4.2.57.72.37 1.14a.84.84 0 0 1-1.5-.75c.2-.43.7-.6 1.13-.39M32.66 97.24A2.6 2.6 0 1 1 37 94.39a2.6 2.6 0 0 1-4.34 2.85M37.83 101.22a1.3 1.3 0 1 1 1.43 2.18 1.3 1.3 0 0 1-1.43-2.18M31.8 106.2c.58-.03 1.08.42 1.12 1 .04.6-.42 1.1-1 1.14a1.07 1.07 0 0 1-1.13-1c-.03-.6.42-1.1 1-1.14M31.78 99.47c.84-.05 1.56.6 1.6 1.45a1.52 1.52 0 1 1-3.04.16c-.04-.83.6-1.56 1.44-1.6M25.56 101.12c.63.33.89 1.11.56 1.75s-1.1.9-1.74.57a1.3 1.3 0 1 1 1.18-2.32"/>
  </g>
  <mask id="b" width="268" height="31" x="95.76" y="37.22" fill="#000" maskUnits="userSpaceOnUse">
    <path fill="#fff" d="M95.76 37.22h268v31h-268z"/>
    <path d="M112.92 60.27q0 1.45-.56 2.7a6.9 6.9 0 0 1-6.4 4.25h-8.97v-28.3h8.96q1.44.01 2.7.56a6.8 6.8 0 0 1 4.27 6.41v.28a6.7 6.7 0 0 1-1.03 3.63q-.5.78-1.16 1.44-.68.63-1.5 1.06a6.9 6.9 0 0 1 3.69 6.16zm-2.55-2.23a4.3 4.3 0 0 0-1.34-3.2 4.6 4.6 0 0 0-3.2-1.31h-6.29v11.26h6.3q.94 0 1.75-.35a4.6 4.6 0 0 0 2.78-4.17zm0-12.15a4.3 4.3 0 0 0-1.34-3.2 4.4 4.4 0 0 0-3.2-1.34h-6.29v9.75h6.3q.94 0 1.75-.36a4.6 4.6 0 0 0 2.78-4.18zm27.37 14.78q0 1.44-.55 2.7a6.9 6.9 0 0 1-6.4 4.24h-2q-1.45 0-2.73-.53a7.2 7.2 0 0 1-3.7-3.7 7 7 0 0 1-.54-2.71V38.93h2.54v21.74a4.5 4.5 0 0 0 2.77 4.18q.82.36 1.77.36h1.78q.94 0 1.75-.36a4.6 4.6 0 0 0 2.77-4.18V38.93h2.54zm10.52 6.55v-28.3h2.55v28.3zm29.4-6.95q0 1.45-.55 2.7a6.9 6.9 0 0 1-6.41 4.25h-8.96v-28.3h8.96q1.44.01 2.7.56a6.8 6.8 0 0 1 3.71 3.7q.55 1.27.55 2.71zm-2.54-14.38a4.3 4.3 0 0 0-1.34-3.2 4.4 4.4 0 0 0-3.2-1.34h-6.3V64.8h6.3q.95 0 1.76-.35a4.5 4.5 0 0 0 2.78-4.17zm12.63 21.33v-28.3h2.55V64.8h10.83v2.43zm21.87 0v-28.3h15.92v2.43h-13.38v10.52H223v2.43h-10.83v10.5h13.38v2.42zm38.53 0-7.67-12.08h-3.5v12.08h-2.54v-28.3h8.98q1.44.01 2.7.56a6.9 6.9 0 0 1 4.24 6.41v2.29q0 1.44-.55 2.72a6.9 6.9 0 0 1-6.4 4.24l7.68 12.08zm-.33-21.33q0-.95-.36-1.75a4.6 4.6 0 0 0-4.16-2.79h-6.31v11.37h6.31q.95 0 1.76-.36a4.6 4.6 0 0 0 2.76-4.18zm28.9-4.54v10.52h10.82v2.43h-10.83v12.92h-2.54v-28.3h15.92v2.43zm21.86 25.87v-28.3h15.92v2.43h-13.38v10.52h10.83v2.43h-10.83v10.5h13.38v2.42zm40.74-6.55q0 1.44-.59 2.7a7.25 7.25 0 0 1-3.83 3.7q-1.28.55-2.72.54h-2.03a7.2 7.2 0 0 1-6.57-4.24 6.5 6.5 0 0 1-.57-2.7v-1.13l2.54-.41v1.54a4.3 4.3 0 0 0 1.42 3.21 5 5 0 0 0 3.32 1.33h1.77a4.97 4.97 0 0 0 3.3-1.32q.65-.63 1.02-1.45.4-.82.4-1.77v-.85a4.7 4.7 0 0 0-.57-2.43 5 5 0 0 0-1.52-1.63 10 10 0 0 0-2.15-1.17q-1.19-.47-2.45-.94a31 31 0 0 1-2.46-1.05 9 9 0 0 1-2.14-1.42A6.5 6.5 0 0 1 323.4 46v-.53a6.9 6.9 0 0 1 6.97-6.95h1.81q1.44 0 2.7.56a6.9 6.9 0 0 1 4.25 6.39v.73l-2.55.41v-1.14q0-.95-.35-1.76a4.6 4.6 0 0 0-4.17-2.76h-1.57a4.5 4.5 0 0 0-3.22 1.32 4.6 4.6 0 0 0-1.32 3.2V46q0 1.35.57 2.29t1.52 1.6q.94.64 2.13 1.14l2.47.99q1.26.5 2.44 1.1 1.2.6 2.15 1.48a6.5 6.5 0 0 1 1.52 2.13q.57 1.26.57 3.08zm16.8-19.32v25.87h-2.55V41.35h-6.74v-2.42h16.04v2.42z"/>
  </mask>
  <path fill="#fff" d="M112.92 60.27q0 1.45-.56 2.7a6.9 6.9 0 0 1-6.4 4.25h-8.97v-28.3h8.96q1.44.01 2.7.56a6.8 6.8 0 0 1 4.27 6.41v.28a6.7 6.7 0 0 1-1.03 3.63q-.5.78-1.16 1.44-.68.63-1.5 1.06a6.9 6.9 0 0 1 3.69 6.16zm-2.55-2.23a4.3 4.3 0 0 0-1.34-3.2 4.6 4.6 0 0 0-3.2-1.31h-6.29v11.26h6.3q.94 0 1.75-.35a4.6 4.6 0 0 0 2.78-4.17zm0-12.15a4.3 4.3 0 0 0-1.34-3.2 4.4 4.4 0 0 0-3.2-1.34h-6.29v9.75h6.3q.94 0 1.75-.36a4.6 4.6 0 0 0 2.78-4.18zm27.37 14.78q0 1.44-.55 2.7a6.9 6.9 0 0 1-6.4 4.24h-2q-1.45 0-2.73-.53a7.2 7.2 0 0 1-3.7-3.7 7 7 0 0 1-.54-2.71V38.93h2.54v21.74a4.5 4.5 0 0 0 2.77 4.18q.82.36 1.77.36h1.78q.94 0 1.75-.36a4.6 4.6 0 0 0 2.77-4.18V38.93h2.54zm10.52 6.55v-28.3h2.55v28.3zm29.4-6.95q0 1.45-.55 2.7a6.9 6.9 0 0 1-6.41 4.25h-8.96v-28.3h8.96q1.44.01 2.7.56a6.8 6.8 0 0 1 3.71 3.7q.55 1.27.55 2.71zm-2.54-14.38a4.3 4.3 0 0 0-1.34-3.2 4.4 4.4 0 0 0-3.2-1.34h-6.3V64.8h6.3q.95 0 1.76-.35a4.5 4.5 0 0 0 2.78-4.17zm12.63 21.33v-28.3h2.55V64.8h10.83v2.43zm21.87 0v-28.3h15.92v2.43h-13.38v10.52H223v2.43h-10.83v10.5h13.38v2.42zm38.53 0-7.67-12.08h-3.5v12.08h-2.54v-28.3h8.98q1.44.01 2.7.56a6.9 6.9 0 0 1 4.24 6.41v2.29q0 1.44-.55 2.72a6.9 6.9 0 0 1-6.4 4.24l7.68 12.08zm-.33-21.33q0-.95-.36-1.75a4.6 4.6 0 0 0-4.16-2.79h-6.31v11.37h6.31q.95 0 1.76-.36a4.6 4.6 0 0 0 2.76-4.18zm28.9-4.54v10.52h10.82v2.43h-10.83v12.92h-2.54v-28.3h15.92v2.43zm21.86 25.87v-28.3h15.92v2.43h-13.38v10.52h10.83v2.43h-10.83v10.5h13.38v2.42zm40.74-6.55q0 1.44-.59 2.7a7.25 7.25 0 0 1-3.83 3.7q-1.28.55-2.72.54h-2.03a7.2 7.2 0 0 1-6.57-4.24 6.5 6.5 0 0 1-.57-2.7v-1.13l2.54-.41v1.54a4.3 4.3 0 0 0 1.42 3.21 5 5 0 0 0 3.32 1.33h1.77a4.97 4.97 0 0 0 3.3-1.32q.65-.63 1.02-1.45.4-.82.4-1.77v-.85a4.7 4.7 0 0 0-.57-2.43 5 5 0 0 0-1.52-1.63 10 10 0 0 0-2.15-1.17q-1.19-.47-2.45-.94a31 31 0 0 1-2.46-1.05 9 9 0 0 1-2.14-1.42A6.5 6.5 0 0 1 323.4 46v-.53a6.9 6.9 0 0 1 6.97-6.95h1.81q1.44 0 2.7.56a6.9 6.9 0 0 1 4.25 6.39v.73l-2.55.41v-1.14q0-.95-.35-1.76a4.6 4.6 0 0 0-4.17-2.76h-1.57a4.5 4.5 0 0 0-3.22 1.32 4.6 4.6 0 0 0-1.32 3.2V46q0 1.35.57 2.29t1.52 1.6q.94.64 2.13 1.14l2.47.99q1.26.5 2.44 1.1 1.2.6 2.15 1.48a6.5 6.5 0 0 1 1.52 2.13q.57 1.26.57 3.08zm16.8-19.32v25.87h-2.55V41.35h-6.74v-2.42h16.04v2.42z"/>
  <path fill="#fff" d="m112.36 62.98-.45-.2zm-3.7 3.7.19.46zm-11.67.54h-.49v.49h.5zm0-28.3v-.48h-.49v.49zm11.66.56-.2.45h.02zm3.71 3.7-.45.2zm.28 4.92-.47-.14zm-1.91 3.14.33.36v-.01zm-1.5 1.06-.23-.43-.83.43.83.44zm1.5 1.09-.35.35h.01zm1.16 1.44-.42.25zm.75 1.72-.47.13zm-2.62-.26-.45.2zm-1-1.44-.34.35zm-1.43-.97-.2.45zm-8.05-.35v-.5h-.5v.5zm0 11.26h-.5v.5h.5zm8.05-.35-.2-.45zm1.44-.97-.34-.35zm.99-1.42.45.2zm0-17.91-.45.19zm-1-1.44-.34.34zm-1.43-1-.2.46zm-8.05-.35v-.49h-.5v.5zm0 9.75h-.5v.5h.5zm8.05-.36-.2-.45zm2.43-2.4.45.2zm2.9 11.93h-.5q0 1.34-.5 2.51l.44.2.45.2q.6-1.37.6-2.9zm-.56 2.7-.45-.18a6 6 0 0 1-1.37 2.05l.34.35.35.34a7 7 0 0 0 1.58-2.36zm-1.48 2.22-.34-.35a7 7 0 0 1-2.08 1.4l.2.45.19.45q1.36-.6 2.38-1.6zm-2.23 1.5-.19-.46a6 6 0 0 1-2.5.5v.98q1.52 0 2.89-.57zm-2.7.53v-.5H97v.99h8.96zm-8.96 0h.5v-28.3h-.99v28.3zm0-28.3v.5h8.96v-.98H97zm8.96 0v.5q1.35 0 2.5.5l.2-.44.2-.45q-1.35-.6-2.9-.6zm2.7.56-.18.45q1.2.5 2.07 1.38l.34-.35.35-.35a7 7 0 0 0-2.39-1.58zm2.23 1.48-.34.35a6 6 0 0 1 1.37 2.07l.45-.2.46-.18a7 7 0 0 0-1.59-2.39zm1.48 2.23-.45.2q.52 1.15.52 2.5h.98q0-1.54-.6-2.9zm.56 2.7h-.5v.28h.99v-.28zm0 .28h-.5q0 .93-.25 1.8l.47.13.47.14q.3-1 .3-2.07zm-.28 1.93-.47-.13a6 6 0 0 1-.7 1.57l.42.26.42.26q.53-.85.8-1.83zm-.75 1.7-.42-.26q-.45.74-1.09 1.35l.35.35.34.35q.71-.69 1.24-1.53zm-1.16 1.44-.34-.36q-.62.6-1.4.99l.24.43.22.44q.9-.47 1.61-1.14zm-1.5 1.06-.23.44q.77.4 1.38 1l.35-.35.34-.35a7 7 0 0 0-1.62-1.17zm1.5 1.09-.34.36q.62.58 1.08 1.33l.42-.25.42-.26a7 7 0 0 0-1.25-1.54zm1.16 1.44-.42.26q.45.72.7 1.59l.47-.13.47-.14a7 7 0 0 0-.8-1.84zm.75 1.72-.47.14q.25.82.25 1.77h.99q0-1.08-.3-2.06zm.28 1.9h-.5v1.82h.99v-1.81zm-2.55-.4h.5q0-1.05-.4-1.96l-.45.2-.45.2q.3.7.31 1.55zm-.35-1.76.45-.2a5 5 0 0 0-1.1-1.6l-.34.36-.34.35q.55.54.88 1.28zm-1-1.44.36-.35a5 5 0 0 0-1.6-1.07l-.2.45-.18.45q.74.32 1.28.87zm-1.43-.97.2-.45q-.91-.4-1.96-.4v.99q.85 0 1.56.31zm-1.76-.35v-.5h-6.29v.99h6.3zm-6.29 0h-.5v11.26h.99V53.53zm0 11.26v.5h6.3v-.99h-6.3zm6.3 0v.5q1.03 0 1.95-.4l-.2-.45-.2-.45q-.7.3-1.56.31zm1.75-.35.2.45q.9-.4 1.59-1.07l-.35-.35-.35-.35q-.54.55-1.28.87zm1.44-.97.34.35q.7-.68 1.1-1.57l-.45-.2-.45-.2q-.31.72-.88 1.27zm.99-1.42.45.2q.4-.93.4-1.98h-.99q0 .85-.31 1.59zm.35-1.78h.5v-2.23h-.99v2.23zm0-14.38h.5q0-1.05-.4-1.95l-.45.2-.45.2q.3.7.31 1.55zm-.35-1.75.45-.2a5 5 0 0 0-1.1-1.6l-.34.36-.34.35q.55.54.88 1.28zm-1-1.44.36-.35a5 5 0 0 0-1.6-1.1l-.2.46-.18.45q.74.31 1.28.88zm-1.43-1 .2-.44q-.91-.4-1.96-.4v.98q.85 0 1.56.32zm-1.76-.35v-.49h-6.29v.98h6.3zm-6.29 0h-.5v9.75h.99v-9.75zm0 9.75v.5h6.3v-.99h-6.3zm6.3 0v.5q1.03 0 1.95-.4l-.2-.46-.2-.44q-.7.3-1.56.31zm1.75-.36.2.46q.9-.4 1.59-1.07l-.35-.35-.35-.35q-.54.54-1.28.86zm1.44-.96.35.35q.69-.7 1.09-1.6l-.45-.2-.45-.19q-.31.72-.89 1.3zm.99-1.44.45.2q.4-.94.4-1.98h-.99q0 .86-.31 1.58zm.35-1.78h.5v-.67h-.99v.67zm26.82 16.81-.45-.2v.01zm-3.7 3.71.2.45zm-7.43 0-.2.45h.01zm-3.7-3.7-.46.18zm-.54-24.45v-.5h-.5v.5zm2.54 0h.5v-.5h-.5zm.36 23.51-.45.2zm.97 1.44-.36.35h.02zm1.44.97-.2.45zm5.3 0-.19-.45zm1.44-.97.35.35zm.97-1.44.45.2zm.36-23.51v-.5h-.5v.5zm2.54 0h.5v-.5h-.5zm0 21.74h-.49q0 1.35-.51 2.5l.45.2.45.2q.6-1.36.6-2.9zm-.55 2.7-.45-.19a6 6 0 0 1-1.38 2.05l.35.35.34.35a7 7 0 0 0 1.59-2.37zm-1.48 2.21-.35-.35a7 7 0 0 1-2.06 1.4l.2.45.2.45q1.34-.6 2.36-1.6zm-2.21 1.5-.2-.45q-1.15.5-2.5.5v.98q1.53 0 2.89-.58zm-2.7.53v-.49h-2.02v.98h2.02zm-2.02 0v-.49q-1.35 0-2.53-.5l-.19.46-.19.45q1.39.57 2.91.57zm-2.72-.53.2-.45a7 7 0 0 1-2.06-1.4l-.35.35-.34.35a8 8 0 0 0 2.35 1.6zm-2.2-1.5.34-.35a7 7 0 0 1-1.4-2.05l-.45.2-.45.19q.6 1.34 1.6 2.36zm-1.5-2.2.44-.2a6 6 0 0 1-.49-2.51h-.98q0 1.53.57 2.9zm-.54-2.71h.49V38.93h-.98v21.74zm0-21.74v.49h2.54v-.98h-2.54zm2.54 0h-.49v21.74h.98V38.93zm0 21.74h-.49q0 1.05.4 1.97l.45-.2.45-.19a4 4 0 0 1-.31-1.58zm.36 1.77-.45.2q.4.9 1.06 1.59l.36-.35.35-.34a4 4 0 0 1-.87-1.3zm.97 1.44-.34.36q.7.67 1.58 1.06l.2-.45.2-.45q-.74-.31-1.3-.87zm1.44.97-.2.45q.93.4 1.97.4v-.98q-.86 0-1.58-.32zm1.77.36v.49h1.78v-.98h-1.78zm1.78 0v.49q1.04 0 1.95-.4l-.2-.45-.2-.45q-.7.32-1.55.32zm1.75-.36.2.45q.9-.39 1.6-1.07l-.36-.35-.34-.34q-.56.54-1.29.86zm1.44-.97.36.35q.67-.7 1.06-1.59l-.45-.2-.45-.2q-.31.74-.87 1.3zm.97-1.44.45.2q.4-.93.4-1.97h-.98q0 .86-.32 1.58zm.36-1.77h.49V38.93h-.98v21.74zm0-21.74v.49h2.54v-.98h-2.54zm2.54 0h-.49v21.74h.98V38.93zm10.52 28.29h-.49v.49h.5zm0-28.3v-.48h-.49v.49zm2.55 0h.49v-.48h-.5zm0 28.3v.49h.49v-.5zm-2.55 0h.5v-28.3h-.99v28.3zm0-28.3v.5h2.55v-.98h-2.55zm2.55 0h-.5v28.3h.99v-28.3zm0 28.3v-.5h-2.55v.99h2.55zm26.3-4.24-.45-.2zm-3.7 3.7.18.46zm-11.67.54h-.49v.49h.5zm0-28.3v-.48h-.49v.49zm11.66.56-.2.45h.01zm3.71 3.7-.45.2zm-2.35.96-.45.19zm-.98-1.44-.35.34zm-1.44-1-.2.46zm-8.05-.35v-.49h-.5v.5zm0 23.44h-.5v.5h.5zm8.05-.35-.2-.45zm1.44-.97-.34-.35zm.98-1.42.45.2zm2.9-1.78h-.49q0 1.34-.5 2.51l.44.2.45.2q.6-1.37.6-2.9zm-.55 2.7-.45-.18a6 6 0 0 1-1.37 2.05l.34.35.35.34a7 7 0 0 0 1.58-2.36zm-1.48 2.22-.34-.35a7 7 0 0 1-2.08 1.4l.2.45.19.45q1.35-.6 2.38-1.6zm-2.23 1.5-.19-.46a6 6 0 0 1-2.51.5v.98q1.53 0 2.9-.57zm-2.7.53v-.5h-8.96v.99h8.96zm-8.96 0h.5v-28.3h-.99v28.3zm0-28.3v.5h8.96v-.98h-8.96zm8.96 0v.5q1.35 0 2.5.5l.2-.44.2-.45q-1.36-.6-2.9-.6zm2.7.56-.19.45q1.2.5 2.07 1.38l.35-.35.35-.35a7 7 0 0 0-2.39-1.58zm2.23 1.48-.34.35a6 6 0 0 1 1.37 2.07l.45-.2.45-.18a7 7 0 0 0-1.58-2.39zm1.48 2.23-.45.2q.51 1.15.51 2.5h.99q0-1.54-.6-2.9zm.55 2.7h-.49v14.38h.99V45.9zm-2.54 0h.49q0-1.05-.4-1.95l-.45.2-.44.2q.3.7.3 1.55zm-.36-1.75.46-.2a5 5 0 0 0-1.1-1.6l-.34.36-.34.35q.55.54.87 1.28zm-.98-1.44.35-.35a5 5 0 0 0-1.6-1.1l-.2.46-.19.45q.74.31 1.29.88zm-1.44-1 .2-.44a5 5 0 0 0-1.96-.4v.98q.85 0 1.56.32zm-1.76-.35v-.49h-6.3v.98h6.3zm-6.3 0h-.48V64.8h.98V41.35zm0 23.44v.5h6.3v-.99h-6.3zm6.3 0v.5q1.05 0 1.95-.4l-.2-.45-.19-.45q-.7.3-1.56.31zm1.76-.35.19.45q.9-.4 1.6-1.07l-.35-.35-.35-.35q-.54.55-1.29.87zm1.44-.97.34.35q.7-.68 1.1-1.57l-.46-.2-.44-.2q-.32.72-.88 1.27zm.98-1.42.46.2q.39-.93.39-1.98h-.98q0 .85-.32 1.59zm.36-1.78h.49V45.9h-.98v14.38zm12.63 6.95h-.49v.49h.5zm0-28.3v-.48h-.49v.49zm2.55 0h.49v-.48h-.5zm0 25.87h-.5v.5h.5zm10.83 0h.49v-.49h-.5zm0 2.43v.49h.49v-.5zm-13.38 0h.5v-28.3h-.99v28.3zm0-28.3v.5h2.55v-.98h-2.55zm2.55 0h-.5V64.8h.99V38.93zm0 25.87v.5h10.83v-.99H190.3zm10.83 0h-.5v2.43h.99v-2.43zm0 2.43v-.5h-13.38v.99h13.38zm8.49 0h-.5v.49h.5zm0-28.3v-.48h-.5v.49zm15.92 0h.49v-.48h-.5zm0 2.43v.5h.49v-.5zm-13.38 0v-.49h-.49v.5zm0 10.52h-.49v.49h.5zm10.83 0h.5v-.5h-.5zm0 2.43v.49h.5v-.5zm-10.83 0v-.5h-.49v.5zm0 10.5h-.49v.48h.5zm13.38 0h.49v-.5h-.5zm0 2.42v.49h.49v-.5zm-15.92 0h.49v-28.3h-.98v28.3zm0-28.3v.5h15.92v-.98h-15.92zm15.92 0h-.5v2.43h.99v-2.42zm0 2.43v-.49h-13.38v.98h13.38zm-13.38 0h-.49v10.52h.98V41.35zm0 10.52v.49H223v-.99h-10.83zm10.83 0h-.49v2.43h.98v-2.43zm0 2.43v-.5h-10.83v.99H223zm-10.83 0h-.49v10.5h.98V54.3zm0 10.5v.48h13.38v-.98h-13.38zm13.38 0h-.5v2.42h.99v-2.43zm0 2.42v-.5h-15.92v.99h15.92zm22.61 0-.41.26.14.23h.27zm-7.67-12.08.41-.26-.14-.23h-.27zm-3.5 0v-.49h-.48v.5zm0 12.08v.49h.5v-.5zm-2.54 0h-.49v.49h.5zm0-28.3v-.48h-.49v.49zm11.68.56-.2.45h.01zm3.7 3.7-.46.2zm0 7.72-.46-.2v.01zm-3.7 3.71.2.45zm-2.7.53v-.49h-.9l.48.76zm7.67 12.08v.49h.9l-.48-.75zm-3.63-23.08-.45.19zm-.96-1.44-.36.34zm-1.44-1-.2.46zm-8.07-.35v-.49h-.5v.5zm0 11.37h-.5v.49h.5zm8.07-.36-.2-.45zm1.44-.96.34.34zm.96-1.44.45.2v-.01zm.7 17.26.4-.26-7.67-12.08-.41.26-.41.27 7.67 12.07zm-7.68-12.08v-.49h-3.5v.99h3.5zm-3.5 0h-.48v12.08h.98V55.14zm0 12.08v-.5h-2.54v.99H237zm-2.54 0h.5v-28.3h-.99v28.3zm0-28.3v.5h8.98v-.98h-8.98zm8.98 0v.5q1.35 0 2.5.5l.2-.44.2-.45q-1.36-.6-2.9-.6zm2.7.56-.19.45q1.17.5 2.05 1.38l.35-.35.35-.35a7 7 0 0 0-2.37-1.58zm2.21 1.48-.35.35a6 6 0 0 1 1.38 2.07l.45-.2.45-.18a7 7 0 0 0-1.58-2.39zm1.48 2.23-.45.2q.51 1.15.51 2.5h.98q0-1.54-.59-2.9zm.55 2.7h-.49v2.29h.98v-2.29zm0 2.29h-.49q0 1.35-.51 2.53l.45.2.45.19q.6-1.38.6-2.92zm-.55 2.72-.45-.19a6 6 0 0 1-1.38 2.06l.35.34.35.35a7 7 0 0 0 1.58-2.37zm-1.48 2.21-.35-.34a7 7 0 0 1-2.05 1.4l.2.44.19.45q1.34-.59 2.36-1.6zm-2.2 1.5-.2-.45a6 6 0 0 1-2.51.5v.98q1.53 0 2.9-.58zm-2.71.53-.42.27 7.68 12.07.41-.26.42-.26-7.68-12.08zm7.67 12.08v-.5h-2.94v.99h2.94zm-3.27-21.33h.49q0-1.05-.4-1.95l-.45.2-.45.2q.32.7.32 1.55zm-.36-1.75.45-.2a5 5 0 0 0-1.07-1.6l-.34.36-.35.34q.54.55.86 1.29zm-.96-1.44.35-.35a5 5 0 0 0-1.6-1.1l-.2.46-.19.45q.74.31 1.28.88zm-1.44-1 .2-.44q-.92-.4-1.96-.4v.98q.86 0 1.56.32zm-1.76-.35v-.49h-6.31v.98h6.31zm-6.31 0h-.5v11.37h.99V41.35zm0 11.37v.49h6.31v-.98h-6.31zm6.31 0v.49q1.05 0 1.95-.4l-.2-.45-.2-.45q-.7.32-1.55.32zm1.76-.36.19.45q.9-.38 1.6-1.07l-.35-.34-.35-.35q-.54.54-1.29.86zm1.44-.96.35.34q.67-.7 1.06-1.59l-.45-.2-.45-.2q-.31.75-.87 1.3zm.96-1.44.45.19q.4-.93.4-1.97h-.98q0 .86-.32 1.58zm.36-1.78h.49v-2.29h-.98v2.29zm28.9-6.83v-.49h-.5v.5zm0 10.52h-.5v.49h.5zm10.82 0h.5v-.5h-.5zm0 2.43v.49h.5v-.5zm-10.83 0v-.5h-.49v.5zm0 12.92v.49h.5v-.5zm-2.54 0h-.5v.49h.5zm0-28.3v-.48h-.5v.49zm15.92 0h.49v-.48h-.5zm0 2.43v.5h.49v-.5zm-13.38 0h-.49v10.52h.98V41.35zm0 10.52v.49h10.83v-.99h-10.83zm10.83 0h-.49v2.43h.98v-2.43zm0 2.43v-.5h-10.83v.99h10.83zm-10.83 0h-.49v12.92h.98V54.3zm0 12.92v-.5h-2.54v.99h2.54zm-2.54 0h.49v-28.3h-.98v28.3zm0-28.3v.5h15.92v-.98h-15.92zm15.92 0h-.5v2.43h.99v-2.42zm0 2.43v-.49H276.7v.98h13.38zm8.49 25.87h-.5v.49h.5zm0-28.3v-.48h-.5v.49zm15.92 0h.49v-.48h-.49zm0 2.43v.5h.49v-.5zm-13.38 0v-.49h-.49v.5zm0 10.52h-.49v.49h.5zm10.83 0h.5v-.5h-.5zm0 2.43v.49h.5v-.5zm-10.83 0v-.5h-.49v.5zm0 10.5h-.49v.48h.5zm13.38 0h.49v-.5h-.49zm0 2.42v.49h.49v-.5zm-15.92 0h.49v-28.3h-.98v28.3zm0-28.3v.5h15.92v-.98h-15.92zm15.92 0h-.5v2.43h.99v-2.42zm0 2.43v-.49h-13.38v.98h13.38zm-13.38 0h-.49v10.52h.98V41.35zm0 10.52v.49h10.83v-.99h-10.83zm10.83 0h-.49v2.43h.99v-2.43zm0 2.43v-.5h-10.83v.99h10.83zm-10.83 0h-.49v10.5h.98V54.3zm0 10.5v.48h13.38v-.98h-13.38zm13.38 0h-.5v2.42h.99v-2.43zm0 2.42v-.5h-15.92v.99h15.92zm24.23-3.85-.44-.2zm-1.56 2.21-.34-.35zm-2.27 1.5.2.45zm-7.5 0-.19.45h.01zm-2.26-1.5-.34.35zm-1.56-2.2-.45.2zm-.57-3.84-.08-.48-.41.07v.41zm2.54-.41h.5v-.58l-.57.1zm.38 3.31-.45.2v.02zm1.04 1.44-.34.36zm1.5.97-.19.45zm6.89-.97.33.36h.01zm1.02-1.44-.44-.2zm-1.7-6.68-.28.4zm-2.14-1.17-.19.46zm-4.92-1.99-.2.44zm-2.13-1.42-.33.36zm-1.55-8.4-.45-.2zm3.7-3.7.2.46zm7.25 0-.2.45zm3.69 3.7-.46.19zm.55 3.43.08.48.4-.07v-.41zm-2.55.41h-.49v.58l.57-.1zm-.35-2.9-.45.2zm-2.41-2.4-.2.44zm-5.11 0-.2-.46zm-1.44.96-.34-.35zm-.97 1.44.45.2zm1.74 6.18-.28.4zm2.13 1.14-.19.45h.01zm2.47.99-.19.45zm2.44 1.1-.22.44zm2.15 1.48-.33.36zm2.1 6.06h-.5q0 1.33-.54 2.5l.44.2.45.21q.63-1.36.63-2.91zm-.6 2.7-.44-.2a7 7 0 0 1-1.46 2.06l.34.35.34.36a8 8 0 0 0 1.67-2.37zm-1.56 2.21-.34-.35q-.9.88-2.12 1.4l.2.45.19.45q1.38-.58 2.42-1.6zm-2.27 1.5-.18-.45q-1.2.5-2.54.5v.98q1.54 0 2.91-.58zm-2.72.53v-.49h-2.03v.98h2.03zm-2.03 0v-.49q-1.35 0-2.56-.5l-.18.46-.19.45q1.39.57 2.93.57zm-2.74-.53.2-.45q-1.21-.52-2.13-1.4l-.34.35-.34.36q1.05 1 2.41 1.6zm-2.27-1.5.34-.35a7 7 0 0 1-1.46-2.07l-.44.21-.44.21q.63 1.35 1.66 2.35zm-1.56-2.2.45-.21a6 6 0 0 1-.53-2.5h-.98q0 1.55.61 2.9zm-.57-2.71h.49v-1.13h-.98v1.13zm0-1.13.08.49 2.54-.42-.08-.48-.07-.48-2.55.41zm2.54-.41h-.49v1.54h.98v-1.54zm0 1.54h-.49q0 1.05.42 1.98l.45-.2.44-.2q-.33-.75-.33-1.58zm.38 1.77-.44.22q.44.89 1.14 1.58l.34-.36.34-.35q-.58-.57-.94-1.3zm1.04 1.44-.33.36q.72.67 1.64 1.06l.2-.45.18-.45q-.76-.32-1.35-.87zm1.5.97-.18.46q.96.39 2 .39v-.98q-.85 0-1.63-.32zm1.82.36v.49h1.77v-.98h-1.77zm1.77 0v.49q1.05 0 1.99-.4l-.2-.45-.18-.45q-.76.32-1.6.32zm1.8-.36.19.45a6 6 0 0 0 1.64-1.06l-.33-.36-.34-.35q-.58.54-1.35.87zm1.5-.97.34.36q.72-.7 1.13-1.59l-.44-.2-.45-.21a4 4 0 0 1-.92 1.3zm1.02-1.44.45.22q.44-.94.44-2h-.98q0 .85-.35 1.57zm.4-1.77h.49v-.85h-.98v.85zm0-.85h.49q.01-1.57-.64-2.68l-.42.25-.42.25q.49.82.5 2.18zm-.57-2.43.42-.25q-.63-1.05-1.66-1.78l-.28.4-.29.4q.87.6 1.39 1.48zm-1.52-1.63.29-.4q-1.01-.74-2.26-1.22l-.18.45-.18.46q1.14.45 2.04 1.1zm-2.15-1.17.18-.45q-1.2-.48-2.46-.95l-.17.46-.17.45q1.26.48 2.44.95zm-2.45-.94.17-.46q-1.23-.47-2.42-1.03l-.21.44-.22.44q1.23.58 2.5 1.06zm-2.46-1.05.2-.44a9 9 0 0 1-2-1.35l-.34.37-.32.36q1 .9 2.24 1.5zm-2.14-1.42.34-.36a6 6 0 0 1-1.4-1.96l-.45.2-.45.21a7 7 0 0 0 1.63 2.27zm-1.51-2.11.44-.2a7 7 0 0 1-.53-2.86h-.98q0 1.9.62 3.26zM323.4 46h.5v-.53h-.99V46zm0-.53h.5q0-1.35.49-2.51l-.45-.2-.46-.19q-.57 1.36-.57 2.9zm.54-2.7.44.2q.52-1.2 1.4-2.07l-.34-.35-.35-.34a8 8 0 0 0-1.6 2.36zm1.5-2.22.34.35a6 6 0 0 1 2.06-1.37l-.2-.45-.19-.46q-1.35.57-2.36 1.59zm2.2-1.47.2.45q1.19-.52 2.53-.52v-.98q-1.54 0-2.92.6zm2.73-.56v.5h1.81v-.99h-1.81zm1.81 0v.5q1.35 0 2.5.5l.2-.44.2-.45q-1.35-.6-2.9-.6zm2.7.56-.19.45q1.18.5 2.06 1.37l.35-.35.34-.34a7 7 0 0 0-2.36-1.59zm2.22 1.47-.35.35a6 6 0 0 1 1.37 2.06l.45-.2.46-.19q-.57-1.34-1.59-2.36zm1.47 2.21-.44.2q.5 1.17.5 2.5h.99q0-1.53-.6-2.9zm.56 2.7h-.5v.74h.99v-.73zm0 .74-.08-.49-2.55.42.08.48.08.49 2.55-.42zm-2.55.41h.5v-1.14h-.99v1.14zm0-1.14h.5q0-1.05-.4-1.96l-.45.2-.45.2q.3.7.31 1.56zm-.35-1.76.45-.2a5 5 0 0 0-1.07-1.59l-.35.35-.35.35q.54.54.87 1.28zm-.97-1.44.35-.35a5 5 0 0 0-1.6-1.07l-.19.45-.2.46q.75.31 1.3.86zm-1.44-.97.2-.44q-.9-.4-1.96-.4v.98q.85 0 1.56.31zm-1.76-.35v-.5h-1.57v.99h1.57zm-1.57 0v-.5q-1.05 0-1.97.4l.19.45.2.46q.72-.32 1.58-.32zm-1.78.35-.2-.44q-.89.39-1.58 1.06l.34.35.34.35q.57-.54 1.3-.87zm-1.44.97-.35-.35q-.67.7-1.07 1.6l.45.2.45.18q.32-.75.87-1.28zm-.97 1.44-.45-.2a5 5 0 0 0-.4 1.96h.99q0-.85.31-1.56zm-.35 1.76h-.5V46h.99v-.53zm0 .53h-.5q0 1.47.65 2.55l.42-.26.42-.26a4 4 0 0 1-.5-2.03zm.57 2.29-.42.26q.63 1 1.66 1.74l.28-.4.28-.4a5 5 0 0 1-1.38-1.46zm1.52 1.6-.28.4q.99.68 2.22 1.2l.19-.46.19-.45a11 11 0 0 1-2.04-1.1zm2.13 1.14-.18.46 2.46.98.19-.45.18-.46-2.47-.99zm2.47.99-.18.45q1.23.5 2.4 1.09l.22-.44.23-.43q-1.2-.63-2.5-1.13zm2.44 1.1-.21.44q1.13.57 2.03 1.4l.33-.36.34-.36a9 9 0 0 0-2.27-1.56zm2.15 1.48-.33.36a6 6 0 0 1 1.4 1.98l.45-.2.45-.21q-.6-1.35-1.63-2.29zm1.52 2.13-.44.2q.51 1.15.52 2.88h.99q0-1.9-.62-3.28zm.57 3.08h-.49v.85h.99v-.85zm16.8-18.47v-.49h-.5v.5zm0 25.87v.49h.49v-.5zm-2.55 0h-.49v.49h.5zm0-25.87h.5v-.49h-.5zm-6.74 0h-.5v.5h.5zm0-2.42v-.5h-.5v.5zm16.04 0h.49v-.5h-.5zm0 2.42v.5h.49v-.5zm-6.75 0h-.5v25.87h.99V41.35zm0 25.87v-.5h-2.55v.99h2.55zm-2.55 0h.5V41.35h-.99v25.87zm0-25.87v-.49h-6.74v.98h6.75zm-6.74 0h.49v-2.42h-.98v2.42zm0-2.42v.49h16.04v-.98h-16.04zm16.04 0h-.5v2.42h.99v-2.42zm0 2.42v-.49h-6.75v.98h6.75z" mask="url(#b)"/>
  <path fill="#6cb3ff" d="M95.07 119.04q-1.22-.72-1.55-1.55a4 4 0 0 1-.33-1.33q0-1.56 1.1-4.21 1.17-2.67 3.05-6.04 1.95-3.44 4.27-7.1a84 84 0 0 0-5.98-.27h-1.94a3.7 3.7 0 0 1 2.1-2.22 9 9 0 0 1 3.66-.66q.94 0 1.94.1 1 .12 2.05.28 2.82-4.27 5.76-8.25 3-4.05 5.54-7.15a53 53 0 0 1 4.32-4.76q1.61-1.56 2.66-1.56.61 0 1.33.5.78.44 1.61 1.28-.56.45-1.44 2.38a64 64 0 0 0-1.83 4.77q-.94 2.88-1.88 6.31-.94 3.44-1.78 7.04-.77 3.54-1.27 6.76-.44 3.21-.44 5.65 0 2.1.44 3.27.5 1.16 1.6 1.16 1.45 0 3.28-2 1.83-1.98 3.98-6.2l.56.56a22 22 0 0 1-4.27 7.26q-2.55 2.82-5.32 2.82a3.5 3.5 0 0 1-3.32-2 12.5 12.5 0 0 1-1-5.42 37 37 0 0 1 .94-8.26 92 92 0 0 0-4.48-.6q-2-.3-3.72-.5a277 277 0 0 0-5.1 9.91q-2.43 5.1-4.54 10.03m18.23-20.78q.83-3.66 1.94-7.37 1.11-3.77 2.33-7.15 1.27-3.38 2.38-5.93-1.71 1.05-3.99 3.77a67 67 0 0 0-4.7 6.54 158 158 0 0 0-5.1 8.42q1.88.4 3.7.89zm20.5 17.4a4.3 4.3 0 0 1-3-1 3.4 3.4 0 0 1-1.04-2.6q0-1.66.77-3.5.78-1.81 1.5-3.6.77-1.82.77-3.26 0-1.78-1.05-2.6-1-.9-2.05-1.61a98 98 0 0 1-2.66 6.2 57 57 0 0 1-2.27 4.43l-.5-.94q.77-1.44 2-4.2a69 69 0 0 0 2.49-6.33 1.8 1.8 0 0 1-.55-1.33q-.01-1.65.94-2.71.94-1.05 1.38-1.05.6 0 .67.55.1.5.1.78 0 .27-.33 1.1-.27.78-.27.95 0 .77.83 1.44.9.6 2 1.44a8 8 0 0 1 1.93 1.94q.9 1.11.89 2.88a9 9 0 0 1-.72 3.38 54 54 0 0 1-1.38 3.27 7 7 0 0 0-.67 2.71q0 1 .5 1.33t1.16.34q1.34 0 2.72-.84 1.44-.82 2.77-2.1 1.32-1.28 2.38-2.66 1.05-1.44 1.55-2.66l.72.55a22 22 0 0 1-2.88 4.6 17 17 0 0 1-4.1 3.66 8.3 8.3 0 0 1-4.6 1.44m11.78 14.07q-1.21 0-2.21-.77-1-.72-1-2.44 0-1.66 1.05-3.1 1-1.4 2.6-2.6 1.62-1.17 3.5-2.17l3.66-1.88q.77-1.94 1.44-4.16.72-2.27 1.38-4.98a28 28 0 0 1-4.43 5.1q-2.28 1.98-4.6 1.99-2 0-3.1-1.5a6.6 6.6 0 0 1-1.06-3.88q0-2.88 1.39-5.48a18.45 18.45 0 0 1 8.53-7.7q2.55-1.17 4.77-1.17 1.6 0 2.27.56.72.49.72 1.22 0 .5-.28.77-.27.28-.39.33-.27-.45-.83-.6a4 4 0 0 0-1.38-.23q-2.17 0-4.21 1.28a14 14 0 0 0-3.55 3.27 19 19 0 0 0-2.5 4.15q-.87 2.1-.88 3.88 0 1.33.5 2.05.55.66 1.44.66 1.61 0 3.82-2.1a33 33 0 0 0 4.38-5.2l.28-1.4.39-1.55q.16-.77.77-1.77.66-1.05 2.05-1.05.28 0 .56.05.27 0 .6.11 0 .9-.55 3.27A95.87 95.87 0 0 1 157 114.6a19 19 0 0 0 3.54-2.27 20 20 0 0 0 3.22-3.15 16 16 0 0 0 2.27-3.94l.72.56a13 13 0 0 1-2.66 4.54 24 24 0 0 1-3.93 3.55q-2.06 1.5-3.77 2.32a64 64 0 0 1-3.27 6.76 21 21 0 0 1-3.6 4.94 5.5 5.5 0 0 1-3.94 1.82m-.16-1.77q1.1 0 2.99-2.22 1.95-2.16 4.16-7.48-2.22 1.11-4.16 2.28a16 16 0 0 0-3.1 2.54 4.3 4.3 0 0 0-1.22 2.94q0 .89.39 1.39.39.55.94.55m25.58-11.3q-3.37 0-5.1-1.89a6.5 6.5 0 0 1-1.66-4.54q0-2.5 1.22-5.26a23 23 0 0 1 3.32-5.21 19 19 0 0 1 4.6-3.94 9.3 9.3 0 0 1 4.93-1.55q1.28 0 2.33.67 1.1.66 1.1 2.71a7 7 0 0 1-1.27 4q-1.21 1.82-3.26 3.26-2 1.44-4.44 2.38-2.38.9-4.76 1.11a12 12 0 0 0-.22 2q0 .82.16 1.66.22.83.72 1.55.5.67 1.33 1.05.9.39 2.16.39a9.4 9.4 0 0 0 4.71-1.33q2.33-1.38 4.32-3.6a24 24 0 0 0 3.38-4.88l.67.5q-1.5 3.33-3.82 5.76a17 17 0 0 1-5 3.77 11.6 11.6 0 0 1-5.42 1.39m-2.72-9.31q1.5-.5 3.38-1.44a25 25 0 0 0 3.6-2.33 13 13 0 0 0 2.89-2.94 5.7 5.7 0 0 0 1.16-3.38q0-.6-.22-.94t-.94-.33q-1.33 0-2.83 1.05-1.5 1-2.88 2.66a24 24 0 0 0-2.5 3.66 18 18 0 0 0-1.66 3.99m33.08 7.98q-1.94 0-2.93-1a3.6 3.6 0 0 1-.94-2.55q0-1.17.38-2.44.45-1.28.83-2.6.4-1.38.4-2.66 0-1.55-.67-2.1-.61-.62-1.55-.62-1.72 0-3.5 1.45a19 19 0 0 0-3.43 3.6 54 54 0 0 0-3.1 4.48l-2.55 4.16q-.9 0-1.66-.33a2.5 2.5 0 0 1-1.28-.89q0-.28.61-1.72l1.33-3.54q.78-2.1 1.39-4.32t.6-4.05q.34-.39 1.06-.78.72-.38 1.5-.38 1.5 0 1.49 1.44 0 .89-.5 2.99-.5 2.05-1.27 4.32 1.5-2.26 3.32-4.49a21 21 0 0 1 4-3.76q2.1-1.5 4.2-1.5 2.16 0 3.1 1.55 1 1.55 1 3.44 0 1.71-.55 3.21-.56 1.44-1.16 2.83a7 7 0 0 0-.56 2.71q0 1.17.44 1.66.5.45 1.22.45 1.4 0 2.77-1.28 1.39-1.33 2.66-3.32a34 34 0 0 0 2.33-4.05l.61.72a28 28 0 0 1-2.6 4.82 13 13 0 0 1-3.16 3.33 6.5 6.5 0 0 1-3.83 1.22m12.63 1.44q-2.4 0-3.66-1.39-1.27-1.38-1.27-4.1 0-2.43.88-5.98.94-3.6 2.33-7.37a7.06 7.06 0 0 1-2-.44v-1a32 32 0 0 0 2.44.22 82 82 0 0 1 5.1-10.75 22 22 0 0 1 2.5-3.5q1.2-1.32 2.04-1.32.45 0 .78.33.39.28.39.89 0 .94-1.17 3.1-1.16 2.1-2.88 5.04a79 79 0 0 0-3.32 6.38h2.05q1.83 0 3.82-.06 2.05-.06 4.1-.28v1q-3.05.33-5.48.5-2.39.17-4.27.17h-.84a49 49 0 0 0-2.15 6.04q-.9 3.1-.89 6.03 0 2.4.72 3.44.72 1 2.38 1 2.88 0 5.66-2.55 2.77-2.54 4.87-6.93l.72.56a23 23 0 0 1-3.38 5.6 16 16 0 0 1-4.43 3.93 10 10 0 0 1-5.04 1.44m15.08-1.11q-2.16 0-3.22-1.39a5 5 0 0 1-1.05-3.27 15 15 0 0 1 .44-3.2 42 42 0 0 1 3.05-8.1q1.05-1.88 2.22-3.05 1.16-1.2 2.27-1.21.49 0 .83.33.39.27.39.88 0 .67-.89 2.17-.83 1.5-2 3.43a30 30 0 0 0-2.04 4.1q-.84 2.1-.83 4.05 0 1.99.66 2.66.67.66 2.05.66 1.89 0 4-1.88 2.15-1.89 4.53-6.6l.5.56q-1.6 4.76-4.65 7.31-3 2.55-6.26 2.55m6.65-25.38a3 3 0 0 1-1.61-.44q-.67-.45-.67-1.39 0-1.16 1.34-2 1.38-.87 2.71-.88.83 0 1.33.39t.5 1.33q0 1.06-1.16 2.05-1.12.94-2.44.94m20.62 25.05q-1.94 0-2.94-1a3.6 3.6 0 0 1-.94-2.55q0-1.17.39-2.44.45-1.28.83-2.6.39-1.38.39-2.66 0-1.55-.67-2.1-.6-.62-1.55-.62-1.7 0-3.49 1.45a19 19 0 0 0-3.43 3.6 54 54 0 0 0-3.1 4.48l-2.56 4.16q-.88 0-1.66-.33a2.5 2.5 0 0 1-1.27-.89q0-.28.6-1.72.56-1.44 1.34-3.54.77-2.1 1.38-4.32t.61-4.05a4 4 0 0 1 1.05-.78q.73-.38 1.5-.38 1.5 0 1.5 1.44 0 .89-.5 2.99-.5 2.05-1.28 4.32 1.5-2.26 3.33-4.49a21 21 0 0 1 3.99-3.76q2.1-1.5 4.2-1.5 2.17 0 3.11 1.55 1 1.55 1 3.44 0 1.71-.56 3.21-.54 1.44-1.16 2.83a7 7 0 0 0-.55 2.71q0 1.17.44 1.66.5.45 1.22.45 1.39 0 2.77-1.28 1.38-1.33 2.66-3.32a35 35 0 0 0 2.33-4.05l.6.72a28 28 0 0 1-2.6 4.82 13 13 0 0 1-3.16 3.33 6.5 6.5 0 0 1-3.82 1.22m10.57 1.5q-1.71 0-2.88-1.17-1.22-1.1-1.22-3.44 0-2 .89-4.26.89-2.33 2.44-4.55a25 25 0 0 1 3.49-4.1 18 18 0 0 1 4.16-2.99 10 10 0 0 1 4.37-1.1q2.16 0 3.6 1.16a3.6 3.6 0 0 1 1.44 2.99q0 1.38-.77 1.88-.72.5-1.94.5.11-.44.16-.94.12-.55.12-1 0-1.27-.61-2.16-.62-.94-2.1-.94-1.56 0-3.17 1.1-1.6 1.06-3.1 2.89-1.5 1.77-2.66 3.88a24 24 0 0 0-1.83 4.15 12 12 0 0 0-.66 3.66q0 2.16 1.5 2.16 1.27 0 2.76-1.16 1.5-1.22 3.05-3.05a61 61 0 0 0 3.05-3.88q1.43-2 2.55-3.65.22-.34.27-.34a6 6 0 0 1 1.78.67q.38.27.38.72 0 .5-.5 1.38-.5.84-1.1 1.94-.6 1.11-1.11 2.27-.5 1.11-.5 2.1 0 .84.44 1.67.45.78 1.44.78 1.5 0 3.94-2.16 2.44-2.22 4.93-6.6l.56.56q-1.17 3-3 5.26a15 15 0 0 1-3.93 3.55 7.6 7.6 0 0 1-4.05 1.27q-2.05 0-3.04-1.22a4.3 4.3 0 0 1-.89-3.38l.11-.88a27 27 0 0 1-4.38 4.82 6.2 6.2 0 0 1-3.99 1.6"/>
  <defs>
    <clipPath id="a">
      <path fill="#fff" d="M51.02 72.67H12.55v35.67h38.47z"/>
    </clipPath>
  </defs>
</svg>
