<svg width="2169" height="2169" viewBox="0 0 2169 2169" fill="none" xmlns="http://www.w3.org/2000/svg">
<g clip-path="url(#clip0_569_206)">
<path d="M1464.67 1078.85C1468.26 1141.55 1420.16 1195.23 1357.67 1198.84C1355.42 1198.84 1353.18 1198.84 1350.93 1198.84C1287.99 1198.84 1237.19 1147.87 1237.64 1084.71C1237.64 1021.56 1288.44 970.591 1351.38 971.042C1411.62 971.042 1461.52 1018.41 1464.67 1078.85Z" fill="white"/>
<path d="M1888.15 1049.54C1908.38 1048.19 1925.91 1063.98 1926.81 1084.28C1927.71 1104.57 1912.42 1122.17 1892.19 1123.07C1871.96 1124.42 1854.88 1108.63 1853.53 1088.33C1852.18 1068.04 1867.92 1050.9 1888.15 1049.54Z" fill="white"/>
<path d="M1471.86 417.57C1453.88 408.548 1446.68 385.994 1455.67 367.951C1464.67 349.908 1487.14 342.69 1505.12 351.712C1523.11 360.734 1530.3 382.837 1521.31 400.88C1512.32 419.374 1490.29 427.043 1471.86 417.57Z" fill="white"/>
<path d="M1356.76 619.214C1328.89 605.23 1317.65 570.948 1331.59 542.981C1345.52 515.014 1379.69 503.737 1407.56 517.72C1435.43 531.704 1446.67 565.986 1432.74 593.953C1418.8 621.92 1384.64 633.197 1356.76 619.214Z" fill="white"/>
<path d="M1744.28 757.682C1722.7 771.666 1693.93 765.802 1679.55 744.15C1665.61 722.498 1671.45 693.629 1693.03 679.194C1714.61 665.21 1743.38 671.075 1757.77 692.727C1772.15 714.378 1765.86 743.699 1744.28 757.682Z" fill="white"/>
<path d="M1675.51 1029.23C1706.98 1027.42 1733.5 1051.33 1735.3 1082.91C1737.1 1114.48 1713.27 1141.1 1681.81 1142.9C1650.34 1144.71 1623.81 1120.8 1622.01 1089.22C1620.22 1058.1 1644.04 1031.03 1675.51 1029.23Z" fill="white"/>
<path d="M1738 1411.28C1760.92 1423.01 1770.36 1450.98 1758.68 1474.44C1746.99 1497.44 1719.12 1506.91 1695.74 1495.19C1672.81 1483.46 1663.37 1455.49 1675.06 1432.03C1686.75 1409.03 1715.07 1399.56 1738 1411.28Z" fill="white"/>
<path d="M1517.7 911.513C1486.69 931.811 1445.33 923.241 1425.55 892.116C1405.32 860.992 1413.86 819.492 1444.88 799.644C1475.9 779.346 1517.26 787.916 1537.04 819.041C1557.27 849.715 1548.72 891.214 1517.7 911.513Z" fill="white"/>
<path d="M818.674 614.695C792.6 631.836 757.085 624.618 740.002 598.456C722.919 572.293 730.112 536.657 756.186 519.516C782.26 502.375 817.775 509.592 834.858 535.755C852.39 562.369 845.198 597.554 818.674 614.695Z" fill="white"/>
<path d="M702.684 413.954C685.601 425.231 663.123 420.269 651.885 403.128C640.646 385.987 645.591 363.433 662.674 352.156C679.757 340.879 702.235 345.84 713.474 362.53C724.263 379.672 719.318 402.677 702.684 413.954Z" fill="white"/>
<path d="M810.126 970.12C872.614 966.511 926.56 1014.78 929.707 1077.48C933.304 1140.18 885.201 1194.31 822.713 1197.47C820.466 1197.47 818.218 1197.47 816.42 1197.47C753.931 1197.47 703.132 1146.49 703.132 1083.34C702.682 1023.35 749.886 973.277 810.126 970.12Z" fill="white"/>
<path d="M1319.45 903.385C1300.12 941.727 1261.01 966.086 1217.85 966.086C1155.36 966.086 1104.56 915.113 1104.56 851.962C1104.56 834.37 1108.61 816.778 1116.7 800.539C1145.02 744.153 1213.36 721.599 1269.1 750.017C1325.29 778.887 1347.77 847.451 1319.45 903.385Z" fill="white"/>
<path d="M429.805 757.68C406.878 745.952 397.887 717.534 409.575 694.529C421.263 671.523 449.585 662.502 472.513 674.23C495.44 685.958 504.431 713.925 493.192 736.93C481.054 759.935 453.182 769.408 429.805 757.68Z" fill="white"/>
<path d="M717.524 793.758C750.342 810.448 763.828 850.595 747.195 883.524C730.561 916.453 690.551 929.985 657.734 913.295C624.916 896.605 611.43 856.459 628.063 823.53C644.697 790.601 684.707 777.519 717.524 793.758Z" fill="white"/>
<path d="M1088.38 396.822C1062.76 398.175 1040.73 378.327 1038.93 352.615C1037.14 326.904 1057.37 304.801 1082.99 302.996C1108.61 301.643 1130.64 321.04 1132.44 346.751C1133.79 372.914 1114.01 395.017 1088.38 396.822Z" fill="white"/>
<path d="M1088.84 691.372C1051.97 693.628 1020.51 665.21 1018.71 628.221C1016.46 591.232 1044.78 559.656 1081.64 557.852C1118.51 555.597 1149.98 584.015 1151.78 621.004C1153.57 657.992 1125.7 689.568 1088.84 691.372Z" fill="white"/>
<path d="M1450.28 1375.2C1417.46 1358.51 1403.98 1318.37 1420.61 1285.44C1437.24 1252.51 1477.25 1238.98 1510.07 1255.67C1542.89 1272.36 1556.38 1312.5 1539.74 1345.43C1523.11 1378.36 1483.1 1391.89 1450.28 1375.2Z" fill="white"/>
<path d="M1045.69 789.252C1079.86 842.028 1065.47 912.397 1012.88 946.679C960.278 980.961 890.147 966.527 855.981 913.75C821.815 860.974 836.201 790.605 888.799 756.322C907.23 744.143 928.809 737.828 950.837 737.828C989.049 737.828 1024.56 757.225 1045.69 789.252Z" fill="white"/>
<path d="M848.334 1265.59C876.656 1209.2 944.988 1186.65 1000.73 1215.06C1056.93 1243.48 1079.4 1312.05 1051.08 1367.98C1022.76 1424.37 954.429 1446.92 898.684 1418.5C842.939 1390.54 820.012 1322.87 847.884 1266.49C847.884 1266.04 847.884 1266.04 848.334 1265.59Z" fill="white"/>
<path d="M650.086 1257.46C681.105 1237.17 722.464 1245.74 742.244 1276.86C762.474 1307.99 753.933 1349.49 722.914 1369.33C691.894 1389.63 650.535 1381.06 630.755 1349.94C610.525 1319.26 619.066 1277.76 650.086 1257.46Z" fill="white"/>
<path d="M432.504 1086.52C430.705 1054.94 454.532 1028.33 486.001 1026.53C517.469 1024.72 543.993 1048.63 545.791 1080.2C547.59 1111.78 523.763 1138.39 492.294 1140.2C461.275 1142 434.302 1117.64 432.504 1086.52Z" fill="white"/>
<path d="M275.617 1045.91C295.847 1044.56 313.38 1060.34 314.279 1080.64C315.178 1100.94 299.893 1118.53 279.663 1119.44C259.433 1120.79 242.35 1105 241.001 1084.7C240.102 1064.4 255.387 1047.26 275.617 1045.91Z" fill="white"/>
<path d="M423.51 1411.29C445.088 1397.3 473.86 1403.17 488.246 1424.82C502.182 1446.47 496.338 1475.34 474.759 1489.78C453.18 1503.76 424.409 1497.9 410.023 1476.24C395.637 1454.59 401.931 1425.27 423.51 1411.29Z" fill="white"/>
<path d="M1465.57 1755.01C1482.65 1743.73 1505.13 1748.69 1516.37 1765.38C1527.61 1782.52 1522.66 1805.08 1506.03 1816.35C1488.95 1827.63 1466.47 1822.67 1455.23 1805.98C1443.54 1789.29 1448.49 1766.28 1465.57 1755.01Z" fill="white"/>
<path d="M695.939 1751.41C713.922 1760.43 721.114 1782.98 712.123 1801.03C703.132 1819.07 680.655 1826.29 662.672 1817.26C644.69 1808.24 637.497 1786.14 646.489 1768.1C655.48 1749.6 677.508 1741.93 695.939 1751.41Z" fill="white"/>
<path d="M1122.11 1379.7C1087.94 1326.92 1102.33 1256.56 1154.93 1221.82C1207.52 1187.54 1277.65 1201.98 1312.27 1254.75C1346.89 1307.53 1332.05 1377.9 1279.45 1412.63C1261.02 1424.81 1239.44 1431.12 1217.41 1431.12C1178.75 1431.58 1143.24 1412.18 1122.11 1379.7Z" fill="white"/>
<path d="M1349.14 1554.28C1375.21 1537.14 1410.73 1544.36 1427.81 1570.52C1444.89 1596.68 1437.7 1632.32 1411.63 1649.46C1385.55 1666.6 1350.04 1659.38 1332.95 1633.22C1315.42 1607.06 1322.61 1571.42 1349.14 1554.28Z" fill="white"/>
<path d="M1084.36 1772.14C1109.98 1770.79 1132.01 1790.64 1133.81 1816.35C1135.61 1842.06 1115.38 1864.16 1089.75 1865.97C1064.13 1867.32 1042.1 1847.93 1040.3 1822.21C1038.95 1796.05 1058.73 1773.95 1084.36 1772.14Z" fill="white"/>
<path d="M1083.9 1477.59C1120.76 1475.34 1152.23 1503.76 1154.03 1540.75C1156.28 1577.73 1127.96 1609.31 1091.09 1611.11C1054.23 1612.92 1022.76 1584.95 1020.96 1547.96C1018.71 1511.43 1047.04 1479.4 1083.9 1477.59Z" fill="white"/>
<path d="M811.028 1549.76C838.9 1564.2 850.139 1598.48 835.753 1626.45C821.367 1654.41 787.201 1665.69 759.329 1651.26C731.456 1637.27 720.218 1602.99 734.154 1575.02C748.54 1547.06 782.706 1535.33 811.028 1549.76Z" fill="white"/>
</g>
<defs>
<clipPath id="clip0_569_206">
<rect width="1685.83" height="1563" fill="white" transform="matrix(-1 0 0 1 1926.83 303)"/>
</clipPath>
</defs>
</svg>
